<svg width="40" height="8" viewBox="0 0 40 8" fill="none" xmlns="http://www.w3.org/2000/svg">
<circle cx="3" cy="4" r="2" stroke="#4A6CF7" stroke-width="2"/>
<path d="M39.5057 4.37742C39.8352 4.21274 40 4.13039 40 4C40 3.8696 39.8352 3.78726 39.5057 3.62258L34.5236 1.13298C34.3299 1.03621 34.2331 0.987823 34.1614 1.00262C34.1009 1.01513 34.0489 1.05352 34.0191 1.10767C33.9839 1.17178 34.0017 1.2785 34.0373 1.49194C34.1948 2.43654 34.2736 2.90884 34.3045 3.38399C34.3312 3.79423 34.3312 4.20577 34.3045 4.616C34.2736 5.09116 34.1948 5.56346 34.0373 6.50806C34.0017 6.7215 33.9839 6.82822 34.0191 6.89233C34.0489 6.94648 34.1009 6.98487 34.1614 6.99737C34.2331 7.01218 34.3299 6.96379 34.5236 6.86702L39.5057 4.37742Z" fill="#4A6CF7"/>
<path d="M6 4H34" stroke="#4A6CF7" stroke-width="1.5" stroke-linecap="square"/>
</svg>
