<svg width="400" height="244" viewBox="0 0 400 244" fill="none" xmlns="http://www.w3.org/2000/svg">
<mask id="path-1-inside-1_1102_2677" fill="white">
<path d="M0 8C0 3.58172 3.58172 0 8 0H392C396.418 0 400 3.58172 400 8V235.053C400 239.472 396.418 243.053 392 243.053H7.99999C3.58171 243.053 0 239.472 0 235.053V8Z"/>
</mask>
<path d="M0 8C0 3.58172 3.58172 0 8 0H392C396.418 0 400 3.58172 400 8V235.053C400 239.472 396.418 243.053 392 243.053H7.99999C3.58171 243.053 0 239.472 0 235.053V8Z" fill="#121212"/>
<path d="M-2 8C-2 2.47715 2.47715 -2 8 -2H392C397.523 -2 402 2.47715 402 8H398C398 4.68629 395.314 2 392 2H8C4.68629 2 2 4.68629 2 8H-2ZM402 235.053C402 240.576 397.523 245.053 392 245.053H8C2.47715 245.053 -2 240.576 -2 235.053H2C2 238.367 4.68629 241.053 8 241.053H392C395.314 241.053 398 238.367 398 235.053H402ZM8 245.053C2.47715 245.053 -2 240.576 -2 235.053V8C-2 2.47715 2.47715 -2 8 -2V2C4.68629 2 2 4.68629 2 8V235.053C2 238.367 4.68629 241.053 8 241.053V245.053ZM392 -2C397.523 -2 402 2.47715 402 8V235.053C402 240.576 397.523 245.053 392 245.053V241.053C395.314 241.053 398 238.367 398 235.053V8C398 4.68629 395.314 2 392 2V-2Z" fill="white" fill-opacity="0.2" mask="url(#path-1-inside-1_1102_2677)"/>
<mask id="path-3-inside-2_1102_2677" fill="white">
<path d="M0 8C0 3.58172 3.58172 0 8 0H392C396.418 0 400 3.58172 400 8V28H0V8Z"/>
</mask>
<path d="M0 8C0 3.58172 3.58172 0 8 0H392C396.418 0 400 3.58172 400 8V28H0V8Z" fill="white" fill-opacity="0.05"/>
<path d="M-2 8C-2 2.47715 2.47715 -2 8 -2H392C397.523 -2 402 2.47715 402 8H398C398 4.68629 395.314 2 392 2H8C4.68629 2 2 4.68629 2 8H-2ZM402 30H-2L2 26H398L402 30ZM-2 30V8C-2 2.47715 2.47715 -2 8 -2V2C4.68629 2 2 4.68629 2 8V26L-2 30ZM392 -2C397.523 -2 402 2.47715 402 8V30L398 26V8C398 4.68629 395.314 2 392 2V-2Z" fill="white" fill-opacity="0.05" mask="url(#path-3-inside-2_1102_2677)"/>
<path d="M2 28H278V241H8C4.68629 241 2 238.314 2 235V28Z" fill="#0A0A0A"/>
<circle cx="10" cy="35" r="1" fill="white" fill-opacity="0.1"/>
<circle cx="20" cy="35" r="1" fill="white" fill-opacity="0.1"/>
<circle cx="30" cy="35" r="1" fill="white" fill-opacity="0.1"/>
<circle cx="40" cy="35" r="1" fill="white" fill-opacity="0.1"/>
<circle cx="50" cy="35" r="1" fill="white" fill-opacity="0.1"/>
<circle cx="60" cy="35" r="1" fill="white" fill-opacity="0.1"/>
<circle cx="70" cy="35" r="1" fill="white" fill-opacity="0.1"/>
<circle cx="80" cy="35" r="1" fill="white" fill-opacity="0.1"/>
<circle cx="90" cy="35" r="1" fill="white" fill-opacity="0.1"/>
<circle cx="100" cy="35" r="1" fill="white" fill-opacity="0.1"/>
<circle cx="110" cy="35" r="1" fill="white" fill-opacity="0.1"/>
<circle cx="120" cy="35" r="1" fill="white" fill-opacity="0.1"/>
<circle cx="130" cy="35" r="1" fill="white" fill-opacity="0.1"/>
<circle cx="140" cy="35" r="1" fill="white" fill-opacity="0.1"/>
<circle cx="150" cy="35" r="1" fill="white" fill-opacity="0.1"/>
<circle cx="160" cy="35" r="1" fill="white" fill-opacity="0.1"/>
<circle cx="170" cy="35" r="1" fill="white" fill-opacity="0.1"/>
<circle cx="180" cy="35" r="1" fill="white" fill-opacity="0.1"/>
<circle cx="190" cy="35" r="1" fill="white" fill-opacity="0.1"/>
<circle cx="200" cy="35" r="1" fill="white" fill-opacity="0.1"/>
<circle cx="210" cy="35" r="1" fill="white" fill-opacity="0.1"/>
<circle cx="220" cy="35" r="1" fill="white" fill-opacity="0.1"/>
<circle cx="230" cy="35" r="1" fill="white" fill-opacity="0.1"/>
<circle cx="240" cy="35" r="1" fill="white" fill-opacity="0.1"/>
<circle cx="250" cy="35" r="1" fill="white" fill-opacity="0.1"/>
<circle cx="260" cy="35" r="1" fill="white" fill-opacity="0.1"/>
<circle cx="270" cy="35" r="1" fill="white" fill-opacity="0.1"/>
<circle cx="10" cy="45" r="1" fill="white" fill-opacity="0.1"/>
<circle cx="20" cy="45" r="1" fill="white" fill-opacity="0.1"/>
<circle cx="30" cy="45" r="1" fill="white" fill-opacity="0.1"/>
<circle cx="40" cy="45" r="1" fill="white" fill-opacity="0.1"/>
<circle cx="50" cy="45" r="1" fill="white" fill-opacity="0.1"/>
<circle cx="60" cy="45" r="1" fill="white" fill-opacity="0.1"/>
<circle cx="70" cy="45" r="1" fill="white" fill-opacity="0.1"/>
<circle cx="80" cy="45" r="1" fill="white" fill-opacity="0.1"/>
<circle cx="90" cy="45" r="1" fill="white" fill-opacity="0.1"/>
<circle cx="100" cy="45" r="1" fill="white" fill-opacity="0.1"/>
<circle cx="110" cy="45" r="1" fill="white" fill-opacity="0.1"/>
<circle cx="120" cy="45" r="1" fill="white" fill-opacity="0.1"/>
<circle cx="130" cy="45" r="1" fill="white" fill-opacity="0.1"/>
<circle cx="140" cy="45" r="1" fill="white" fill-opacity="0.1"/>
<circle cx="150" cy="45" r="1" fill="white" fill-opacity="0.1"/>
<circle cx="160" cy="45" r="1" fill="white" fill-opacity="0.1"/>
<circle cx="170" cy="45" r="1" fill="white" fill-opacity="0.1"/>
<circle cx="180" cy="45" r="1" fill="white" fill-opacity="0.1"/>
<circle cx="190" cy="45" r="1" fill="white" fill-opacity="0.1"/>
<circle cx="200" cy="45" r="1" fill="white" fill-opacity="0.1"/>
<circle cx="210" cy="45" r="1" fill="white" fill-opacity="0.1"/>
<circle cx="220" cy="45" r="1" fill="white" fill-opacity="0.1"/>
<circle cx="230" cy="45" r="1" fill="white" fill-opacity="0.1"/>
<circle cx="240" cy="45" r="1" fill="white" fill-opacity="0.1"/>
<circle cx="250" cy="45" r="1" fill="white" fill-opacity="0.1"/>
<circle cx="260" cy="45" r="1" fill="white" fill-opacity="0.1"/>
<circle cx="270" cy="45" r="1" fill="white" fill-opacity="0.1"/>
<circle cx="10" cy="55" r="1" fill="white" fill-opacity="0.1"/>
<circle cx="20" cy="55" r="1" fill="white" fill-opacity="0.1"/>
<circle cx="30" cy="55" r="1" fill="white" fill-opacity="0.1"/>
<circle cx="40" cy="55" r="1" fill="white" fill-opacity="0.1"/>
<circle cx="50" cy="55" r="1" fill="white" fill-opacity="0.1"/>
<circle cx="60" cy="55" r="1" fill="white" fill-opacity="0.1"/>
<circle cx="70" cy="55" r="1" fill="white" fill-opacity="0.1"/>
<circle cx="80" cy="55" r="1" fill="white" fill-opacity="0.1"/>
<circle cx="90" cy="55" r="1" fill="white" fill-opacity="0.1"/>
<circle cx="100" cy="55" r="1" fill="white" fill-opacity="0.1"/>
<circle cx="110" cy="55" r="1" fill="white" fill-opacity="0.1"/>
<circle cx="120" cy="55" r="1" fill="white" fill-opacity="0.1"/>
<circle cx="130" cy="55" r="1" fill="white" fill-opacity="0.1"/>
<circle cx="140" cy="55" r="1" fill="white" fill-opacity="0.1"/>
<circle cx="150" cy="55" r="1" fill="white" fill-opacity="0.1"/>
<circle cx="160" cy="55" r="1" fill="white" fill-opacity="0.1"/>
<circle cx="170" cy="55" r="1" fill="white" fill-opacity="0.1"/>
<circle cx="180" cy="55" r="1" fill="white" fill-opacity="0.1"/>
<circle cx="190" cy="55" r="1" fill="white" fill-opacity="0.1"/>
<circle cx="200" cy="55" r="1" fill="white" fill-opacity="0.1"/>
<circle cx="210" cy="55" r="1" fill="white" fill-opacity="0.1"/>
<circle cx="220" cy="55" r="1" fill="white" fill-opacity="0.1"/>
<circle cx="230" cy="55" r="1" fill="white" fill-opacity="0.1"/>
<circle cx="240" cy="55" r="1" fill="white" fill-opacity="0.1"/>
<circle cx="250" cy="55" r="1" fill="white" fill-opacity="0.1"/>
<circle cx="260" cy="55" r="1" fill="white" fill-opacity="0.1"/>
<circle cx="270" cy="55" r="1" fill="white" fill-opacity="0.1"/>
<circle cx="10" cy="65" r="1" fill="white" fill-opacity="0.1"/>
<circle cx="20" cy="65" r="1" fill="white" fill-opacity="0.1"/>
<circle cx="30" cy="65" r="1" fill="white" fill-opacity="0.1"/>
<circle cx="40" cy="65" r="1" fill="white" fill-opacity="0.1"/>
<circle cx="50" cy="65" r="1" fill="white" fill-opacity="0.1"/>
<circle cx="60" cy="65" r="1" fill="white" fill-opacity="0.1"/>
<circle cx="70" cy="65" r="1" fill="white" fill-opacity="0.1"/>
<circle cx="80" cy="65" r="1" fill="white" fill-opacity="0.1"/>
<circle cx="90" cy="65" r="1" fill="white" fill-opacity="0.1"/>
<circle cx="100" cy="65" r="1" fill="white" fill-opacity="0.1"/>
<circle cx="110" cy="65" r="1" fill="white" fill-opacity="0.1"/>
<circle cx="120" cy="65" r="1" fill="white" fill-opacity="0.1"/>
<circle cx="130" cy="65" r="1" fill="white" fill-opacity="0.1"/>
<circle cx="140" cy="65" r="1" fill="white" fill-opacity="0.1"/>
<circle cx="150" cy="65" r="1" fill="white" fill-opacity="0.1"/>
<circle cx="160" cy="65" r="1" fill="white" fill-opacity="0.1"/>
<circle cx="170" cy="65" r="1" fill="white" fill-opacity="0.1"/>
<circle cx="180" cy="65" r="1" fill="white" fill-opacity="0.1"/>
<circle cx="190" cy="65" r="1" fill="white" fill-opacity="0.1"/>
<circle cx="200" cy="65" r="1" fill="white" fill-opacity="0.1"/>
<circle cx="210" cy="65" r="1" fill="white" fill-opacity="0.1"/>
<circle cx="220" cy="65" r="1" fill="white" fill-opacity="0.1"/>
<circle cx="230" cy="65" r="1" fill="white" fill-opacity="0.1"/>
<circle cx="240" cy="65" r="1" fill="white" fill-opacity="0.1"/>
<circle cx="250" cy="65" r="1" fill="white" fill-opacity="0.1"/>
<circle cx="260" cy="65" r="1" fill="white" fill-opacity="0.1"/>
<circle cx="270" cy="65" r="1" fill="white" fill-opacity="0.1"/>
<circle cx="10" cy="75" r="1" fill="white" fill-opacity="0.1"/>
<circle cx="20" cy="75" r="1" fill="white" fill-opacity="0.1"/>
<circle cx="30" cy="75" r="1" fill="white" fill-opacity="0.1"/>
<circle cx="40" cy="75" r="1" fill="white" fill-opacity="0.1"/>
<circle cx="50" cy="75" r="1" fill="white" fill-opacity="0.1"/>
<circle cx="60" cy="75" r="1" fill="white" fill-opacity="0.1"/>
<circle cx="70" cy="75" r="1" fill="white" fill-opacity="0.1"/>
<circle cx="80" cy="75" r="1" fill="white" fill-opacity="0.1"/>
<circle cx="90" cy="75" r="1" fill="white" fill-opacity="0.1"/>
<circle cx="100" cy="75" r="1" fill="white" fill-opacity="0.1"/>
<circle cx="110" cy="75" r="1" fill="white" fill-opacity="0.1"/>
<circle cx="120" cy="75" r="1" fill="white" fill-opacity="0.1"/>
<circle cx="130" cy="75" r="1" fill="white" fill-opacity="0.1"/>
<circle cx="140" cy="75" r="1" fill="white" fill-opacity="0.1"/>
<circle cx="150" cy="75" r="1" fill="white" fill-opacity="0.1"/>
<circle cx="160" cy="75" r="1" fill="white" fill-opacity="0.1"/>
<circle cx="170" cy="75" r="1" fill="white" fill-opacity="0.1"/>
<circle cx="180" cy="75" r="1" fill="white" fill-opacity="0.1"/>
<circle cx="190" cy="75" r="1" fill="white" fill-opacity="0.1"/>
<circle cx="200" cy="75" r="1" fill="white" fill-opacity="0.1"/>
<circle cx="210" cy="75" r="1" fill="white" fill-opacity="0.1"/>
<circle cx="220" cy="75" r="1" fill="white" fill-opacity="0.1"/>
<circle cx="230" cy="75" r="1" fill="white" fill-opacity="0.1"/>
<circle cx="240" cy="75" r="1" fill="white" fill-opacity="0.1"/>
<circle cx="250" cy="75" r="1" fill="white" fill-opacity="0.1"/>
<circle cx="260" cy="75" r="1" fill="white" fill-opacity="0.1"/>
<circle cx="270" cy="75" r="1" fill="white" fill-opacity="0.1"/>
<circle cx="10" cy="85" r="1" fill="white" fill-opacity="0.1"/>
<circle cx="20" cy="85" r="1" fill="white" fill-opacity="0.1"/>
<circle cx="30" cy="85" r="1" fill="white" fill-opacity="0.1"/>
<circle cx="40" cy="85" r="1" fill="white" fill-opacity="0.1"/>
<circle cx="50" cy="85" r="1" fill="white" fill-opacity="0.1"/>
<circle cx="60" cy="85" r="1" fill="white" fill-opacity="0.1"/>
<circle cx="70" cy="85" r="1" fill="white" fill-opacity="0.1"/>
<circle cx="80" cy="85" r="1" fill="white" fill-opacity="0.1"/>
<circle cx="90" cy="85" r="1" fill="white" fill-opacity="0.1"/>
<circle cx="100" cy="85" r="1" fill="white" fill-opacity="0.1"/>
<circle cx="110" cy="85" r="1" fill="white" fill-opacity="0.1"/>
<circle cx="120" cy="85" r="1" fill="white" fill-opacity="0.1"/>
<circle cx="130" cy="85" r="1" fill="white" fill-opacity="0.1"/>
<circle cx="140" cy="85" r="1" fill="white" fill-opacity="0.1"/>
<circle cx="150" cy="85" r="1" fill="white" fill-opacity="0.1"/>
<circle cx="160" cy="85" r="1" fill="white" fill-opacity="0.1"/>
<circle cx="170" cy="85" r="1" fill="white" fill-opacity="0.1"/>
<circle cx="180" cy="85" r="1" fill="white" fill-opacity="0.1"/>
<circle cx="190" cy="85" r="1" fill="white" fill-opacity="0.1"/>
<circle cx="200" cy="85" r="1" fill="white" fill-opacity="0.1"/>
<circle cx="210" cy="85" r="1" fill="white" fill-opacity="0.1"/>
<circle cx="220" cy="85" r="1" fill="white" fill-opacity="0.1"/>
<circle cx="230" cy="85" r="1" fill="white" fill-opacity="0.1"/>
<circle cx="240" cy="85" r="1" fill="white" fill-opacity="0.1"/>
<circle cx="250" cy="85" r="1" fill="white" fill-opacity="0.1"/>
<circle cx="260" cy="85" r="1" fill="white" fill-opacity="0.1"/>
<circle cx="270" cy="85" r="1" fill="white" fill-opacity="0.1"/>
<circle cx="10" cy="95" r="1" fill="white" fill-opacity="0.1"/>
<circle cx="20" cy="95" r="1" fill="white" fill-opacity="0.1"/>
<circle cx="30" cy="95" r="1" fill="white" fill-opacity="0.1"/>
<circle cx="40" cy="95" r="1" fill="white" fill-opacity="0.1"/>
<circle cx="50" cy="95" r="1" fill="white" fill-opacity="0.1"/>
<circle cx="60" cy="95" r="1" fill="white" fill-opacity="0.1"/>
<circle cx="70" cy="95" r="1" fill="white" fill-opacity="0.1"/>
<circle cx="80" cy="95" r="1" fill="white" fill-opacity="0.1"/>
<circle cx="90" cy="95" r="1" fill="white" fill-opacity="0.1"/>
<circle cx="100" cy="95" r="1" fill="white" fill-opacity="0.1"/>
<circle cx="110" cy="95" r="1" fill="white" fill-opacity="0.1"/>
<circle cx="120" cy="95" r="1" fill="white" fill-opacity="0.1"/>
<circle cx="130" cy="95" r="1" fill="white" fill-opacity="0.1"/>
<circle cx="140" cy="95" r="1" fill="white" fill-opacity="0.1"/>
<circle cx="150" cy="95" r="1" fill="white" fill-opacity="0.1"/>
<circle cx="160" cy="95" r="1" fill="white" fill-opacity="0.1"/>
<circle cx="170" cy="95" r="1" fill="white" fill-opacity="0.1"/>
<circle cx="180" cy="95" r="1" fill="white" fill-opacity="0.1"/>
<circle cx="190" cy="95" r="1" fill="white" fill-opacity="0.1"/>
<circle cx="200" cy="95" r="1" fill="white" fill-opacity="0.1"/>
<circle cx="210" cy="95" r="1" fill="white" fill-opacity="0.1"/>
<circle cx="220" cy="95" r="1" fill="white" fill-opacity="0.1"/>
<circle cx="230" cy="95" r="1" fill="white" fill-opacity="0.1"/>
<circle cx="240" cy="95" r="1" fill="white" fill-opacity="0.1"/>
<circle cx="250" cy="95" r="1" fill="white" fill-opacity="0.1"/>
<circle cx="260" cy="95" r="1" fill="white" fill-opacity="0.1"/>
<circle cx="270" cy="95" r="1" fill="white" fill-opacity="0.1"/>
<circle cx="10" cy="105" r="1" fill="white" fill-opacity="0.1"/>
<circle cx="20" cy="105" r="1" fill="white" fill-opacity="0.1"/>
<circle cx="30" cy="105" r="1" fill="white" fill-opacity="0.1"/>
<circle cx="40" cy="105" r="1" fill="white" fill-opacity="0.1"/>
<circle cx="50" cy="105" r="1" fill="white" fill-opacity="0.1"/>
<circle cx="60" cy="105" r="1" fill="white" fill-opacity="0.1"/>
<circle cx="70" cy="105" r="1" fill="white" fill-opacity="0.1"/>
<circle cx="80" cy="105" r="1" fill="white" fill-opacity="0.1"/>
<circle cx="90" cy="105" r="1" fill="white" fill-opacity="0.1"/>
<circle cx="100" cy="105" r="1" fill="white" fill-opacity="0.1"/>
<circle cx="110" cy="105" r="1" fill="white" fill-opacity="0.1"/>
<circle cx="120" cy="105" r="1" fill="white" fill-opacity="0.1"/>
<circle cx="130" cy="105" r="1" fill="white" fill-opacity="0.1"/>
<circle cx="140" cy="105" r="1" fill="white" fill-opacity="0.1"/>
<circle cx="150" cy="105" r="1" fill="white" fill-opacity="0.1"/>
<circle cx="160" cy="105" r="1" fill="white" fill-opacity="0.1"/>
<circle cx="170" cy="105" r="1" fill="white" fill-opacity="0.1"/>
<circle cx="180" cy="105" r="1" fill="white" fill-opacity="0.1"/>
<circle cx="190" cy="105" r="1" fill="white" fill-opacity="0.1"/>
<circle cx="200" cy="105" r="1" fill="white" fill-opacity="0.1"/>
<circle cx="210" cy="105" r="1" fill="white" fill-opacity="0.1"/>
<circle cx="220" cy="105" r="1" fill="white" fill-opacity="0.1"/>
<circle cx="230" cy="105" r="1" fill="white" fill-opacity="0.1"/>
<circle cx="240" cy="105" r="1" fill="white" fill-opacity="0.1"/>
<circle cx="250" cy="105" r="1" fill="white" fill-opacity="0.1"/>
<circle cx="260" cy="105" r="1" fill="white" fill-opacity="0.1"/>
<circle cx="270" cy="105" r="1" fill="white" fill-opacity="0.1"/>
<circle cx="10" cy="115" r="1" fill="white" fill-opacity="0.1"/>
<circle cx="20" cy="115" r="1" fill="white" fill-opacity="0.1"/>
<circle cx="30" cy="115" r="1" fill="white" fill-opacity="0.1"/>
<circle cx="40" cy="115" r="1" fill="white" fill-opacity="0.1"/>
<circle cx="50" cy="115" r="1" fill="white" fill-opacity="0.1"/>
<circle cx="60" cy="115" r="1" fill="white" fill-opacity="0.1"/>
<circle cx="70" cy="115" r="1" fill="white" fill-opacity="0.1"/>
<circle cx="80" cy="115" r="1" fill="white" fill-opacity="0.1"/>
<circle cx="90" cy="115" r="1" fill="white" fill-opacity="0.1"/>
<circle cx="100" cy="115" r="1" fill="white" fill-opacity="0.1"/>
<circle cx="110" cy="115" r="1" fill="white" fill-opacity="0.1"/>
<circle cx="120" cy="115" r="1" fill="white" fill-opacity="0.1"/>
<circle cx="130" cy="115" r="1" fill="white" fill-opacity="0.1"/>
<circle cx="140" cy="115" r="1" fill="white" fill-opacity="0.1"/>
<circle cx="150" cy="115" r="1" fill="white" fill-opacity="0.1"/>
<circle cx="160" cy="115" r="1" fill="white" fill-opacity="0.1"/>
<circle cx="170" cy="115" r="1" fill="white" fill-opacity="0.1"/>
<circle cx="180" cy="115" r="1" fill="white" fill-opacity="0.1"/>
<circle cx="190" cy="115" r="1" fill="white" fill-opacity="0.1"/>
<circle cx="200" cy="115" r="1" fill="white" fill-opacity="0.1"/>
<circle cx="210" cy="115" r="1" fill="white" fill-opacity="0.1"/>
<circle cx="220" cy="115" r="1" fill="white" fill-opacity="0.1"/>
<circle cx="230" cy="115" r="1" fill="white" fill-opacity="0.1"/>
<circle cx="240" cy="115" r="1" fill="white" fill-opacity="0.1"/>
<circle cx="250" cy="115" r="1" fill="white" fill-opacity="0.1"/>
<circle cx="260" cy="115" r="1" fill="white" fill-opacity="0.1"/>
<circle cx="270" cy="115" r="1" fill="white" fill-opacity="0.1"/>
<circle cx="10" cy="125" r="1" fill="white" fill-opacity="0.1"/>
<circle cx="20" cy="125" r="1" fill="white" fill-opacity="0.1"/>
<circle cx="30" cy="125" r="1" fill="white" fill-opacity="0.1"/>
<circle cx="40" cy="125" r="1" fill="white" fill-opacity="0.1"/>
<circle cx="50" cy="125" r="1" fill="white" fill-opacity="0.1"/>
<circle cx="60" cy="125" r="1" fill="white" fill-opacity="0.1"/>
<circle cx="70" cy="125" r="1" fill="white" fill-opacity="0.1"/>
<circle cx="80" cy="125" r="1" fill="white" fill-opacity="0.1"/>
<circle cx="90" cy="125" r="1" fill="white" fill-opacity="0.1"/>
<circle cx="100" cy="125" r="1" fill="white" fill-opacity="0.1"/>
<circle cx="110" cy="125" r="1" fill="white" fill-opacity="0.1"/>
<circle cx="120" cy="125" r="1" fill="white" fill-opacity="0.1"/>
<circle cx="130" cy="125" r="1" fill="white" fill-opacity="0.1"/>
<circle cx="140" cy="125" r="1" fill="white" fill-opacity="0.1"/>
<circle cx="150" cy="125" r="1" fill="white" fill-opacity="0.1"/>
<circle cx="160" cy="125" r="1" fill="white" fill-opacity="0.1"/>
<circle cx="170" cy="125" r="1" fill="white" fill-opacity="0.1"/>
<circle cx="180" cy="125" r="1" fill="white" fill-opacity="0.1"/>
<circle cx="190" cy="125" r="1" fill="white" fill-opacity="0.1"/>
<circle cx="200" cy="125" r="1" fill="white" fill-opacity="0.1"/>
<circle cx="210" cy="125" r="1" fill="white" fill-opacity="0.1"/>
<circle cx="220" cy="125" r="1" fill="white" fill-opacity="0.1"/>
<circle cx="230" cy="125" r="1" fill="white" fill-opacity="0.1"/>
<circle cx="240" cy="125" r="1" fill="white" fill-opacity="0.1"/>
<circle cx="250" cy="125" r="1" fill="white" fill-opacity="0.1"/>
<circle cx="260" cy="125" r="1" fill="white" fill-opacity="0.1"/>
<circle cx="270" cy="125" r="1" fill="white" fill-opacity="0.1"/>
<circle cx="10" cy="135" r="1" fill="white" fill-opacity="0.1"/>
<circle cx="20" cy="135" r="1" fill="white" fill-opacity="0.1"/>
<circle cx="30" cy="135" r="1" fill="white" fill-opacity="0.1"/>
<circle cx="40" cy="135" r="1" fill="white" fill-opacity="0.1"/>
<circle cx="50" cy="135" r="1" fill="white" fill-opacity="0.1"/>
<circle cx="60" cy="135" r="1" fill="white" fill-opacity="0.1"/>
<circle cx="70" cy="135" r="1" fill="white" fill-opacity="0.1"/>
<circle cx="80" cy="135" r="1" fill="white" fill-opacity="0.1"/>
<circle cx="90" cy="135" r="1" fill="white" fill-opacity="0.1"/>
<circle cx="100" cy="135" r="1" fill="white" fill-opacity="0.1"/>
<circle cx="110" cy="135" r="1" fill="white" fill-opacity="0.1"/>
<circle cx="120" cy="135" r="1" fill="white" fill-opacity="0.1"/>
<circle cx="130" cy="135" r="1" fill="white" fill-opacity="0.1"/>
<circle cx="140" cy="135" r="1" fill="white" fill-opacity="0.1"/>
<circle cx="150" cy="135" r="1" fill="white" fill-opacity="0.1"/>
<circle cx="160" cy="135" r="1" fill="white" fill-opacity="0.1"/>
<circle cx="170" cy="135" r="1" fill="white" fill-opacity="0.1"/>
<circle cx="180" cy="135" r="1" fill="white" fill-opacity="0.1"/>
<circle cx="190" cy="135" r="1" fill="white" fill-opacity="0.1"/>
<circle cx="200" cy="135" r="1" fill="white" fill-opacity="0.1"/>
<circle cx="210" cy="135" r="1" fill="white" fill-opacity="0.1"/>
<circle cx="220" cy="135" r="1" fill="white" fill-opacity="0.1"/>
<circle cx="230" cy="135" r="1" fill="white" fill-opacity="0.1"/>
<circle cx="240" cy="135" r="1" fill="white" fill-opacity="0.1"/>
<circle cx="250" cy="135" r="1" fill="white" fill-opacity="0.1"/>
<circle cx="260" cy="135" r="1" fill="white" fill-opacity="0.1"/>
<circle cx="270" cy="135" r="1" fill="white" fill-opacity="0.1"/>
<circle cx="10" cy="145" r="1" fill="white" fill-opacity="0.1"/>
<circle cx="20" cy="145" r="1" fill="white" fill-opacity="0.1"/>
<circle cx="30" cy="145" r="1" fill="white" fill-opacity="0.1"/>
<circle cx="40" cy="145" r="1" fill="white" fill-opacity="0.1"/>
<circle cx="50" cy="145" r="1" fill="white" fill-opacity="0.1"/>
<circle cx="60" cy="145" r="1" fill="white" fill-opacity="0.1"/>
<circle cx="70" cy="145" r="1" fill="white" fill-opacity="0.1"/>
<circle cx="80" cy="145" r="1" fill="white" fill-opacity="0.1"/>
<circle cx="90" cy="145" r="1" fill="white" fill-opacity="0.1"/>
<circle cx="100" cy="145" r="1" fill="white" fill-opacity="0.1"/>
<circle cx="110" cy="145" r="1" fill="white" fill-opacity="0.1"/>
<circle cx="120" cy="145" r="1" fill="white" fill-opacity="0.1"/>
<circle cx="130" cy="145" r="1" fill="white" fill-opacity="0.1"/>
<circle cx="140" cy="145" r="1" fill="white" fill-opacity="0.1"/>
<circle cx="150" cy="145" r="1" fill="white" fill-opacity="0.1"/>
<circle cx="160" cy="145" r="1" fill="white" fill-opacity="0.1"/>
<circle cx="170" cy="145" r="1" fill="white" fill-opacity="0.1"/>
<circle cx="180" cy="145" r="1" fill="white" fill-opacity="0.1"/>
<circle cx="190" cy="145" r="1" fill="white" fill-opacity="0.1"/>
<circle cx="200" cy="145" r="1" fill="white" fill-opacity="0.1"/>
<circle cx="210" cy="145" r="1" fill="white" fill-opacity="0.1"/>
<circle cx="220" cy="145" r="1" fill="white" fill-opacity="0.1"/>
<circle cx="230" cy="145" r="1" fill="white" fill-opacity="0.1"/>
<circle cx="240" cy="145" r="1" fill="white" fill-opacity="0.1"/>
<circle cx="250" cy="145" r="1" fill="white" fill-opacity="0.1"/>
<circle cx="260" cy="145" r="1" fill="white" fill-opacity="0.1"/>
<circle cx="270" cy="145" r="1" fill="white" fill-opacity="0.1"/>
<circle cx="10" cy="155" r="1" fill="white" fill-opacity="0.1"/>
<circle cx="20" cy="155" r="1" fill="white" fill-opacity="0.1"/>
<circle cx="30" cy="155" r="1" fill="white" fill-opacity="0.1"/>
<circle cx="40" cy="155" r="1" fill="white" fill-opacity="0.1"/>
<circle cx="50" cy="155" r="1" fill="white" fill-opacity="0.1"/>
<circle cx="60" cy="155" r="1" fill="white" fill-opacity="0.1"/>
<circle cx="70" cy="155" r="1" fill="white" fill-opacity="0.1"/>
<circle cx="80" cy="155" r="1" fill="white" fill-opacity="0.1"/>
<circle cx="90" cy="155" r="1" fill="white" fill-opacity="0.1"/>
<circle cx="100" cy="155" r="1" fill="white" fill-opacity="0.1"/>
<circle cx="110" cy="155" r="1" fill="white" fill-opacity="0.1"/>
<circle cx="120" cy="155" r="1" fill="white" fill-opacity="0.1"/>
<circle cx="130" cy="155" r="1" fill="white" fill-opacity="0.1"/>
<circle cx="140" cy="155" r="1" fill="white" fill-opacity="0.1"/>
<circle cx="150" cy="155" r="1" fill="white" fill-opacity="0.1"/>
<circle cx="160" cy="155" r="1" fill="white" fill-opacity="0.1"/>
<circle cx="170" cy="155" r="1" fill="white" fill-opacity="0.1"/>
<circle cx="180" cy="155" r="1" fill="white" fill-opacity="0.1"/>
<circle cx="190" cy="155" r="1" fill="white" fill-opacity="0.1"/>
<circle cx="200" cy="155" r="1" fill="white" fill-opacity="0.1"/>
<circle cx="210" cy="155" r="1" fill="white" fill-opacity="0.1"/>
<circle cx="220" cy="155" r="1" fill="white" fill-opacity="0.1"/>
<circle cx="230" cy="155" r="1" fill="white" fill-opacity="0.1"/>
<circle cx="240" cy="155" r="1" fill="white" fill-opacity="0.1"/>
<circle cx="250" cy="155" r="1" fill="white" fill-opacity="0.1"/>
<circle cx="260" cy="155" r="1" fill="white" fill-opacity="0.1"/>
<circle cx="270" cy="155" r="1" fill="white" fill-opacity="0.1"/>
<circle cx="10" cy="165" r="1" fill="white" fill-opacity="0.1"/>
<circle cx="20" cy="165" r="1" fill="white" fill-opacity="0.1"/>
<circle cx="30" cy="165" r="1" fill="white" fill-opacity="0.1"/>
<circle cx="40" cy="165" r="1" fill="white" fill-opacity="0.1"/>
<circle cx="50" cy="165" r="1" fill="white" fill-opacity="0.1"/>
<circle cx="60" cy="165" r="1" fill="white" fill-opacity="0.1"/>
<circle cx="70" cy="165" r="1" fill="white" fill-opacity="0.1"/>
<circle cx="80" cy="165" r="1" fill="white" fill-opacity="0.1"/>
<circle cx="90" cy="165" r="1" fill="white" fill-opacity="0.1"/>
<circle cx="100" cy="165" r="1" fill="white" fill-opacity="0.1"/>
<circle cx="110" cy="165" r="1" fill="white" fill-opacity="0.1"/>
<circle cx="120" cy="165" r="1" fill="white" fill-opacity="0.1"/>
<circle cx="130" cy="165" r="1" fill="white" fill-opacity="0.1"/>
<circle cx="140" cy="165" r="1" fill="white" fill-opacity="0.1"/>
<circle cx="150" cy="165" r="1" fill="white" fill-opacity="0.1"/>
<circle cx="160" cy="165" r="1" fill="white" fill-opacity="0.1"/>
<circle cx="170" cy="165" r="1" fill="white" fill-opacity="0.1"/>
<circle cx="180" cy="165" r="1" fill="white" fill-opacity="0.1"/>
<circle cx="190" cy="165" r="1" fill="white" fill-opacity="0.1"/>
<circle cx="200" cy="165" r="1" fill="white" fill-opacity="0.1"/>
<circle cx="210" cy="165" r="1" fill="white" fill-opacity="0.1"/>
<circle cx="220" cy="165" r="1" fill="white" fill-opacity="0.1"/>
<circle cx="230" cy="165" r="1" fill="white" fill-opacity="0.1"/>
<circle cx="240" cy="165" r="1" fill="white" fill-opacity="0.1"/>
<circle cx="250" cy="165" r="1" fill="white" fill-opacity="0.1"/>
<circle cx="260" cy="165" r="1" fill="white" fill-opacity="0.1"/>
<circle cx="270" cy="165" r="1" fill="white" fill-opacity="0.1"/>
<circle cx="10" cy="175" r="1" fill="white" fill-opacity="0.1"/>
<circle cx="20" cy="175" r="1" fill="white" fill-opacity="0.1"/>
<circle cx="30" cy="175" r="1" fill="white" fill-opacity="0.1"/>
<circle cx="40" cy="175" r="1" fill="white" fill-opacity="0.1"/>
<circle cx="50" cy="175" r="1" fill="white" fill-opacity="0.1"/>
<circle cx="60" cy="175" r="1" fill="white" fill-opacity="0.1"/>
<circle cx="70" cy="175" r="1" fill="white" fill-opacity="0.1"/>
<circle cx="80" cy="175" r="1" fill="white" fill-opacity="0.1"/>
<circle cx="90" cy="175" r="1" fill="white" fill-opacity="0.1"/>
<circle cx="100" cy="175" r="1" fill="white" fill-opacity="0.1"/>
<circle cx="110" cy="175" r="1" fill="white" fill-opacity="0.1"/>
<circle cx="120" cy="175" r="1" fill="white" fill-opacity="0.1"/>
<circle cx="130" cy="175" r="1" fill="white" fill-opacity="0.1"/>
<circle cx="140" cy="175" r="1" fill="white" fill-opacity="0.1"/>
<circle cx="150" cy="175" r="1" fill="white" fill-opacity="0.1"/>
<circle cx="160" cy="175" r="1" fill="white" fill-opacity="0.1"/>
<circle cx="170" cy="175" r="1" fill="white" fill-opacity="0.1"/>
<circle cx="180" cy="175" r="1" fill="white" fill-opacity="0.1"/>
<circle cx="190" cy="175" r="1" fill="white" fill-opacity="0.1"/>
<circle cx="200" cy="175" r="1" fill="white" fill-opacity="0.1"/>
<circle cx="210" cy="175" r="1" fill="white" fill-opacity="0.1"/>
<circle cx="220" cy="175" r="1" fill="white" fill-opacity="0.1"/>
<circle cx="230" cy="175" r="1" fill="white" fill-opacity="0.1"/>
<circle cx="240" cy="175" r="1" fill="white" fill-opacity="0.1"/>
<circle cx="250" cy="175" r="1" fill="white" fill-opacity="0.1"/>
<circle cx="260" cy="175" r="1" fill="white" fill-opacity="0.1"/>
<circle cx="270" cy="175" r="1" fill="white" fill-opacity="0.1"/>
<circle cx="10" cy="185" r="1" fill="white" fill-opacity="0.1"/>
<circle cx="20" cy="185" r="1" fill="white" fill-opacity="0.1"/>
<circle cx="30" cy="185" r="1" fill="white" fill-opacity="0.1"/>
<circle cx="40" cy="185" r="1" fill="white" fill-opacity="0.1"/>
<circle cx="50" cy="185" r="1" fill="white" fill-opacity="0.1"/>
<circle cx="60" cy="185" r="1" fill="white" fill-opacity="0.1"/>
<circle cx="70" cy="185" r="1" fill="white" fill-opacity="0.1"/>
<circle cx="80" cy="185" r="1" fill="white" fill-opacity="0.1"/>
<circle cx="90" cy="185" r="1" fill="white" fill-opacity="0.1"/>
<circle cx="100" cy="185" r="1" fill="white" fill-opacity="0.1"/>
<circle cx="110" cy="185" r="1" fill="white" fill-opacity="0.1"/>
<circle cx="120" cy="185" r="1" fill="white" fill-opacity="0.1"/>
<circle cx="130" cy="185" r="1" fill="white" fill-opacity="0.1"/>
<circle cx="140" cy="185" r="1" fill="white" fill-opacity="0.1"/>
<circle cx="150" cy="185" r="1" fill="white" fill-opacity="0.1"/>
<circle cx="160" cy="185" r="1" fill="white" fill-opacity="0.1"/>
<circle cx="170" cy="185" r="1" fill="white" fill-opacity="0.1"/>
<circle cx="180" cy="185" r="1" fill="white" fill-opacity="0.1"/>
<circle cx="190" cy="185" r="1" fill="white" fill-opacity="0.1"/>
<circle cx="200" cy="185" r="1" fill="white" fill-opacity="0.1"/>
<circle cx="210" cy="185" r="1" fill="white" fill-opacity="0.1"/>
<circle cx="220" cy="185" r="1" fill="white" fill-opacity="0.1"/>
<circle cx="230" cy="185" r="1" fill="white" fill-opacity="0.1"/>
<circle cx="240" cy="185" r="1" fill="white" fill-opacity="0.1"/>
<circle cx="250" cy="185" r="1" fill="white" fill-opacity="0.1"/>
<circle cx="260" cy="185" r="1" fill="white" fill-opacity="0.1"/>
<circle cx="270" cy="185" r="1" fill="white" fill-opacity="0.1"/>
<circle cx="10" cy="195" r="1" fill="white" fill-opacity="0.1"/>
<circle cx="20" cy="195" r="1" fill="white" fill-opacity="0.1"/>
<circle cx="30" cy="195" r="1" fill="white" fill-opacity="0.1"/>
<circle cx="40" cy="195" r="1" fill="white" fill-opacity="0.1"/>
<circle cx="50" cy="195" r="1" fill="white" fill-opacity="0.1"/>
<circle cx="60" cy="195" r="1" fill="white" fill-opacity="0.1"/>
<circle cx="70" cy="195" r="1" fill="white" fill-opacity="0.1"/>
<circle cx="80" cy="195" r="1" fill="white" fill-opacity="0.1"/>
<circle cx="90" cy="195" r="1" fill="white" fill-opacity="0.1"/>
<circle cx="100" cy="195" r="1" fill="white" fill-opacity="0.1"/>
<circle cx="110" cy="195" r="1" fill="white" fill-opacity="0.1"/>
<circle cx="120" cy="195" r="1" fill="white" fill-opacity="0.1"/>
<circle cx="130" cy="195" r="1" fill="white" fill-opacity="0.1"/>
<circle cx="140" cy="195" r="1" fill="white" fill-opacity="0.1"/>
<circle cx="150" cy="195" r="1" fill="white" fill-opacity="0.1"/>
<circle cx="160" cy="195" r="1" fill="white" fill-opacity="0.1"/>
<circle cx="170" cy="195" r="1" fill="white" fill-opacity="0.1"/>
<circle cx="180" cy="195" r="1" fill="white" fill-opacity="0.1"/>
<circle cx="190" cy="195" r="1" fill="white" fill-opacity="0.1"/>
<circle cx="200" cy="195" r="1" fill="white" fill-opacity="0.1"/>
<circle cx="210" cy="195" r="1" fill="white" fill-opacity="0.1"/>
<circle cx="220" cy="195" r="1" fill="white" fill-opacity="0.1"/>
<circle cx="230" cy="195" r="1" fill="white" fill-opacity="0.1"/>
<circle cx="240" cy="195" r="1" fill="white" fill-opacity="0.1"/>
<circle cx="250" cy="195" r="1" fill="white" fill-opacity="0.1"/>
<circle cx="260" cy="195" r="1" fill="white" fill-opacity="0.1"/>
<circle cx="270" cy="195" r="1" fill="white" fill-opacity="0.1"/>
<circle cx="10" cy="205" r="1" fill="white" fill-opacity="0.1"/>
<circle cx="20" cy="205" r="1" fill="white" fill-opacity="0.1"/>
<circle cx="30" cy="205" r="1" fill="white" fill-opacity="0.1"/>
<circle cx="40" cy="205" r="1" fill="white" fill-opacity="0.1"/>
<circle cx="50" cy="205" r="1" fill="white" fill-opacity="0.1"/>
<circle cx="60" cy="205" r="1" fill="white" fill-opacity="0.1"/>
<circle cx="70" cy="205" r="1" fill="white" fill-opacity="0.1"/>
<circle cx="80" cy="205" r="1" fill="white" fill-opacity="0.1"/>
<circle cx="90" cy="205" r="1" fill="white" fill-opacity="0.1"/>
<circle cx="100" cy="205" r="1" fill="white" fill-opacity="0.1"/>
<circle cx="110" cy="205" r="1" fill="white" fill-opacity="0.1"/>
<circle cx="120" cy="205" r="1" fill="white" fill-opacity="0.1"/>
<circle cx="130" cy="205" r="1" fill="white" fill-opacity="0.1"/>
<circle cx="140" cy="205" r="1" fill="white" fill-opacity="0.1"/>
<circle cx="150" cy="205" r="1" fill="white" fill-opacity="0.1"/>
<circle cx="160" cy="205" r="1" fill="white" fill-opacity="0.1"/>
<circle cx="170" cy="205" r="1" fill="white" fill-opacity="0.1"/>
<circle cx="180" cy="205" r="1" fill="white" fill-opacity="0.1"/>
<circle cx="190" cy="205" r="1" fill="white" fill-opacity="0.1"/>
<circle cx="200" cy="205" r="1" fill="white" fill-opacity="0.1"/>
<circle cx="210" cy="205" r="1" fill="white" fill-opacity="0.1"/>
<circle cx="220" cy="205" r="1" fill="white" fill-opacity="0.1"/>
<circle cx="230" cy="205" r="1" fill="white" fill-opacity="0.1"/>
<circle cx="240" cy="205" r="1" fill="white" fill-opacity="0.1"/>
<circle cx="250" cy="205" r="1" fill="white" fill-opacity="0.1"/>
<circle cx="260" cy="205" r="1" fill="white" fill-opacity="0.1"/>
<circle cx="270" cy="205" r="1" fill="white" fill-opacity="0.1"/>
<circle cx="10" cy="215" r="1" fill="white" fill-opacity="0.1"/>
<circle cx="20" cy="215" r="1" fill="white" fill-opacity="0.1"/>
<circle cx="30" cy="215" r="1" fill="white" fill-opacity="0.1"/>
<circle cx="40" cy="215" r="1" fill="white" fill-opacity="0.1"/>
<circle cx="50" cy="215" r="1" fill="white" fill-opacity="0.1"/>
<circle cx="60" cy="215" r="1" fill="white" fill-opacity="0.1"/>
<circle cx="70" cy="215" r="1" fill="white" fill-opacity="0.1"/>
<circle cx="80" cy="215" r="1" fill="white" fill-opacity="0.1"/>
<circle cx="90" cy="215" r="1" fill="white" fill-opacity="0.1"/>
<circle cx="100" cy="215" r="1" fill="white" fill-opacity="0.1"/>
<circle cx="110" cy="215" r="1" fill="white" fill-opacity="0.1"/>
<circle cx="120" cy="215" r="1" fill="white" fill-opacity="0.1"/>
<circle cx="130" cy="215" r="1" fill="white" fill-opacity="0.1"/>
<circle cx="140" cy="215" r="1" fill="white" fill-opacity="0.1"/>
<circle cx="150" cy="215" r="1" fill="white" fill-opacity="0.1"/>
<circle cx="160" cy="215" r="1" fill="white" fill-opacity="0.1"/>
<circle cx="170" cy="215" r="1" fill="white" fill-opacity="0.1"/>
<circle cx="180" cy="215" r="1" fill="white" fill-opacity="0.1"/>
<circle cx="190" cy="215" r="1" fill="white" fill-opacity="0.1"/>
<circle cx="200" cy="215" r="1" fill="white" fill-opacity="0.1"/>
<circle cx="210" cy="215" r="1" fill="white" fill-opacity="0.1"/>
<circle cx="220" cy="215" r="1" fill="white" fill-opacity="0.1"/>
<circle cx="230" cy="215" r="1" fill="white" fill-opacity="0.1"/>
<circle cx="240" cy="215" r="1" fill="white" fill-opacity="0.1"/>
<circle cx="250" cy="215" r="1" fill="white" fill-opacity="0.1"/>
<circle cx="260" cy="215" r="1" fill="white" fill-opacity="0.1"/>
<circle cx="270" cy="215" r="1" fill="white" fill-opacity="0.1"/>
<circle cx="10" cy="225" r="1" fill="white" fill-opacity="0.1"/>
<circle cx="20" cy="225" r="1" fill="white" fill-opacity="0.1"/>
<circle cx="30" cy="225" r="1" fill="white" fill-opacity="0.1"/>
<circle cx="40" cy="225" r="1" fill="white" fill-opacity="0.1"/>
<circle cx="50" cy="225" r="1" fill="white" fill-opacity="0.1"/>
<circle cx="60" cy="225" r="1" fill="white" fill-opacity="0.1"/>
<circle cx="70" cy="225" r="1" fill="white" fill-opacity="0.1"/>
<circle cx="80" cy="225" r="1" fill="white" fill-opacity="0.1"/>
<circle cx="90" cy="225" r="1" fill="white" fill-opacity="0.1"/>
<circle cx="100" cy="225" r="1" fill="white" fill-opacity="0.1"/>
<circle cx="110" cy="225" r="1" fill="white" fill-opacity="0.1"/>
<circle cx="120" cy="225" r="1" fill="white" fill-opacity="0.1"/>
<circle cx="130" cy="225" r="1" fill="white" fill-opacity="0.1"/>
<circle cx="140" cy="225" r="1" fill="white" fill-opacity="0.1"/>
<circle cx="150" cy="225" r="1" fill="white" fill-opacity="0.1"/>
<circle cx="160" cy="225" r="1" fill="white" fill-opacity="0.1"/>
<circle cx="170" cy="225" r="1" fill="white" fill-opacity="0.1"/>
<circle cx="180" cy="225" r="1" fill="white" fill-opacity="0.1"/>
<circle cx="190" cy="225" r="1" fill="white" fill-opacity="0.1"/>
<circle cx="200" cy="225" r="1" fill="white" fill-opacity="0.1"/>
<circle cx="210" cy="225" r="1" fill="white" fill-opacity="0.1"/>
<circle cx="220" cy="225" r="1" fill="white" fill-opacity="0.1"/>
<circle cx="230" cy="225" r="1" fill="white" fill-opacity="0.1"/>
<circle cx="240" cy="225" r="1" fill="white" fill-opacity="0.1"/>
<circle cx="250" cy="225" r="1" fill="white" fill-opacity="0.1"/>
<circle cx="260" cy="225" r="1" fill="white" fill-opacity="0.1"/>
<circle cx="270" cy="225" r="1" fill="white" fill-opacity="0.1"/>
<circle cx="10" cy="235" r="1" fill="white" fill-opacity="0.1"/>
<circle cx="20" cy="235" r="1" fill="white" fill-opacity="0.1"/>
<circle cx="30" cy="235" r="1" fill="white" fill-opacity="0.1"/>
<circle cx="40" cy="235" r="1" fill="white" fill-opacity="0.1"/>
<circle cx="50" cy="235" r="1" fill="white" fill-opacity="0.1"/>
<circle cx="60" cy="235" r="1" fill="white" fill-opacity="0.1"/>
<circle cx="70" cy="235" r="1" fill="white" fill-opacity="0.1"/>
<circle cx="80" cy="235" r="1" fill="white" fill-opacity="0.1"/>
<circle cx="90" cy="235" r="1" fill="white" fill-opacity="0.1"/>
<circle cx="100" cy="235" r="1" fill="white" fill-opacity="0.1"/>
<circle cx="110" cy="235" r="1" fill="white" fill-opacity="0.1"/>
<circle cx="120" cy="235" r="1" fill="white" fill-opacity="0.1"/>
<circle cx="130" cy="235" r="1" fill="white" fill-opacity="0.1"/>
<circle cx="140" cy="235" r="1" fill="white" fill-opacity="0.1"/>
<circle cx="150" cy="235" r="1" fill="white" fill-opacity="0.1"/>
<circle cx="160" cy="235" r="1" fill="white" fill-opacity="0.1"/>
<circle cx="170" cy="235" r="1" fill="white" fill-opacity="0.1"/>
<circle cx="180" cy="235" r="1" fill="white" fill-opacity="0.1"/>
<circle cx="190" cy="235" r="1" fill="white" fill-opacity="0.1"/>
<circle cx="200" cy="235" r="1" fill="white" fill-opacity="0.1"/>
<circle cx="210" cy="235" r="1" fill="white" fill-opacity="0.1"/>
<circle cx="220" cy="235" r="1" fill="white" fill-opacity="0.1"/>
<circle cx="230" cy="235" r="1" fill="white" fill-opacity="0.1"/>
<circle cx="240" cy="235" r="1" fill="white" fill-opacity="0.1"/>
<circle cx="250" cy="235" r="1" fill="white" fill-opacity="0.1"/>
<circle cx="260" cy="235" r="1" fill="white" fill-opacity="0.1"/>
<circle cx="270" cy="235" r="1" fill="white" fill-opacity="0.1"/>
<path d="M89.7412 14C89.7412 12.8954 90.6366 12 91.7412 12H107.283C108.388 12 109.283 12.8954 109.283 14V14.8855C109.283 15.9901 108.388 16.8855 107.283 16.8855H91.7412C90.6366 16.8855 89.7412 15.9901 89.7412 14.8855V14Z" fill="white" fill-opacity="0.2"/>
<path d="M62.8701 14C62.8701 12.8954 63.7655 12 64.8701 12H80.4121C81.5167 12 82.4121 12.8954 82.4121 14V14.8855C82.4121 15.9901 81.5167 16.8855 80.4121 16.8855H64.8701C63.7655 16.8855 62.8701 15.9901 62.8701 14.8855V14Z" fill="white" fill-opacity="0.2"/>
<path d="M36 14C36 12.8954 36.8954 12 38 12H53.542C54.6466 12 55.542 12.8954 55.542 14V14.8855C55.542 15.9901 54.6466 16.8855 53.542 16.8855H38C36.8954 16.8855 36 15.9901 36 14.8855V14Z" fill="white" fill-opacity="0.2"/>
<rect x="368" y="12" width="20" height="5" rx="2" fill="#99FF00"/>
<rect x="368.5" y="12.5" width="19" height="4" rx="1.5" stroke="black" stroke-opacity="0.2"/>
<rect x="364" y="223" width="24" height="8" rx="2" fill="#99FF00"/>
<rect x="364.5" y="223.5" width="23" height="7" rx="1.5" stroke="black" stroke-opacity="0.2"/>
<rect x="332.5" y="223.5" width="23" height="7" rx="1.5" stroke="white" stroke-opacity="0.2"/>
<path d="M18.2126 8.54215L18.0906 8.23092C18.0599 8.15267 17.9481 8.15557 17.9216 8.23531C17.0267 10.92 14.92 13.0267 12.2353 13.9216C12.1556 13.9481 12.1527 14.0599 12.2309 14.0906L12.5422 14.2126C15.0559 15.1984 17.0179 17.2269 17.9193 19.7721C17.9477 19.8524 18.0608 19.854 18.0936 19.7753C19.157 17.2233 21.2233 15.157 23.7753 14.0936C23.854 14.0608 23.8524 13.9477 23.7721 13.9193C21.2269 13.0179 19.1984 11.0559 18.2126 8.54215Z" fill="#99FF00"/>
<path d="M18.0321 18.7295C17.0684 16.6653 15.4135 14.9973 13.3507 14.0181C15.4142 13.0713 17.0713 11.4142 18.0181 9.35072C18.9973 11.4135 20.6653 13.0684 22.7295 14.0321C20.7291 15.0774 19.0774 16.7291 18.0321 18.7295Z" stroke="black" stroke-opacity="0.2"/>
<path d="M292 42C292 40.8954 292.895 40 294 40H345C346.105 40 347 40.8954 347 42V46C347 47.1046 346.105 48 345 48H294C292.895 48 292 47.1046 292 46V42Z" fill="white" fill-opacity="0.2"/>
<path d="M292 56C292 55.4477 292.448 55 293 55H367C367.552 55 368 55.4477 368 56V58C368 58.5523 367.552 59 367 59H293C292.448 59 292 58.5523 292 58V56Z" fill="white" fill-opacity="0.1"/>
<path d="M292 80C292 79.4477 292.448 79 293 79H324C324.552 79 325 79.4477 325 80V82C325 82.5523 324.552 83 324 83H293C292.448 83 292 82.5523 292 82V80Z" fill="white" fill-opacity="0.2"/>
<path d="M292 136C292 135.448 292.448 135 293 135H324C324.552 135 325 135.448 325 136V138C325 138.552 324.552 139 324 139H293C292.448 139 292 138.552 292 138V136Z" fill="white" fill-opacity="0.2"/>
<path d="M292 144C292 143.448 292.448 143 293 143H387C387.552 143 388 143.448 388 144V146C388 146.552 387.552 147 387 147H293C292.448 147 292 146.552 292 146V144Z" fill="white" fill-opacity="0.1"/>
<path d="M292 152C292 151.448 292.448 151 293 151H387C387.552 151 388 151.448 388 152V154C388 154.552 387.552 155 387 155H293C292.448 155 292 154.552 292 154V152Z" fill="white" fill-opacity="0.1"/>
<path d="M292 160C292 159.448 292.448 159 293 159H387C387.552 159 388 159.448 388 160V162C388 162.552 387.552 163 387 163H293C292.448 163 292 162.552 292 162V160Z" fill="white" fill-opacity="0.1"/>
<path d="M292 168C292 167.448 292.448 167 293 167H350C350.552 167 351 167.448 351 168V170C351 170.552 350.552 171 350 171H293C292.448 171 292 170.552 292 170V168Z" fill="white" fill-opacity="0.1"/>
<rect x="91" y="75" width="100" height="20" rx="4" fill="#171717"/>
<rect x="91.5" y="75.5" width="99" height="19" rx="3.5" stroke="white" stroke-opacity="0.1"/>
<rect x="292" y="87" width="96" height="12" rx="2" fill="#171717"/>
<rect x="292.5" y="87.5" width="95" height="11" rx="1.5" stroke="white" stroke-opacity="0.1"/>
<rect x="91" y="107" width="100" height="20" rx="4" fill="#171717"/>
<rect x="91.5" y="107.5" width="99" height="19" rx="3.5" stroke="white" stroke-opacity="0.1"/>
<rect x="91" y="139" width="100" height="20" rx="4" fill="#171717"/>
<rect x="91.5" y="139.5" width="99" height="19" rx="3.5" stroke="white" stroke-opacity="0.1"/>
<rect x="91" y="171" width="100" height="20" rx="4" fill="#171717"/>
<rect x="91.5" y="171.5" width="99" height="19" rx="3.5" stroke="white" stroke-opacity="0.1"/>
<circle cx="141" cy="94" r="1.5" fill="#99FF00" stroke="#2E2E2E"/>
<circle cx="141" cy="108" r="1.5" fill="#99FF00" stroke="#2E2E2E"/>
<circle cx="141" cy="126" r="1.5" fill="#99FF00" stroke="#2E2E2E"/>
<circle cx="141" cy="140" r="1.5" fill="#99FF00" stroke="#2E2E2E"/>
<path d="M141 94V108" stroke="#99FF00" stroke-opacity="0.2" stroke-linecap="square"/>
<circle cx="141" cy="158" r="1.5" fill="#99FF00" stroke="#2E2E2E"/>
<circle cx="141" cy="172" r="1.5" fill="#99FF00" stroke="#2E2E2E"/>
<path d="M141 158V172" stroke="#99FF00" stroke-opacity="0.2" stroke-linecap="square"/>
<path d="M141 126V140" stroke="#99FF00" stroke-opacity="0.2" stroke-linecap="square"/>
<rect x="278" y="28" width="2" height="213" fill="#292929"/>
<circle cx="382" cy="93" r="2" fill="#99FF00"/>
<circle cx="382" cy="93" r="1.5" stroke="black" stroke-opacity="0.2"/>
<rect x="292" y="103" width="96" height="12" rx="2" fill="#171717"/>
<rect x="292.5" y="103.5" width="95" height="11" rx="1.5" stroke="white" stroke-opacity="0.1"/>
<circle cx="382" cy="109" r="2" fill="#99FF00"/>
<circle cx="382" cy="109" r="1.5" stroke="black" stroke-opacity="0.2"/>
</svg>
