<svg width="28" height="28" viewBox="0 0 28 28" fill="none" xmlns="http://www.w3.org/2000/svg">
<path d="M12.6884 0.0612353C10.4916 0.272231 8.44767 0.985254 6.45461 2.22213C5.48718 2.82601 4.90526 3.29166 4.1124 4.09926C1.52288 6.7549 0.249945 9.63608 0.017179 13.3685C-0.09193 15.0492 0.329958 17.6321 0.96279 19.1818C1.64654 20.8552 2.53396 22.2304 3.88691 23.6855C5.70539 25.6645 8.33856 27.1124 11.2554 27.7453L12.1646 27.9418L16.2599 27.9709L20.3478 28V24.3258V20.6442H16.8636C14.0486 20.6442 13.263 20.6224 12.7393 20.5351C11.4082 20.3023 10.0988 19.5747 9.10959 18.5197C8.46949 17.8431 8.33856 17.6394 7.96759 16.8245C6.65101 13.8997 7.60389 10.4801 10.2298 8.72662C11.4445 7.91174 12.4774 7.59888 13.9468 7.60616C15.016 7.60616 15.6561 7.75167 16.609 8.19549C17.4164 8.57383 18.0129 9.01037 18.6093 9.64336C19.2349 10.2982 19.5113 10.7056 19.8168 11.4114C20.3769 12.7064 20.3696 12.6846 20.406 16.839L20.4278 20.5715H24.2176H28L27.9636 16.548C27.9345 12.8229 27.92 12.4736 27.7745 11.6951C27.1999 8.62476 26.087 6.43477 23.9921 4.25933C23.0464 3.26983 22.5736 2.88422 21.548 2.24395C18.7912 0.519609 15.7434 -0.229793 12.6884 0.0612353Z" fill="#99FF00"/>
</svg>
