<svg width="27" height="40" viewBox="0 0 27 40" fill="none" xmlns="http://www.w3.org/2000/svg">
<g clip-path="url(#clip0_805_3700)">
<path d="M6.69873 40.0013C10.3943 40.0013 13.3936 37.0146 13.3936 33.3346V26.668H6.69873C3.00319 26.668 0.00390625 29.6546 0.00390625 33.3346C0.00390625 37.0146 3.00319 40.0013 6.69873 40.0013Z" fill="#0ACF83"/>
<path d="M0.00390625 19.9987C0.00390625 16.3187 3.00319 13.332 6.69873 13.332H13.3936V26.6654H6.69873C3.00319 26.6654 0.00390625 23.6787 0.00390625 19.9987Z" fill="#A259FF"/>
<path d="M0.00390625 6.66667C0.00390625 2.98667 3.00319 0 6.69873 0H13.3936V13.3333H6.69873C3.00319 13.3333 0.00390625 10.3467 0.00390625 6.66667Z" fill="#F24E1E"/>
<path d="M13.3945 0H20.0894C23.7849 0 26.7842 2.98667 26.7842 6.66667C26.7842 10.3467 23.7849 13.3333 20.0894 13.3333H13.3945V0Z" fill="#FF7262"/>
<path d="M26.7842 19.9987C26.7842 23.6787 23.7849 26.6654 20.0894 26.6654C16.3938 26.6654 13.3945 23.6787 13.3945 19.9987C13.3945 16.3187 16.3938 13.332 20.0894 13.332C23.7849 13.332 26.7842 16.3187 26.7842 19.9987Z" fill="#1ABCFE"/>
</g>
<defs>
<clipPath id="clip0_805_3700">
<rect width="26.7847" height="40" fill="white"/>
</clipPath>
</defs>
</svg>
