<svg width="18" height="40" viewBox="0 0 18 40" fill="none" xmlns="http://www.w3.org/2000/svg">
<path d="M17.634 15.9177C15.5268 6.62173 11.1348 4.14701 10.0144 2.39764C9.55242 1.627 9.14316 0.825954 8.78943 0C8.73025 0.825823 8.62152 1.34609 7.91957 1.97234C6.51016 3.22897 0.524319 8.10683 0.0205668 18.6691C-0.448776 28.5171 7.26029 34.5896 8.2788 35.2172C9.06196 35.6026 10.0158 35.2255 10.481 34.8718C14.1972 32.3213 19.2746 25.5221 17.6381 15.9177" fill="#10AA50"/>
<path d="M9.11098 29.9727C8.91691 32.4102 8.7779 33.8265 8.28516 35.2194C8.28516 35.2194 8.6086 37.5399 8.83571 39.9982H9.63951C9.83124 38.2671 10.124 36.5488 10.5163 34.8519C9.47572 34.3399 9.15089 32.1115 9.11098 29.9727Z" fill="#B8C4C2"/>
<path d="M10.5111 34.8517C9.45951 34.3658 9.15533 32.0907 9.10854 29.9711C9.36859 26.4746 9.44439 22.9669 9.33564 19.4625C9.28058 17.6236 9.36179 2.43125 8.88281 0.207031C9.21046 0.960351 9.58796 1.69099 10.0128 2.39409C11.1332 4.14483 15.5266 6.61955 17.6324 15.9156C19.273 25.5034 14.2231 32.2848 10.5111 34.8517Z" fill="#12924F"/>
</svg>
