<svg width="40" height="25" viewBox="0 0 40 25" fill="none" xmlns="http://www.w3.org/2000/svg">
<path d="M19.5651 0.00788108C12.5279 0.231546 10.4363 5.25855 9.95703 7.98193C10.5816 6.97245 12.5497 4.75749 15.4474 4.75749C18.8243 4.75749 21.3952 8.52664 22.9639 9.70314C24.8697 11.1325 28.6992 13.0198 33.7267 11.4897C37.7355 10.2696 39.5946 6.01382 40.0013 3.9949C38.0623 6.63113 35.121 8.21457 31.4826 6.3479C28.9771 5.06247 27.1034 -0.231732 19.5651 0.00788108Z" fill="#07B6D5"/>
<path d="M9.60807 11.9688C2.57087 12.1925 0.479314 17.2195 0 19.9429C0.624559 18.9334 2.59265 16.7184 5.49033 16.7184C8.86731 16.7184 11.4382 20.4876 13.0068 21.6641C14.9126 23.0934 18.7422 24.9807 23.7696 23.4506C27.7784 22.2305 29.6376 17.9748 30.0443 15.9558C28.1052 18.5921 25.164 20.1755 21.5256 18.3088C19.0201 17.0234 17.1464 11.7292 9.60807 11.9688Z" fill="#07B6D5"/>
</svg>
