<svg width="1344.000000pt" height="1341.000000pt" viewBox="0 0 1344.000000 1341.000000" xmlns="http://www.w3.org/2000/svg">
  <g transform="translate(0.000000,1341.000000) scale(0.100000,-0.100000)" fill="#fefefe" stroke="none">
    <path d="M0 6705 l0 -6705 6720 0 6720 0 0 6705 0 6705 -6720 0 -6720 0 0
-6705z m7202 1332 c62 -30 106 -75 140 -140 l21 -42 0 -70 1 -70 -24 -45 -23
-45 -143 -146 c-79 -80 -144 -149 -144 -154 0 -5 67 -76 150 -158 l150 -149
25 -55 26 -54 1 -49 c0 -27 -8 -71 -17 -99 l-16 -49 -41 -47 c-22 -25 -64 -58
-92 -73 l-51 -27 -540 0 -540 0 -50 23 -50 23 -46 49 -46 49 -17 59 -16 58 0
445 0 445 15 59 16 60 41 61 41 61 61 41 61 42 60 14 60 15 465 -2 465 -2 57
-28z m-412 -2277 l0 -260 -40 0 -40 0 0 260 0 260 40 0 40 0 0 -260z m1620
165 c0 -47 4 -85 9 -85 5 0 28 7 52 15 l44 16 37 -6 c21 -4 56 -20 78 -36 l42
-30 19 -42 c10 -23 19 -60 19 -82 0 -74 -57 -159 -123 -184 -40 -15 -97 -13
-131 4 -36 19 -56 19 -56 0 l0 -15 -55 0 -55 0 0 265 0 265 60 0 60 0 0 -85z
m-3425 35 l50 -26 23 -44 23 -45 -4 -42 c-2 -23 -14 -57 -26 -76 l-22 -36 -47
-22 -47 -23 -92 -4 -93 -4 0 -69 0 -69 -40 0 -40 0 0 246 0 246 133 -4 133 -3
49 -25z m2525 -180 l0 -200 125 0 125 0 0 -50 0 -50 -190 0 -190 0 0 250 0
250 65 0 65 0 0 -200z m-1480 125 l0 -45 55 0 55 0 0 -25 0 -25 -55 0 -55 0 0
-108 0 -108 16 -22 15 -22 45 0 44 0 0 -15 c0 -8 0 -18 0 -22 -1 -14 -54 -23
-92 -17 -43 7 -73 30 -88 68 -5 15 -10 77 -10 137 l0 109 -35 0 -35 0 0 25 0
25 35 0 35 0 0 45 0 45 35 0 35 0 0 -45z m-780 -60 c0 -14 5 -25 10 -25 6 0
23 9 38 20 15 11 42 23 60 26 l32 7 0 -37 0 -36 -35 0 -35 0 -32 -29 -32 -28
-4 -122 -4 -121 -34 0 -34 0 0 185 0 185 35 0 35 0 0 -25z m461 14 c43 -15 97
-65 115 -106 8 -18 14 -52 14 -75 l0 -43 -23 -40 c-12 -21 -41 -53 -64 -69
l-43 -30 -62 0 -63 -1 -34 20 c-19 11 -47 37 -64 57 l-30 38 -5 54 -4 55 22
45 c12 25 34 54 48 65 57 39 130 51 193 30z m777 -5 c54 -22 89 -60 108 -116
l16 -49 -12 -48 -11 -48 -28 -30 c-15 -17 -43 -39 -62 -49 l-34 -18 -63 0 -62
0 -43 30 -42 29 -22 45 c-27 52 -29 96 -8 148 21 49 52 81 100 103 49 23 113
24 163 3z m457 -6 c4 -13 22 -57 39 -98 18 -41 41 -94 51 -118 l18 -43 15 3
14 3 57 135 58 135 32 3 32 3 -14 -33 c-8 -18 -51 -120 -97 -225 l-82 -193
-30 -29 -30 -29 -34 -6 c-36 -7 -114 9 -114 24 0 4 3 15 6 24 l6 16 39 -6 c21
-4 50 -3 64 0 l26 7 15 32 16 33 -81 185 c-45 102 -81 188 -81 192 0 4 15 7
34 7 l35 0 6 -22z m1152 -5 c18 -8 43 -30 56 -47 l22 -31 3 -142 4 -143 -56 0
-56 0 0 20 c0 11 -4 20 -10 20 -5 0 -24 -9 -42 -20 l-33 -20 -38 0 c-49 0
-100 22 -121 51 l-16 23 0 39 0 38 24 24 c30 30 84 45 164 45 l62 0 0 19 c0
11 -12 29 -26 40 l-27 21 -39 0 c-21 0 -54 -6 -72 -14 l-33 -14 -17 34 c-9 19
-16 36 -16 39 0 4 73 31 105 39 34 8 126 -4 162 -21z" />
    <path d="M8454 5766 l-32 -14 -12 -37 -12 -38 11 -38 c6 -21 21 -45 34 -54 12
-8 37 -15 55 -15 l34 0 29 29 29 29 0 37 c0 20 -7 49 -15 64 l-14 29 -32 11
c-18 6 -35 11 -38 11 -3 -1 -20 -7 -37 -14z" />
    <path d="M4750 5815 l0 -105 94 0 94 0 31 26 31 26 0 53 0 53 -31 26 -31 26
-94 0 -94 0 0 -105z" />
    <path d="M5568 5788 c-36 -31 -48 -59 -48 -110 l0 -43 20 -32 19 -32 40 -12
39 -12 35 7 c92 17 128 140 64 220 l-24 30 -59 3 -59 4 -27 -23z" />
    <path d="M6340 5793 c-32 -22 -38 -30 -51 -76 l-10 -39 13 -41 13 -41 34 -23
34 -23 31 0 c42 0 98 29 114 60 l13 25 -4 59 -3 59 -32 28 -32 29 -48 0 -48 0
-24 -17z" />
    <path d="M7930 5624 l-13 -15 9 -27 9 -27 38 -3 39 -3 24 16 24 15 0 30 0 30
-59 0 -59 0 -12 -16z" />
  </g>
  <g transform="translate(0.000000,1341.000000) scale(0.100000,-0.100000)" fill="#222222" stroke="none">
    <path d="M6700 5760 l0 -270 50 0 50 0 0 270 0 270 -50 0 -50 0 0 -270z" />
    <path d="M4660 5746 l0 -256 50 0 50 0 0 69 0 69 94 4 93 4 48 25 49 24 23 44
23 44 0 41 0 42 -22 44 -23 44 -50 26 -49 25 -143 3 -143 4 0 -256z m299 138
l31 -26 0 -43 0 -43 -31 -26 -31 -26 -84 0 -84 0 0 95 0 95 84 0 84 0 31 -26z" />
    <path d="M5950 5915 l0 -45 -35 0 -35 0 0 -35 0 -35 35 0 35 0 0 -109 c0 -60
5 -122 10 -137 15 -37 44 -61 87 -69 40 -7 110 2 119 16 3 5 0 25 -6 45 l-12
36 -11 -11 c-6 -6 -23 -11 -38 -11 l-28 0 -15 22 -16 22 0 98 0 98 55 0 55 0
0 35 0 35 -55 0 -55 0 0 45 0 45 -45 0 -45 0 0 -45z" />
    <path d="M5170 5685 l0 -195 44 0 44 0 4 121 4 122 32 28 32 29 35 0 35 0 0
46 0 47 -42 -6 c-22 -3 -54 -15 -70 -27 l-28 -21 0 26 0 25 -45 0 -45 0 0
-195z" />
    <path d="M5565 5868 c-51 -18 -82 -46 -105 -94 l-22 -45 4 -64 4 -64 31 -38
c16 -21 45 -47 64 -58 l34 -20 72 0 72 1 43 30 c24 16 53 48 65 69 l23 40 0
53 c0 29 -6 67 -14 85 -18 41 -72 91 -115 106 -42 14 -116 13 -156 -1z m162
-104 c43 -54 42 -123 -4 -168 -14 -14 -40 -28 -58 -32 l-32 -6 -36 15 -36 15
-15 31 c-19 35 -21 83 -5 114 6 12 23 32 37 45 l27 23 49 -4 50 -4 23 -29z" />
    <path d="M6315 5861 c-22 -10 -50 -29 -62 -42 -32 -35 -53 -92 -53 -142 l0
-43 23 -44 22 -45 43 -29 43 -30 72 0 72 -1 34 19 c19 10 47 32 62 49 l28 31
12 52 12 53 -13 47 c-17 58 -53 102 -105 125 l-40 19 -55 0 -55 0 -40 -19z
m167 -90 l33 -29 0 -62 0 -62 -28 -23 c-15 -13 -42 -27 -61 -30 l-34 -7 -31
16 c-40 21 -63 57 -64 99 -2 75 44 126 115 127 l38 0 32 -29z" />
    <path d="M6854 5863 c3 -10 42 -99 85 -198 l79 -180 -14 -27 -14 -28 -25 -6
c-25 -6 -42 -4 -77 11 l-17 7 -16 -31 c-9 -18 -13 -36 -10 -41 3 -5 24 -14 47
-21 l42 -11 41 7 42 6 30 30 31 29 67 158 c37 86 83 192 101 235 l34 78 -47
-3 -46 -3 -57 -132 c-31 -73 -58 -135 -61 -138 -3 -3 -14 14 -24 37 -10 24
-33 77 -51 118 -17 41 -35 85 -39 98 l-6 22 -50 0 -50 0 5 -17z" />
    <path d="M7950 5870 c0 -5 7 -10 15 -10 8 0 15 5 15 10 0 6 -7 10 -15 10 -8 0
-15 -4 -15 -10z" />
    <path d="M7990 5870 c0 -5 9 -10 20 -10 11 0 20 5 20 10 0 6 -9 10 -20 10 -11
0 -20 -4 -20 -10z" />
    <path d="M8490 5870 c0 -5 7 -10 15 -10 8 0 15 5 15 10 0 6 -7 10 -15 10 -8 0
-15 -4 -15 -10z" />
    <path d="M8530 5870 c0 -5 7 -10 15 -10 8 0 15 5 15 10 0 6 -7 10 -15 10 -8 0
-15 -4 -15 -10z" />
    <path d="M7890 5860 c0 -5 7 -10 15 -10 8 0 15 5 15 10 0 6 -7 10 -15 10 -8 0
-15 -4 -15 -10z" />
    <path d="M8600 5850 c0 -5 6 -10 13 -10 7 0 21 -11 31 -25 10 -14 26 -25 35
-25 l16 1 -39 34 c-40 36 -56 43 -56 25z" />
    <path d="M8400 5835 c0 -8 7 -15 15 -15 8 0 15 7 15 15 0 8 -7 15 -15 15 -8 0
-15 -7 -15 -15z" />
    <path d="M7820 5830 c0 -5 5 -10 10 -10 6 0 10 5 10 10 0 6 -4 10 -10 10 -5 0
-10 -4 -10 -10z" />
    <path d="M8450 5770 c-8 -5 -12 -11 -9 -14 7 -8 49 5 49 15 0 12 -21 11 -40
-1z" />
    <path d="M8500 5770 c0 -5 7 -10 15 -10 8 0 15 5 15 10 0 6 -7 10 -15 10 -8 0
-15 -4 -15 -10z" />
    <path d="M7860 5750 c0 -5 4 -10 9 -10 6 0 13 5 16 10 l6 10 -15 0 c-9 0 -16
-4 -16 -10z" />
    <path d="M8030 5746 c0 -2 7 -9 15 -16 l15 -12 0 16 c0 9 -7 16 -15 16 -8 0
-15 -2 -15 -4z" />
    <path d="M8410 5724 l0 -15 10 6 c6 3 10 10 10 16 0 5 -4 9 -10 9 -5 0 -10 -7
-10 -16z" />
    <path d="M8700 5715 c0 -8 5 -15 10 -15 6 0 10 7 10 15 0 8 -4 15 -10 15 -5 0
-10 -7 -10 -15z" />
    <path d="M7910 5700 c0 -5 7 -10 15 -10 8 0 15 5 15 10 0 6 -7 10 -15 10 -8 0
-15 -4 -15 -10z" />
    <path d="M8400 5645 c0 -8 5 -15 10 -15 6 0 10 7 10 15 0 8 -4 15 -10 15 -5 0
-10 -7 -10 -15z" />
    <path d="M7806 5641 c-4 -7 -5 -15 -2 -18 9 -9 19 4 14 18 l-4 13 -8 -13z" />
    <path d="M7948 5643 c-10 -2 -18 -12 -18 -21 l0 -16 12 12 c7 7 22 12 35 12
13 0 23 5 23 10 0 10 -21 11 -52 3z" />
    <path d="M8566 5625 l-16 -25 14 0 c8 0 18 9 21 21 10 31 0 33 -19 4z" />
    <path d="M8430 5595 c0 -8 7 -15 16 -15 l16 0 -12 15 c-7 8 -14 15 -16 15 -2
0 -4 -7 -4 -15z" />
    <path d="M8686 5594 c-11 -28 -6 -39 9 -20 8 11 15 23 15 28 0 14 -18 9 -24
-8z" />
    <path d="M7970 5550 c0 -5 7 -10 15 -10 8 0 15 5 15 10 0 6 -7 10 -15 10 -8 0
-15 -4 -15 -10z" />
    <path d="M7820 5516 c0 -2 7 -9 15 -16 l15 -12 0 16 c0 9 -7 16 -15 16 -8 0
-15 -2 -15 -4z" />
    <path d="M8025 5509 c-12 -19 5 -23 22 -6 l17 17 -16 0 c-9 0 -20 -5 -23 -11z" />
    <path d="M8610 5500 c0 -5 4 -10 9 -10 6 0 13 5 16 10 l6 10 -15 0 c-9 0 -16
-4 -16 -10z" />
    <path d="M7885 5480 c3 -5 10 -10 16 -10 5 0 9 5 9 10 0 6 -7 10 -16 10 l-15
0 6 -10z" />
    <path d="M7980 5480 c0 -5 4 -10 9 -10 6 0 13 5 16 10 l6 10 -15 0 c-9 0 -16
-4 -16 -10z" />
    <path d="M8465 5480 c3 -5 10 -10 16 -10 5 0 9 5 9 10 0 6 -7 10 -16 10 l-15
0 6 -10z" />
    <path d="M8560 5480 c0 -5 4 -10 9 -10 6 0 13 5 16 10 l6 10 -15 0 c-9 0 -16
-4 -16 -10z" />
  </g>
  <g transform="translate(0.000000,1341.000000) scale(0.100000,-0.100000)" fill="#111111" stroke="none">
    <path d="M8280 5745 l0 -275 65 0 65 0 0 15 c0 18 12 19 29 3 l12 -13 74 0 73
0 39 31 c21 17 48 51 60 75 l22 44 -1 50 c-2 83 -24 122 -96 173 l-32 23 -47
4 c-26 1 -64 -3 -85 -11 l-38 -13 0 84 0 85 -70 0 -70 0 0 -275z m253 10 c24
-10 47 -57 47 -94 0 -30 -16 -53 -52 -72 l-20 -11 -32 6 -31 6 -16 29 -16 28
3 39 3 39 24 21 25 21 23 -2 c13 -1 32 -5 42 -10z" />
    <path d="M7370 5730 l0 -260 200 0 200 0 0 60 0 60 -125 0 -125 0 0 200 0 200
-75 0 -75 0 0 -260z" />
    <path d="M7938 5875 c-2 -2 -19 -7 -38 -10 -39 -7 -80 -30 -80 -46 0 -8 26
-67 35 -77 1 -1 21 5 45 13 23 8 54 15 67 15 31 0 83 -30 83 -47 l0 -13 -57
-1 c-76 -1 -110 -7 -145 -25 -33 -17 -48 -49 -48 -105 l0 -40 30 -29 29 -29
46 -6 c54 -9 109 0 125 20 17 21 30 19 30 -5 l0 -20 66 0 66 0 -4 153 -3 152
-22 31 c-13 17 -38 39 -57 48 -31 14 -158 31 -168 21z m88 -245 l24 0 0 -20 0
-20 -31 -19 -31 -19 -19 5 c-24 7 -41 36 -33 57 6 16 31 26 52 20 8 -2 25 -4
38 -4z" />
  </g>
  <g transform="translate(0.000000,1341.000000) scale(0.100000,-0.100000)" fill="#9327de" stroke="none">
    <path d="M6195 8075 c-5 -2 -21 -6 -35 -9 l-25 -5 1 -718 c1 -395 2 -734 3
-754 l1 -37 58 4 57 4 13 17 12 17 0 743 0 743 -37 -1 c-21 0 -42 -2 -48 -4z" />
    <path d="M5880 6706 c0 -2 7 -9 15 -16 l15 -12 0 16 c0 9 -7 16 -15 16 -8 0
-15 -2 -15 -4z" />
  </g>
  <g transform="translate(0.000000,1341.000000) scale(0.100000,-0.100000)" fill="#921cd9" stroke="none">
    <path d="M6069 8037 l-44 -24 1 -16 c0 -9 1 -334 2 -721 l2 -704 28 -6 c15 -3
45 -8 66 -12 l39 -7 -8 12 c-8 14 -10 1465 -1 1480 5 8 -15 21 -33 21 -4 0
-28 -10 -52 -23z" />
  </g>
  <g transform="translate(0.000000,1341.000000) scale(0.100000,-0.100000)" fill="#9262fb" stroke="none">
    <path d="M6970 7676 l0 -406 14 0 c8 0 26 15 41 33 15 17 63 68 106 113 l79
81 0 277 0 276 -27 12 c-16 6 -70 13 -120 16 l-93 4 0 -406z" />
  </g>
  <g transform="translate(0.000000,1341.000000) scale(0.100000,-0.100000)" fill="#9236e5" stroke="none">
    <path d="M6330 7355 l0 -725 -15 0 c-8 0 -15 -7 -15 -15 0 -8 7 -15 15 -15 8
0 15 7 15 15 0 8 6 15 13 15 7 0 34 22 60 48 l47 48 0 677 0 677 -60 0 -60 0
0 -725z" />
    <path d="M5850 7725 c0 -8 5 -15 10 -15 6 0 10 7 10 15 0 8 -4 15 -10 15 -5 0
-10 -7 -10 -15z" />
    <path d="M5870 6741 c0 -6 5 -13 10 -16 l10 -6 0 15 c0 9 -4 16 -10 16 -5 0
-10 -4 -10 -9z" />
    <path d="M5353 5793 c4 -3 10 -3 14 0 3 4 0 7 -7 7 -7 0 -10 -3 -7 -7z" />
    <path d="M6290 5700 c0 -7 3 -10 7 -7 3 4 3 10 0 14 -4 3 -7 0 -7 -7z" />
    <path d="M6235 5560 c3 -5 8 -10 11 -10 3 0 2 5 -1 10 -3 6 -8 10 -11 10 -3 0
-2 -4 1 -10z" />
    <path d="M6433 5483 c4 -3 10 -3 14 0 3 4 0 7 -7 7 -7 0 -10 -3 -7 -7z" />
    <path d="M6840 5381 c0 -6 4 -13 10 -16 l10 -6 -6 15 c-7 18 -14 21 -14 7z" />
  </g>
  <g transform="translate(0.000000,1341.000000) scale(0.100000,-0.100000)" fill="#9259f7" stroke="none">
    <path d="M6223 8073 c9 -2 25 -2 35 0 9 3 1 5 -18 5 -19 0 -27 -2 -17 -5z" />
    <path d="M6816 7605 l2 -475 -9 0 c-5 0 -9 -7 -9 -15 0 -8 7 -15 15 -15 8 0
15 7 15 15 0 8 6 15 13 15 7 0 41 28 75 63 l63 63 2 412 2 412 -85 0 -85 0 1
-475z" />
    <path d="M7015 7320 c3 -5 8 -10 11 -10 3 0 2 5 -1 10 -3 6 -8 10 -11 10 -3 0
-2 -4 1 -10z" />
  </g>
  <g transform="translate(0.000000,1341.000000) scale(0.100000,-0.100000)" fill="#00e5f6" stroke="none">
    <path d="M6937 7232 c-53 -53 -97 -101 -97 -105 0 -4 6 -7 13 -7 l13 0 -1
-242 c0 -134 1 -262 3 -285 l5 -43 98 0 99 0 0 374 0 375 -16 15 c-8 9 -16 16
-17 16 -1 0 -46 -44 -100 -98z" />
    <path d="M6810 7095 c0 -8 7 -15 15 -15 8 0 15 7 15 15 0 8 -7 15 -15 15 -8 0
-15 -7 -15 -15z" />
  </g>
  <g transform="translate(0.000000,1341.000000) scale(0.100000,-0.100000)" fill="#9213d4" stroke="none">
    <path d="M5994 7988 c-16 -12 -35 -31 -42 -40 l-13 -18 -1 -643 c0 -353 -2
-634 -5 -624 -2 9 -9 17 -14 17 -18 0 -8 -19 26 -49 39 -34 95 -66 95 -54 0 5
0 322 0 707 0 384 -4 705 -8 713 l-8 14 -30 -23z" />
  </g>
  <g transform="translate(0.000000,1341.000000) scale(0.100000,-0.100000)" fill="#00f1f5" stroke="none">
    <path d="M7058 6926 l-3 -378 65 7 c36 4 82 16 102 26 l38 19 0 255 0 254 -49
48 c-27 26 -72 70 -100 97 l-51 50 -2 -378z" />
  </g>
  <g transform="translate(0.000000,1341.000000) scale(0.100000,-0.100000)" fill="#9143ec" stroke="none">
    <path d="M6510 7472 c0 -335 -3 -624 -6 -641 l-6 -31 14 0 c7 0 37 24 66 53
l52 53 -2 584 -3 585 -57 3 -58 3 0 -609z" />
    <path d="M6290 6606 c0 -9 7 -16 16 -16 9 0 14 5 12 12 -6 18 -28 21 -28 4z" />
  </g>
  <g transform="translate(0.000000,1341.000000) scale(0.100000,-0.100000)" fill="#930ad1" stroke="none">
    <path d="M5960 7960 c0 -7 3 -10 7 -7 3 4 3 10 0 14 -4 3 -7 0 -7 -7z" />
    <path d="M5908 7887 c-15 -24 -34 -68 -42 -98 l-14 -54 -1 -460 -1 -460 17
-55 c9 -30 23 -61 30 -68 7 -8 18 -22 23 -33 6 -10 15 -19 20 -19 l10 0 0 645
c0 355 -4 645 -8 645 -4 0 -19 -19 -34 -43z" />
    <path d="M5955 6620 c3 -5 8 -10 11 -10 2 0 4 5 4 10 0 6 -5 10 -11 10 -5 0
-7 -4 -4 -10z" />
  </g>
  <g transform="translate(0.000000,1341.000000) scale(0.100000,-0.100000)" fill="#924bef" stroke="none">
    <path d="M6608 8067 l10 -12 0 -568 c0 -313 3 -571 7 -575 3 -4 31 19 62 52
l55 58 -6 21 c-3 12 -6 250 -6 530 l0 507 -66 0 -66 0 10 -13z" />
    <path d="M8544 5598 l-7 -11 11 7 c12 7 16 16 8 16 -3 0 -8 -5 -12 -12z" />
  </g>
  <g transform="translate(0.000000,1341.000000) scale(0.100000,-0.100000)" fill="#9151f3" stroke="none">
    <path d="M6714 8071 c3 -5 6 -245 6 -535 0 -289 4 -526 8 -526 4 0 27 20 51
44 l43 44 -6 11 -7 11 14 -6 c8 -3 18 0 22 6 l8 12 -12 8 -12 7 -1 466 0 467
-60 0 -59 0 5 -9z" />
    <path d="M6690 6996 c0 -9 5 -16 10 -16 6 0 10 4 10 9 0 6 -4 13 -10 16 l-10
6 0 -15z" />
  </g>
  <g transform="translate(0.000000,1341.000000) scale(0.100000,-0.100000)" fill="#913eeb" stroke="none">
    <path d="M6438 7405 c1 -371 6 -675 10 -675 5 0 22 15 40 33 l31 32 1 634 c0
348 3 638 6 642 l5 9 -48 0 -48 0 3 -675z" />
  </g>
  <g transform="translate(0.000000,1341.000000) scale(0.100000,-0.100000)" fill="#922fe2" stroke="none">
    <path d="M6268 7345 l2 -736 -10 -19 -11 -20 13 0 c20 0 43 18 43 32 0 7 8 13
18 13 l17 0 3 732 2 733 -40 0 -40 0 3 -735z" />
  </g>
  <g transform="translate(0.000000,1341.000000) scale(0.100000,-0.100000)" fill="#00dbf7" stroke="none">
    <path d="M6859 7153 c-1 -4 -1 -12 0 -16 1 -5 -2 -6 -7 -3 -5 3 -55 -42 -113
-100 l-104 -105 18 -13 17 -13 0 -177 0 -176 111 0 110 0 -6 10 c-4 6 -7 141
-7 301 l-1 289 -8 6 c-5 3 -10 2 -10 -3z" />
  </g>
  <g transform="translate(0.000000,1341.000000) scale(0.100000,-0.100000)" fill="#00cefa" stroke="none">
    <path d="M6980 7273 l-65 -68 68 65 c62 60 72 70 64 70 -1 0 -32 -30 -67 -67z" />
    <path d="M6894 7188 l-7 -11 11 7 c12 7 16 16 8 16 -3 0 -8 -5 -12 -12z" />
    <path d="M6864 7158 l-7 -11 11 7 c12 7 16 16 8 16 -3 0 -8 -5 -12 -12z" />
    <path d="M6809 7103 l-34 -38 38 34 c34 33 42 41 34 41 -2 0 -19 -17 -38 -37z" />
    <path d="M6754 7048 l-7 -11 11 7 c12 7 16 16 8 16 -3 0 -8 -5 -12 -12z" />
    <path d="M6724 7018 l-7 -11 11 7 c12 7 16 16 8 16 -3 0 -8 -5 -12 -12z" />
    <path d="M6694 6988 l-7 -11 11 7 c7 4 12 9 12 12 0 8 -9 4 -16 -8z" />
    <path d="M6490 6785 l-185 -185 -42 -18 c-24 -9 -43 -20 -43 -24 0 -5 106 -8
236 -8 l235 0 -5 8 c-3 5 -6 100 -6 210 -1 111 -2 202 -3 202 -1 0 -85 -83
-187 -185z m177 150 c0 -8 -4 -12 -9 -9 -5 3 -6 10 -3 15 9 13 12 11 12 -6z" />
  </g>
  <g transform="translate(0.000000,1341.000000) scale(0.100000,-0.100000)" fill="#9168fd" stroke="none">
    <path d="M7163 8058 c2 -7 12 -12 21 -12 l16 2 0 -279 0 -279 -15 0 c-8 0 -16
-8 -17 -17 -2 -10 -5 115 -8 277 l-6 295 1 -298 0 -297 -10 -4 c-5 -2 -7 -6
-4 -10 9 -10 185 177 207 220 26 53 35 105 26 170 l-6 54 -32 52 c-35 57 -82
99 -140 123 l-38 16 5 -13z" />
    <path d="M6220 6560 c0 -5 5 -10 11 -10 5 0 7 5 4 10 -3 6 -8 10 -11 10 -2 0
-4 -4 -4 -10z" />
  </g>
  <g transform="translate(0.000000,1341.000000) scale(0.100000,-0.100000)" fill="#01fcf4" stroke="none">
    <path d="M7245 6856 l0 -264 16 9 c10 5 35 29 57 55 l41 46 17 51 c9 29 17 77
17 108 l-1 56 -26 54 c-14 30 -46 75 -71 102 -25 26 -47 47 -48 47 -1 0 -2
-119 -2 -264z" />
  </g>
  <g transform="translate(0.000000,1341.000000) scale(0.100000,-0.100000)" fill="#c4c4c4" stroke="none">
    <path d="M7108 8073 c7 -3 16 -2 19 1 4 3 -2 6 -13 5 l-19 -1 13 -5z" />
    <path d="M6443 6553 c125 -2 329 -2 455 0 125 1 22 2 -228 2 -250 0 -353 -1
-227 -2z" />
    <path d="M6794 5760 c0 -151 2 -213 3 -137 2 75 2 199 0 275 -1 75 -3 13 -3
-138z" />
    <path d="M8343 6013 l67 -4 0 -84 0 -85 9 0 c6 0 13 5 17 12 l7 11 -11 -7 -12
-7 0 85 0 86 -72 -2 -73 -2 68 -3z" />
    <path d="M7370 5730 l0 -260 200 0 200 0 -2 63 -2 62 -3 -57 -4 -58 -189 0
-190 0 0 250 0 249 73 4 72 3 -77 2 -78 2 0 -260z" />
    <path d="M5030 5946 c0 -2 8 -10 18 -17 l17 -14 -14 18 c-13 16 -21 21 -21 13z" />
    <path d="M7943 5873 c4 -3 10 -3 14 0 3 4 0 7 -7 7 -7 0 -10 -3 -7 -7z" />
    <path d="M5883 5835 l0 -40 4 23 c2 12 2 30 0 40 -3 9 -5 -1 -4 -23z" />
    <path d="M5489 5823 l-14 -18 18 14 c9 7 17 15 17 17 0 8 -8 3 -21 -13z" />
    <path d="M5368 5793 c7 -3 16 -2 19 1 4 3 -2 6 -13 5 l-19 -1 13 -5z" />
    <path d="M6334 5778 l-7 -11 11 7 c12 7 16 16 8 16 -3 0 -8 -5 -12 -12z" />
    <path d="M5289 5763 l-14 -18 18 14 c9 7 17 15 17 17 0 8 -8 3 -21 -13z" />
    <path d="M4964 5748 l-7 -11 11 7 c12 7 16 16 8 16 -3 0 -8 -5 -12 -12z" />
    <path d="M8025 5750 c3 -5 8 -10 11 -10 3 0 2 5 -1 10 -3 6 -8 10 -11 10 -3 0
-2 -4 1 -10z" />
    <path d="M6610 5710 c0 -7 3 -10 7 -7 3 4 3 10 0 14 -4 3 -7 0 -7 -7z" />
    <path d="M5260 5700 c0 -7 3 -10 7 -7 3 4 3 10 0 14 -4 3 -7 0 -7 -7z" />
    <path d="M7819 5663 l-14 -18 18 14 c9 7 17 15 17 17 0 8 -8 3 -21 -13z" />
    <path d="M8003 5633 c9 -2 25 -2 35 0 9 3 1 5 -18 5 -19 0 -27 -2 -17 -5z" />
    <path d="M7815 5520 c3 -5 8 -10 11 -10 3 0 2 5 -1 10 -3 6 -8 10 -11 10 -3 0
-2 -4 1 -10z" />
    <path d="M5603 5483 c4 -3 10 -3 14 0 3 4 0 7 -7 7 -7 0 -10 -3 -7 -7z" />
    <path d="M8087 5473 c18 -2 50 -2 70 0 21 2 7 4 -32 4 -38 0 -55 -2 -38 -4z" />
    <path d="M8307 5473 c18 -2 50 -2 70 0 21 2 7 4 -32 4 -38 0 -55 -2 -38 -4z" />
  </g>
  <g transform="translate(0.000000,1341.000000) scale(0.100000,-0.100000)" fill="#c27ae8" stroke="none">
    <path d="M6203 8073 c4 -3 10 -3 14 0 3 4 0 7 -7 7 -7 0 -10 -3 -7 -7z" />
    <path d="M6473 8073 c120 -2 314 -2 430 0 117 1 19 2 -218 2 -236 0 -332 -1
-212 -2z" />
    <path d="M7370 7810 c0 -7 3 -10 7 -7 3 4 3 10 0 14 -4 3 -7 0 -7 -7z" />
    <path d="M7370 7760 c0 -7 3 -10 7 -7 3 4 3 10 0 14 -4 3 -7 0 -7 -7z" />
    <path d="M6133 6553 c9 -2 23 -2 30 0 6 3 -1 5 -18 5 l-30 0 18 -5z" />
  </g>
  <g transform="translate(0.000000,1341.000000) scale(0.100000,-0.100000)" fill="#f0feff" stroke="none">
    <path d="M7279 7573 l-24 -28 28 24 c15 14 27 26 27 28 0 8 -8 1 -31 -24z" />
    <path d="M7140 7433 l-105 -108 108 105 c99 97 112 110 104 110 -1 0 -50 -48
-107 -107z" />
    <path d="M7391 6854 l1 -19 5 13 c3 7 2 16 -1 19 -3 4 -6 -2 -5 -13z" />
    <path d="M6575 5800 c3 -5 8 -10 11 -10 3 0 2 5 -1 10 -3 6 -8 10 -11 10 -3 0
-2 -4 1 -10z" />
  </g>
  <g transform="translate(0.000000,1341.000000) scale(0.100000,-0.100000)" fill="#e1e1e1" stroke="none">
    <path d="M7370 7750 c0 -7 3 -10 7 -7 3 4 3 10 0 14 -4 3 -7 0 -7 -7z" />
    <path d="M6535 5840 c3 -5 8 -10 11 -10 3 0 2 5 -1 10 -3 6 -8 10 -11 10 -3 0
-2 -4 1 -10z" />
    <path d="M5034 5688 l-7 -11 11 7 c12 7 16 16 8 16 -3 0 -8 -5 -12 -12z" />
    <path d="M6554 5538 l-7 -11 11 7 c12 7 16 16 8 16 -3 0 -8 -5 -12 -12z" />
  </g>
</svg>