<?xml version="1.0" encoding="UTF-8" standalone="no"?>
<!-- Generator: Adobe Illustrator 22.0.1, SVG Export Plug-In . SVG Version: 6.00 Build 0)  -->

<svg
   version="1.1"
   id="Capa_1"
   x="0px"
   y="0px"
   viewBox="0 0 1064.3141 243.78204"
   xml:space="preserve"
   width="1064.3141"
   height="243.78204"
   xmlns:xlink="http://www.w3.org/1999/xlink"
   xmlns="http://www.w3.org/2000/svg"
   xmlns:svg="http://www.w3.org/2000/svg"><defs
   id="defs16" />&#10;<style
   type="text/css"
   id="style1">&#10;	.st0{clip-path:url(#SVGID_2_);fill:#999999;}&#10;	.st1{clip-path:url(#SVGID_4_);fill:url(#SVGID_5_);}&#10;	.st2{clip-path:url(#SVGID_7_);fill:url(#SVGID_8_);}&#10;</style>&#10;<g
   id="g16"
   transform="translate(-61.41985,-332.90904)">&#10;&#10;	<g
   id="g8"
   transform="translate(227.0334,-260.98232)">&#10;		<defs
   id="defs1">&#10;			<rect
   id="SVGID_1_"
   x="-560.5"
   y="-621.5"
   width="2323"
   height="2323" />&#10;		</defs>&#10;		<clipPath
   id="SVGID_2_">&#10;			<use
   xlink:href="#SVGID_1_"
   style="overflow:visible"
   id="use1" />&#10;		</clipPath>&#10;		<path
   class="st0"
   d="m 234.1,662.3 h -36.2 v 88 h 16.3 v -25.4 h 19.9 c 23.1,0 37.5,-11.9 37.5,-31.3 -0.1,-19.5 -14.4,-31.3 -37.5,-31.3 m -0.8,48.7 h -19.1 v -34.9 h 19.1 c 14.3,0 21.7,6.4 21.7,17.5 0,11.1 -7.3,17.4 -21.7,17.4"
   clip-path="url(#SVGID_2_)"
   id="path1" />&#10;		<path
   class="st0"
   d="m 300.7,692.9 v -9.8 h -15 v 67.1 h 15.7 v -32.5 c 0,-13.7 7.5,-20.7 19.5,-20.7 1.1,0 2.3,0.1 3.6,0.4 v -15 c -11.1,0 -19.3,3.5 -23.8,10.5"
   clip-path="url(#SVGID_2_)"
   id="path2" />&#10;		<path
   class="st0"
   d="m 367.4,682.4 c -20.6,0 -35.7,14.2 -35.7,34.3 0,20.1 15.1,34.4 35.7,34.4 20.9,0 35.8,-14.3 35.8,-34.4 0,-20.1 -14.9,-34.3 -35.8,-34.3 m 0,55.3 c -11.3,0 -19.9,-8.2 -19.9,-21 0,-12.8 8.5,-21 19.9,-21 11.4,0 20,8.2 20,21 0,12.8 -8.5,21 -20,21"
   clip-path="url(#SVGID_2_)"
   id="path3" />&#10;		<path
   class="st0"
   d="m 445.5,738.2 c -6,0 -9.3,-3.5 -9.3,-10.1 v -31.9 h 18 v -12.6 h -18 v -15.3 h -15.7 v 15.3 h -11.1 v 12.6 h 11.1 v 32.3 c 0,14.8 8.4,22.6 23.1,22.6 5.7,0 11.3,-1.5 15.1,-4.5 l -4.4,-11.2 c -2.4,1.9 -5.6,2.8 -8.8,2.8"
   clip-path="url(#SVGID_2_)"
   id="path4" />&#10;		<path
   class="st0"
   d="m 499.5,682.4 c -20.6,0 -35.7,14.2 -35.7,34.3 0,20.1 15.1,34.4 35.7,34.4 20.9,0 35.8,-14.3 35.8,-34.4 0,-20.1 -14.9,-34.3 -35.8,-34.3 m 0,55.3 c -11.3,0 -19.9,-8.2 -19.9,-21 0,-12.8 8.5,-21 19.9,-21 11.4,0 20,8.2 20,21 0,12.8 -8.5,21 -20,21"
   clip-path="url(#SVGID_2_)"
   id="path5" />&#10;		<rect
   x="550.40002"
   y="657"
   class="st0"
   width="15.7"
   height="93.300003"
   clip-path="url(#SVGID_2_)"
   id="rect5" />&#10;		<path
   class="st0"
   d="m 634.5,683.1 -21.2,49.6 -21.1,-49.6 h -16.3 l 29.3,67.4 -1.1,2.6 c -3,6.7 -6.3,9.3 -11.8,9.3 -4.3,0 -8.5,-1.8 -11.6,-4.7 l -6.3,11.6 c 4.3,3.9 11.3,6.2 18,6.2 11.2,0 19.7,-4.6 25.9,-19.9 l 31.4,-72.5 z"
   clip-path="url(#SVGID_2_)"
   id="path6" />&#10;		<polygon
   class="st0"
   points="691.9,664.3 667.1,664.3 667.1,752.3 733.9,752.3 733.9,732.6 691.9,732.6 "
   clip-path="url(#SVGID_2_)"
   id="polygon6" />&#10;		<path
   class="st0"
   d="m 772.6,683.1 c -10.7,0 -22.2,2.8 -30,7.9 l 8,16.2 c 4.7,-3.6 11.9,-5.9 18.5,-5.9 9.4,0 14.1,3.9 14.5,10.8 H 770 c -21.1,0 -30.3,7.8 -30.3,20.4 0,11.8 9,21 25.4,21 9.9,0 16.7,-3.4 20.1,-9.9 v 8.8 h 22.2 v -37.8 c 0,-21.7 -12.7,-31.5 -34.8,-31.5 m 11,47.3 c -1.9,5.4 -6.5,7.9 -11.8,7.9 -5.7,0 -8.9,-2.9 -8.9,-6.9 0,-4.1 2.8,-6.9 10.4,-6.9 h 10.3 z"
   clip-path="url(#SVGID_2_)"
   id="path7" />&#10;		<path
   class="st0"
   d="m 865.4,683.1 c -7.9,0 -14.3,2.3 -19,7 v -31 h -23.9 v 93.3 h 22.7 v -6.8 c 4.5,5.4 11.2,7.9 20.1,7.9 18.5,0 33.4,-13.6 33.4,-35.3 0.1,-21.7 -14.9,-35.1 -33.3,-35.1 m -5.1,51.4 c -8,0 -14.3,-5.9 -14.3,-16.3 0,-10.3 6.3,-16.1 14.3,-16.1 8,0 14.3,5.8 14.3,16.1 0.1,10.4 -6.2,16.3 -14.3,16.3"
   clip-path="url(#SVGID_2_)"
   id="path8" />&#10;	</g>&#10;	<g
   id="g9"
   transform="translate(-328.88015,10.609037)">&#10;		<defs
   id="defs8">&#10;			<path
   id="SVGID_3_"
   d="m 392.5,391.6 v 108 c 0,36.3 29.5,65.8 65.8,65.8 h 116.6 29.9 c 45.8,0 68.7,-55.4 36.3,-87.7 L 507.4,344 c -13.7,-13.7 -30.6,-19.9 -47.1,-19.9 -34.6,0.1 -67.8,26.9 -67.8,67.5" />&#10;		</defs>&#10;		<clipPath
   id="SVGID_4_">&#10;			<use
   xlink:href="#SVGID_3_"
   style="overflow:visible"
   id="use8" />&#10;		</clipPath>&#10;		&#10;			<linearGradient
   id="SVGID_5_"
   gradientUnits="userSpaceOnUse"
   x1="0.35069999"
   y1="1081.4235"
   x2="2.5016"
   y2="1081.4235"
   gradientTransform="matrix(122.6407,0,0,-122.6407,349.5033,133071.34)">&#10;			<stop
   offset="0"
   style="stop-color:#5DA3FB"
   id="stop8" />&#10;			<stop
   offset="1"
   style="stop-color:#8FFFF3"
   id="stop9" />&#10;		</linearGradient>&#10;		<rect
   x="392.5"
   y="324.20001"
   class="st1"
   width="281"
   height="241.3"
   clip-path="url(#SVGID_4_)"
   id="rect9"
   style="fill:url(#SVGID_5_)" />&#10;	</g>&#10;	<g
   id="g15"
   transform="translate(-328.88015,10.609037)">&#10;		<defs
   id="defs9">&#10;			<path
   id="SVGID_6_"
   d="m 452.1,322.3 c -34.1,0 -61.8,27.5 -61.8,61.5 v 136.1 c 0,41.1 49.9,61.6 79.1,32.6 L 621.7,401 c 29.2,-29 8.5,-78.7 -32.8,-78.7 z" />&#10;		</defs>&#10;		<clipPath
   id="SVGID_7_">&#10;			<use
   xlink:href="#SVGID_6_"
   style="overflow:visible"
   id="use9" />&#10;		</clipPath>&#10;		&#10;			<linearGradient
   id="SVGID_8_"
   gradientUnits="userSpaceOnUse"
   x1="0.33989999"
   y1="1081.3246"
   x2="2.3412001"
   y2="1081.3246"
   gradientTransform="matrix(122.4215,0,0,-122.4215,348.7018,132829.28)">&#10;			<stop
   offset="0"
   style="stop-color:#7D0DC8"
   id="stop10" />&#10;			<stop
   offset="0.2916"
   style="stop-color:#8133DD"
   id="stop11" />&#10;			<stop
   offset="0.574"
   style="stop-color:#8451ED"
   id="stop12" />&#10;			<stop
   offset="0.8156"
   style="stop-color:#8564F7"
   id="stop13" />&#10;			<stop
   offset="0.9883"
   style="stop-color:#866AFA"
   id="stop14" />&#10;			<stop
   offset="1"
   style="stop-color:#866AFA"
   id="stop15" />&#10;		</linearGradient>&#10;		<rect
   x="390.29999"
   y="322.29999"
   class="st2"
   width="260.5"
   height="259.20001"
   clip-path="url(#SVGID_7_)"
   id="rect15"
   style="fill:url(#SVGID_8_)" />&#10;	</g>&#10;</g>&#10;</svg>
