<?xml version="1.0" encoding="utf-8"?>
<!-- Generator: Adobe Illustrator 22.0.1, SVG Export Plug-In . SVG Version: 6.00 Build 0)  -->
<svg version="1.1" id="Capa_1" xmlns="http://www.w3.org/2000/svg" xmlns:xlink="http://www.w3.org/1999/xlink" x="0px" y="0px"
	 viewBox="0 0 1080 1080"  style="enable-background:new 0 0 1080 1080;" xml:space="preserve">
<style type="text/css">
	.st0{clip-path:url(#SVGID_2_);fill:#999999;}
	.st1{clip-path:url(#SVGID_4_);fill:url(#SVGID_5_);}
	.st2{clip-path:url(#SVGID_7_);fill:url(#SVGID_8_);}
</style>
<g>

	<g>
		<defs>
			<rect id="SVGID_1_" x="-560.5" y="-621.5" width="2323" height="2323"/>
		</defs>
		<clipPath id="SVGID_2_">
			<use xlink:href="#SVGID_1_"  style="overflow:visible;"/>
		</clipPath>
		<path class="st0" d="M234.1,662.3h-36.2v88h16.3v-25.4h19.9c23.1,0,37.5-11.9,37.5-31.3C271.5,674.1,257.2,662.3,234.1,662.3
			 M233.3,711h-19.1v-34.9h19.1c14.3,0,21.7,6.4,21.7,17.5S247.7,711,233.3,711"/>
		<path class="st0" d="M300.7,692.9v-9.8h-15v67.1h15.7v-32.5c0-13.7,7.5-20.7,19.5-20.7c1.1,0,2.3,0.1,3.6,0.4v-15
			C313.4,682.4,305.2,685.9,300.7,692.9"/>
		<path class="st0" d="M367.4,682.4c-20.6,0-35.7,14.2-35.7,34.3c0,20.1,15.1,34.4,35.7,34.4c20.9,0,35.8-14.3,35.8-34.4
			C403.2,696.6,388.3,682.4,367.4,682.4 M367.4,737.7c-11.3,0-19.9-8.2-19.9-21s8.5-21,19.9-21c11.4,0,20,8.2,20,21
			S378.9,737.7,367.4,737.7"/>
		<path class="st0" d="M445.5,738.2c-6,0-9.3-3.5-9.3-10.1v-31.9h18v-12.6h-18v-15.3h-15.7v15.3h-11.1v12.6h11.1v32.3
			c0,14.8,8.4,22.6,23.1,22.6c5.7,0,11.3-1.5,15.1-4.5l-4.4-11.2C451.9,737.3,448.7,738.2,445.5,738.2"/>
		<path class="st0" d="M499.5,682.4c-20.6,0-35.7,14.2-35.7,34.3c0,20.1,15.1,34.4,35.7,34.4c20.9,0,35.8-14.3,35.8-34.4
			C535.3,696.6,520.4,682.4,499.5,682.4 M499.5,737.7c-11.3,0-19.9-8.2-19.9-21s8.5-21,19.9-21c11.4,0,20,8.2,20,21
			S511,737.7,499.5,737.7"/>
		<rect x="550.4" y="657" class="st0" width="15.7" height="93.3"/>
		<path class="st0" d="M634.5,683.1l-21.2,49.6l-21.1-49.6h-16.3l29.3,67.4l-1.1,2.6c-3,6.7-6.3,9.3-11.8,9.3
			c-4.3,0-8.5-1.8-11.6-4.7l-6.3,11.6c4.3,3.9,11.3,6.2,18,6.2c11.2,0,19.7-4.6,25.9-19.9l31.4-72.5H634.5z"/>
		<polygon class="st0" points="691.9,664.3 667.1,664.3 667.1,752.3 733.9,752.3 733.9,732.6 691.9,732.6 		"/>
		<path class="st0" d="M772.6,683.1c-10.7,0-22.2,2.8-30,7.9l8,16.2c4.7-3.6,11.9-5.9,18.5-5.9c9.4,0,14.1,3.9,14.5,10.8H770
			c-21.1,0-30.3,7.8-30.3,20.4c0,11.8,9,21,25.4,21c9.9,0,16.7-3.4,20.1-9.9v8.8h22.2v-37.8C807.4,692.9,794.7,683.1,772.6,683.1
			 M783.6,730.4c-1.9,5.4-6.5,7.9-11.8,7.9c-5.7,0-8.9-2.9-8.9-6.9c0-4.1,2.8-6.9,10.4-6.9h10.3V730.4z"/>
		<path class="st0" d="M865.4,683.1c-7.9,0-14.3,2.3-19,7v-31h-23.9v93.3h22.7v-6.8c4.5,5.4,11.2,7.9,20.1,7.9
			c18.5,0,33.4-13.6,33.4-35.3C898.8,696.5,883.8,683.1,865.4,683.1 M860.3,734.5c-8,0-14.3-5.9-14.3-16.3
			c0-10.3,6.3-16.1,14.3-16.1c8,0,14.3,5.8,14.3,16.1C874.7,728.6,868.4,734.5,860.3,734.5"/>
	</g>
	<g>
		<defs>
			<path id="SVGID_3_" d="M392.5,391.6v108c0,36.3,29.5,65.8,65.8,65.8h116.6h29.9c45.8,0,68.7-55.4,36.3-87.7L507.4,344
				c-13.7-13.7-30.6-19.9-47.1-19.9C425.7,324.2,392.5,351,392.5,391.6"/>
		</defs>
		<clipPath id="SVGID_4_">
			<use xlink:href="#SVGID_3_"  style="overflow:visible;"/>
		</clipPath>
		
			<linearGradient id="SVGID_5_" gradientUnits="userSpaceOnUse" x1="0.3507" y1="1081.4235" x2="2.5016" y2="1081.4235" gradientTransform="matrix(122.6407 0 0 -122.6407 349.5033 133071.3438)">
			<stop  offset="0" style="stop-color:#5DA3FB"/>
			<stop  offset="1" style="stop-color:#8FFFF3"/>
		</linearGradient>
		<rect x="392.5" y="324.2" class="st1" width="281" height="241.3"/>
	</g>
	<g>
		<defs>
			<path id="SVGID_6_" d="M452.1,322.3c-34.1,0-61.8,27.5-61.8,61.5v136.1c0,41.1,49.9,61.6,79.1,32.6L621.7,401
				c29.2-29,8.5-78.7-32.8-78.7H452.1z"/>
		</defs>
		<clipPath id="SVGID_7_">
			<use xlink:href="#SVGID_6_"  style="overflow:visible;"/>
		</clipPath>
		
			<linearGradient id="SVGID_8_" gradientUnits="userSpaceOnUse" x1="0.3399" y1="1081.3246" x2="2.3412" y2="1081.3246" gradientTransform="matrix(122.4215 0 0 -122.4215 348.7018 132829.2813)">
			<stop  offset="0" style="stop-color:#7D0DC8"/>
			<stop  offset="0.2916" style="stop-color:#8133DD"/>
			<stop  offset="0.574" style="stop-color:#8451ED"/>
			<stop  offset="0.8156" style="stop-color:#8564F7"/>
			<stop  offset="0.9883" style="stop-color:#866AFA"/>
			<stop  offset="1" style="stop-color:#866AFA"/>
		</linearGradient>
		<rect x="390.3" y="322.3" class="st2" width="260.5" height="259.2"/>
	</g>
</g>
</svg>
