<svg version="1.1" id="Layer_1" xmlns="http://www.w3.org/2000/svg" xmlns:xlink="http://www.w3.org/1999/xlink" x="0px" y="0px"
	 width="100%" viewBox="0 0 1410 1012" enable-background="new 0 0 1410 1012" xml:space="preserve">
<path fill="#FFFFFF" opacity=".5" stroke="none" 
	d="
M1.000000,363.000000 
	C1.000000,242.000000 1.000000,121.500000 1.000000,1.000000 
	C471.000000,1.000000 941.000000,1.000000 1411.000000,1.000000 
	C1411.000000,338.333344 1411.000000,675.666687 1411.000000,1013.000000 
	C941.000000,1013.000000 471.000000,1013.000000 1.000000,1013.000000 
	C1.000000,796.500000 1.000000,580.000000 1.000000,363.000000 
M474.968018,58.968792 
	C474.968018,58.968792 474.922241,58.879177 474.411346,59.038464 
	C474.236481,59.336460 474.061584,59.634457 473.969299,59.973503 
	C473.969299,59.973503 473.936066,59.887474 473.405945,60.038582 
	C473.190002,60.328175 472.974060,60.617767 472.167175,61.177502 
	C471.091187,62.727776 470.015228,64.278046 468.307007,66.126564 
	C466.121948,68.679031 463.936920,71.231499 461.737915,73.861847 
	C461.737915,73.861847 461.790527,73.802803 461.179199,74.111832 
	C457.826477,79.207695 454.052155,84.079758 451.204590,89.443787 
	C444.261047,102.523621 439.227417,116.320023 437.079041,131.930069 
	C436.691040,136.068954 435.965393,140.207748 435.964417,144.346725 
	C435.941040,244.598206 435.979919,344.849731 436.112640,445.101105 
	C436.116394,447.933807 437.270050,450.765045 437.618683,453.599915 
	C437.618683,453.599915 437.568970,453.864166 437.609833,454.728424 
	C438.351105,457.559601 439.092346,460.390778 439.821930,463.990570 
	C443.050995,475.965759 448.778137,486.694122 456.657623,496.177612 
	C460.290253,500.549713 464.716125,504.262787 468.864716,508.187866 
	C468.864716,508.187866 468.749817,508.154419 468.915863,508.694550 
	C469.241364,508.862366 469.566864,509.030212 469.902161,509.078003 
	C469.902161,509.078003 469.821686,509.167633 470.104492,509.770935 
	C471.687256,510.909332 473.269989,512.047668 474.921143,513.041687 
	C474.921143,513.041687 474.806030,513.152527 475.003510,513.638062 
	C475.316711,513.772339 475.629944,513.906616 476.314056,514.609375 
	C485.698914,521.211609 495.915527,526.027893 507.732697,529.210510 
	C508.514923,529.467407 509.284363,529.775696 510.081238,529.973572 
	C523.755310,533.368713 537.546387,533.147339 552.065918,531.709595 
	C557.184326,532.120667 562.302368,532.885010 567.421204,532.889893 
	C644.522156,532.963440 721.623230,532.956116 798.724243,532.921570 
	C819.204712,532.912354 839.685425,532.778992 860.164978,532.594849 
	C861.838562,532.579773 863.504700,531.730042 865.796143,531.290955 
	C866.204895,531.229370 866.613586,531.167786 867.599365,531.461060 
	C871.756592,530.360413 875.913818,529.259766 880.553589,527.987000 
	C880.708984,527.916138 880.864380,527.845337 881.764771,527.892029 
	C888.196899,524.951172 894.629028,522.010315 901.005310,518.997559 
	C901.005310,518.997559 901.051697,519.074707 901.611816,519.038086 
	C901.828003,518.760254 902.044128,518.482422 902.126465,518.213440 
	C902.126465,518.213440 902.197998,518.326965 902.864685,518.305969 
	C903.920776,517.556030 904.976807,516.806091 906.017090,516.004822 
	C906.017090,516.004822 906.055725,516.042542 906.737976,515.944214 
	C909.046387,514.316101 911.498596,512.856995 913.641418,511.034271 
	C941.534546,487.307953 954.177979,457.047119 950.527344,420.707458 
	C948.603516,401.557037 941.944214,383.837006 927.717407,369.379486 
	C927.452209,369.004791 927.187073,368.630066 926.956604,368.072510 
	C926.956604,368.072510 926.770813,368.062317 926.699402,367.496490 
	C926.130066,367.019196 925.560730,366.541901 925.000916,366.008575 
	C925.000916,366.008575 924.943848,366.005432 924.816589,365.351898 
	C924.279175,364.717834 923.783936,364.041626 923.198364,363.455719 
	C894.809204,335.047668 866.421021,306.638611 837.994751,278.267700 
	C836.260559,276.536957 834.217896,275.115356 832.500183,272.684326 
	C834.036316,270.953278 835.493958,269.144440 837.120605,267.502991 
	C855.119934,249.339523 873.145569,231.202072 891.796021,212.738022 
	C893.990784,209.115967 896.895081,206.450989 900.366699,203.815628 
	C906.376282,199.253845 911.307373,193.272049 916.695129,187.890182 
	C946.107483,158.509872 954.117676,119.339577 938.083679,80.955086 
	C930.262878,62.232582 918.034180,46.963459 899.757507,36.156303 
	C896.186707,34.402756 892.615967,32.649212 889.108276,30.910765 
	C889.108276,30.910765 889.131226,30.849949 888.681702,30.297655 
	C883.531677,28.535419 878.481323,26.326988 873.201172,25.146910 
	C868.675110,24.135359 863.885986,24.300798 858.956299,23.442616 
	C858.633789,23.289164 858.311218,23.135712 857.338318,22.721121 
	C856.200867,22.644344 855.063477,22.567568 853.106445,22.278578 
	C851.156311,22.333155 849.206116,22.387732 846.312134,22.215508 
	C836.860962,22.292135 827.409790,22.368765 817.043213,22.261778 
	C731.319153,22.196840 645.595032,22.124939 559.870972,22.104647 
	C557.583252,22.104105 555.295349,22.663208 552.196289,23.177076 
	C550.450012,23.443333 548.701904,23.697973 546.957886,23.978188 
	C542.938171,24.624044 538.920471,25.282324 534.106445,25.904070 
	C529.671814,27.187063 525.077698,28.086624 520.842102,29.848190 
	C515.304688,32.151192 510.050751,35.135918 503.963287,37.687057 
	C493.271240,42.551582 484.073669,49.496269 475.900146,57.884670 
	C475.900146,57.884670 475.918030,57.877575 475.401367,58.027466 
	C475.226776,58.326530 475.052185,58.625595 474.968018,58.968792 
M1388.877563,859.277283 
	C1390.775757,851.897583 1393.595459,844.616516 1394.397949,837.119446 
	C1396.724243,815.383789 1392.246094,795.341919 1376.657959,778.990540 
	C1357.907837,759.322205 1323.443848,753.869080 1301.713989,766.962158 
	C1299.093628,768.541077 1296.658447,770.427307 1293.317139,772.738586 
	C1293.317139,752.453064 1293.317139,733.080505 1293.317139,713.720947 
	C1277.602173,713.720947 1262.488403,713.720947 1247.222778,713.720947 
	C1247.222778,774.004639 1247.222778,834.058289 1247.222778,894.289856 
	C1261.888306,894.289856 1276.315552,894.289856 1291.166626,894.289856 
	C1291.166626,890.333435 1291.166626,886.598083 1291.166626,883.634827 
	C1297.671875,887.097717 1303.786133,891.778625 1310.677856,893.773560 
	C1340.151611,902.305237 1373.770874,891.842712 1388.877563,859.277283 
M1104.314087,800.224243 
	C1105.456787,802.371826 1106.599609,804.519409 1107.742798,806.667725 
	C1124.674683,797.160156 1134.712646,794.654053 1150.166382,795.978088 
	C1162.949585,797.073364 1170.713379,804.401184 1171.095215,816.156189 
	C1161.956299,816.156189 1152.788574,815.648560 1143.702759,816.294250 
	C1133.968018,816.986023 1124.081055,817.868652 1114.673096,820.278503 
	C1100.821899,823.826538 1090.283691,832.109863 1087.397217,846.996765 
	C1084.559570,861.631653 1087.842163,874.837952 1099.479614,885.008789 
	C1108.231445,892.657654 1118.865234,895.698181 1130.233276,896.349121 
	C1142.346069,897.042725 1154.310303,896.365906 1164.622681,888.974976 
	C1168.264282,886.364990 1171.224487,882.804077 1174.862549,879.326782 
	C1174.862549,884.483826 1174.862549,889.247009 1174.862549,894.177856 
	C1189.391602,894.177856 1203.596191,894.177856 1217.861084,894.177856 
	C1217.861084,867.362366 1218.580688,840.866760 1217.669189,814.427368 
	C1216.653687,784.973755 1200.258057,767.170593 1171.265747,761.859558 
	C1150.533936,758.061829 1130.163940,759.789307 1110.318359,766.733215 
	C1104.024658,768.935486 1098.065063,772.093262 1091.753174,774.902588 
	C1096.182129,783.802246 1100.100342,791.675415 1104.314087,800.224243 
M67.500053,719.830505 
	C57.413406,719.830505 47.326759,719.830505 37.291523,719.830505 
	C37.291523,777.015381 37.291523,833.583313 37.291523,890.176758 
	C47.989517,890.176758 58.390427,890.176758 69.171417,890.176758 
	C69.171417,873.729858 69.171417,857.630310 69.171417,841.167847 
	C82.519867,841.167847 95.484413,841.173889 108.448959,841.166016 
	C120.542229,841.158630 132.303253,839.311096 143.616425,834.889526 
	C188.526398,817.337280 187.017426,763.197876 165.810379,740.992188 
	C152.214783,726.756348 134.916443,721.076660 115.986214,720.148743 
	C100.190247,719.374451 84.331184,719.887512 67.500053,719.830505 
M994.169250,752.500061 
	C994.169250,743.059326 994.169250,733.618652 994.169250,724.158813 
	C977.798401,724.158813 961.916809,724.158813 946.151245,724.158813 
	C946.151245,781.054810 946.151245,837.615601 946.151245,894.172241 
	C989.385498,894.172241 1032.280762,894.172241 1075.146729,894.172241 
	C1075.146729,881.270325 1075.146729,868.724854 1075.146729,855.788208 
	C1048.018311,855.788208 1021.261230,855.788208 994.169250,855.788208 
	C994.169250,821.426819 994.169250,787.463440 994.169250,752.500061 
M902.368469,782.958618 
	C905.591003,775.534851 908.813477,768.111084 912.269653,760.148926 
	C902.791260,760.148926 894.006226,759.998230 885.237183,760.304016 
	C883.848755,760.352356 881.914734,762.190430 881.275879,763.655762 
	C873.115051,782.374084 865.151489,801.178345 857.123352,819.954590 
	C852.110535,831.678467 847.073303,843.391846 841.735779,855.835754 
	C839.944092,851.738831 838.476135,848.466003 837.075073,845.164734 
	C825.656372,818.260620 814.283325,791.336975 802.761108,764.477356 
	C802.036499,762.788208 800.220154,760.399109 798.837585,760.348145 
	C789.097900,759.989014 779.338745,760.157532 769.048706,760.157532 
	C769.726624,761.801453 770.140869,762.853516 770.590759,763.890015 
	C787.715393,803.340149 804.585205,842.904724 822.198730,882.135498 
	C825.538574,889.574341 824.782593,895.219299 820.701233,901.346313 
	C820.239868,902.038940 819.785461,902.736206 819.335510,903.436279 
	C813.848206,911.975525 805.898560,915.490356 796.200012,913.172363 
	C789.926758,911.673096 784.044312,908.538940 777.612854,905.989075 
	C774.104065,912.450073 770.082031,919.856140 766.104126,927.180969 
	C788.739319,947.255066 826.855530,942.134705 843.007507,917.068665 
	C845.429871,913.309448 847.631287,909.343262 849.412781,905.245789 
	C867.023315,864.742249 884.523560,824.190735 902.368469,782.958618 
M424.299438,862.777222 
	C441.776672,834.539673 438.028809,798.301208 414.798584,776.764526 
	C396.699432,759.984924 374.585999,755.899658 351.073029,760.049500 
	C294.845825,769.973083 283.694550,831.012390 308.922180,865.547729 
	C335.299042,901.656067 398.939453,901.051086 424.299438,862.777222 
M552.236206,831.126770 
	C553.785461,847.018127 559.333923,861.145813 570.888062,872.483826 
	C585.368042,886.692932 603.102234,892.367554 623.078735,892.009827 
	C680.968994,890.973267 704.176758,836.180725 683.820618,794.230225 
	C665.271790,756.004333 606.556396,746.201843 573.639893,775.579224 
	C557.316772,790.147339 551.283997,808.832886 552.236206,831.126770 
M468.153748,804.500488 
	C468.155396,819.490479 468.168243,834.480530 468.156067,849.470520 
	C468.136871,873.187439 480.163422,887.735535 503.486084,891.401306 
	C515.725830,893.325134 527.754272,892.097473 538.750488,885.752258 
	C540.128845,884.956909 541.949158,882.545532 541.610657,881.541992 
	C539.341187,874.814392 536.542542,868.265320 533.849060,861.491089 
	C532.767334,862.124695 532.069641,862.546387 531.360168,862.947205 
	C513.424011,873.078003 498.852234,864.759583 498.847870,844.384521 
	C498.844025,826.396545 498.842102,808.408569 498.859131,790.420593 
	C498.860504,788.986206 499.016785,787.551941 499.131256,785.604126 
	C510.837982,785.604126 522.227966,785.604126 533.554504,785.604126 
	C533.554504,777.143250 533.554504,769.224670 533.554504,760.851562 
	C521.861328,760.851562 510.452454,760.851562 498.751831,760.851562 
	C498.751831,750.946777 498.751831,741.499756 498.751831,731.877075 
	C488.417786,731.877075 478.394196,731.877075 468.043701,731.877075 
	C468.043701,741.718994 468.043701,751.155212 468.043701,761.088379 
	C460.825348,761.088379 453.921844,761.088379 447.086182,761.088379 
	C447.086182,769.523132 447.086182,777.450317 447.086182,785.963806 
	C454.208191,785.963806 461.095123,785.963806 468.153748,785.963806 
	C468.153748,792.202942 468.153748,797.851990 468.153748,804.500488 
M726.642517,890.534790 
	C734.549500,890.534790 742.456482,890.534790 750.265198,890.534790 
	C750.265198,829.784668 750.265198,769.896179 750.265198,709.745239 
	C740.078918,709.745239 730.170654,709.745239 720.056885,709.745239 
	C720.056885,769.984497 720.056885,830.019348 720.056885,890.534668 
	C722.081726,890.534668 723.883972,890.534668 726.642517,890.534790 
M240.221725,773.722595 
	C239.076645,775.000305 237.931580,776.278076 236.004059,778.428894 
	C236.004059,771.630737 236.004059,766.065979 236.004059,760.524597 
	C226.181351,760.524597 216.799011,760.524597 207.459900,760.524597 
	C207.459900,803.967590 207.459900,847.035706 207.459900,890.229431 
	C217.688538,890.229431 227.605637,890.229431 237.848221,890.229431 
	C237.848221,888.103394 237.844254,886.292908 237.848831,884.482361 
	C237.900787,863.988586 237.678558,843.489258 238.089066,823.002625 
	C238.455597,804.710938 248.456207,791.823242 264.727417,788.411255 
	C270.462799,787.208557 276.495605,787.424194 282.581757,786.978394 
	C282.581757,778.047424 282.581757,768.632751 282.581757,758.853333 
	C266.684967,758.666504 252.282364,761.741943 240.221725,773.722595 
z"/>
<path fill="#9327DE" opacity="1.000000" stroke="none" 
	d="
M534.901917,25.935562 
	C538.920471,25.282324 542.938171,24.624044 546.957886,23.978188 
	C548.701904,23.697973 550.450012,23.443333 552.894775,23.364916 
	C560.733765,23.698940 567.874207,23.845125 574.969604,24.348639 
	C570.976990,27.773584 570.432373,31.373825 572.661377,35.846195 
	C573.405273,37.338718 572.990173,39.442764 572.990295,41.267292 
	C573.000793,195.497467 572.999939,349.727631 572.999817,503.957794 
	C572.999817,504.957123 573.143799,505.982422 572.971008,506.951050 
	C572.384583,510.238312 572.777527,514.981384 570.787964,516.453064 
	C567.342712,519.001465 567.748718,521.030640 568.777466,524.097046 
	C568.387939,524.506775 568.219055,524.791809 567.774414,525.197266 
	C566.752441,525.608887 566.006104,525.899902 564.867432,526.130615 
	C563.331604,526.691223 562.188110,527.312317 561.029480,527.987427 
	C561.014404,528.041504 560.903381,528.024414 560.475586,528.008789 
	C552.702576,528.984375 545.357361,529.975647 537.998047,530.545898 
	C537.655884,527.171875 537.041931,524.219055 537.041016,521.266052 
	C536.994690,363.653412 536.991699,206.040756 537.033325,48.428112 
	C537.034851,42.662327 535.341614,36.449505 541.341187,31.723341 
	C537.770996,30.545242 532.334167,32.097401 534.901917,25.935562 
z"/>
<path fill="#121212" opacity="1.000000" stroke="none" 
	d="
M1388.714355,859.619751 
	C1373.770874,891.842712 1340.151611,902.305237 1310.677856,893.773560 
	C1303.786133,891.778625 1297.671875,887.097717 1291.166626,883.634827 
	C1291.166626,886.598083 1291.166626,890.333435 1291.166626,894.289856 
	C1276.315552,894.289856 1261.888306,894.289856 1247.222778,894.289856 
	C1247.222778,834.058289 1247.222778,774.004639 1247.222778,713.720947 
	C1262.488403,713.720947 1277.602173,713.720947 1293.317139,713.720947 
	C1293.317139,733.080505 1293.317139,752.453064 1293.317139,772.738586 
	C1296.658447,770.427307 1299.093628,768.541077 1301.713989,766.962158 
	C1323.443848,753.869080 1357.907837,759.322205 1376.657959,778.990540 
	C1392.246094,795.341919 1396.724243,815.383789 1394.397949,837.119446 
	C1393.595459,844.616516 1390.775757,851.897583 1388.714355,859.619751 
M1297.069824,846.268311 
	C1302.846924,855.953979 1311.528320,860.138733 1322.595581,859.411621 
	C1332.976929,858.729492 1340.554810,853.456543 1344.739258,844.044495 
	C1349.097656,834.241211 1349.327759,824.029846 1345.443726,813.957642 
	C1341.243164,803.064514 1331.545288,796.787048 1319.776245,797.001282 
	C1308.063843,797.214539 1298.662109,803.907104 1294.916138,815.085449 
	C1291.445679,825.442627 1291.914917,835.679932 1297.069824,846.268311 
z"/>
<path fill="#9264FA" opacity="1.000000" stroke="none" 
	d="
M817.958618,22.445395 
	C827.409790,22.368765 836.860962,22.292135 847.059204,22.491436 
	C849.846252,22.675175 851.886108,22.582983 853.926025,22.490791 
	C855.063477,22.567568 856.200867,22.644344 857.809265,23.078188 
	C858.591187,23.605408 858.902222,23.775560 859.213196,23.945713 
	C863.885986,24.300798 868.675110,24.135359 873.201172,25.146910 
	C878.481323,26.326988 883.531677,28.535419 888.491028,30.628616 
	C887.200745,32.466331 885.206421,33.950508 885.167725,35.484055 
	C885.047180,40.261841 885.948669,45.057865 885.956360,49.847607 
	C886.029480,95.669846 886.032654,141.492310 885.922363,187.314423 
	C885.915405,190.194305 883.445557,193.719055 884.456543,195.820358 
	C886.844971,200.784790 884.279602,204.714081 883.378601,209.433487 
	C885.902832,210.608521 888.533447,211.833038 891.164062,213.057556 
	C873.145569,231.202072 855.119934,249.339523 837.120605,267.502991 
	C835.493958,269.144440 834.036316,270.953278 832.418518,273.141846 
	C832.336853,273.599365 832.169250,273.722992 831.862915,273.524200 
	C830.258728,274.212769 828.812500,274.944336 827.688293,276.014191 
	C822.474731,280.975739 817.350464,286.031097 811.858643,291.005493 
	C811.202515,290.358643 810.452576,289.438965 810.625366,289.207214 
	C813.701294,285.081329 816.777954,280.943268 820.129517,277.044312 
	C820.988953,276.044495 822.792603,275.856384 824.162415,275.295319 
	C823.490540,274.499146 822.818665,273.702942 822.146851,272.906769 
	C820.330200,273.841339 818.513550,274.775940 816.041260,276.047791 
	C816.303345,274.606812 816.179626,273.625244 816.610779,273.174164 
	C820.655884,268.942627 822.696045,264.376892 820.167969,258.478271 
	C819.560852,257.061737 820.003479,255.185104 820.003357,253.520081 
	C819.999329,185.375153 820.069824,117.230049 819.910095,49.085491 
	C819.890442,40.711178 818.643860,32.339737 817.963135,23.713108 
	C817.959900,23.121300 817.959290,22.783346 817.958618,22.445395 
z"/>
<path fill="#931FDA" opacity="1.000000" stroke="none" 
	d="
M534.504150,25.919815 
	C532.334167,32.097401 537.770996,30.545242 541.341187,31.723341 
	C535.341614,36.449505 537.034851,42.662327 537.033325,48.428112 
	C536.991699,206.040756 536.994690,363.653412 537.041016,521.266052 
	C537.041931,524.219055 537.655884,527.171875 537.529480,530.563354 
	C527.388489,530.013489 517.701843,529.025208 508.010620,527.616821 
	C508.337341,521.102112 508.938782,515.008301 508.955261,508.912842 
	C509.048004,474.608887 509.000000,440.304535 509.000000,406.000336 
	C509.000000,289.932251 508.998779,173.864136 509.003754,57.796036 
	C509.003998,52.387180 508.943451,46.974300 509.131073,41.570930 
	C509.248962,38.174114 507.207947,37.822350 504.674866,37.827362 
	C510.050751,35.135918 515.304688,32.151192 520.842102,29.848190 
	C525.077698,28.086624 529.671814,27.187063 534.504150,25.919815 
z"/>
<path fill="#131313" opacity="1.000000" stroke="none" 
	d="
M1104.166260,799.886414 
	C1100.100342,791.675415 1096.182129,783.802246 1091.753174,774.902588 
	C1098.065063,772.093262 1104.024658,768.935486 1110.318359,766.733215 
	C1130.163940,759.789307 1150.533936,758.061829 1171.265747,761.859558 
	C1200.258057,767.170593 1216.653687,784.973755 1217.669189,814.427368 
	C1218.580688,840.866760 1217.861084,867.362366 1217.861084,894.177856 
	C1203.596191,894.177856 1189.391602,894.177856 1174.862549,894.177856 
	C1174.862549,889.247009 1174.862549,884.483826 1174.862549,879.326782 
	C1171.224487,882.804077 1168.264282,886.364990 1164.622681,888.974976 
	C1154.310303,896.365906 1142.346069,897.042725 1130.233276,896.349121 
	C1118.865234,895.698181 1108.231445,892.657654 1099.479614,885.008789 
	C1087.842163,874.837952 1084.559570,861.631653 1087.397217,846.996765 
	C1090.283691,832.109863 1100.821899,823.826538 1114.673096,820.278503 
	C1124.081055,817.868652 1133.968018,816.986023 1143.702759,816.294250 
	C1152.788574,815.648560 1161.956299,816.156189 1171.095215,816.156189 
	C1170.713379,804.401184 1162.949585,797.073364 1150.166382,795.978088 
	C1134.712646,794.654053 1124.674683,797.160156 1107.742798,806.667725 
	C1106.599609,804.519409 1105.456787,802.371826 1104.166260,799.886414 
M1153.003296,866.880554 
	C1167.944092,863.153503 1173.993774,854.297974 1170.717285,840.486084 
	C1167.840942,840.486084 1164.862305,840.325684 1161.906494,840.517883 
	C1154.649658,840.989868 1147.295654,841.048035 1140.187378,842.377380 
	C1134.596069,843.422974 1131.914673,847.798523 1131.615356,853.228455 
	C1131.329346,858.417053 1133.790161,863.126709 1139.058350,864.931885 
	C1143.161133,866.337769 1147.748901,866.327759 1153.003296,866.880554 
z"/>
<path fill="#9244EC" opacity="1.000000" stroke="none" 
	d="
M817.500977,22.353586 
	C817.959290,22.783346 817.959900,23.121300 817.498413,23.717930 
	C800.687622,23.984064 784.338928,23.991522 767.522705,23.996096 
	C753.035156,23.998913 739.015137,24.004616 724.526978,24.005842 
	C713.874756,25.386181 703.428528,21.470236 693.240112,26.689003 
	C689.107117,28.806011 687.510559,28.907143 691.653503,32.308876 
	C692.255798,32.803440 692.505432,34.036190 692.488525,34.919140 
	C692.434937,37.726177 692.023132,40.529301 692.022461,43.334003 
	C691.996033,152.045700 691.845642,260.758026 692.295471,369.467865 
	C692.331177,378.086273 687.572327,386.308624 690.891907,395.011749 
	C691.144409,395.673798 690.146851,396.758667 689.880676,397.689941 
	C689.673462,398.415192 689.424133,399.310852 689.665527,399.953491 
	C691.950317,406.037598 691.168457,407.792572 685.834595,411.342255 
	C683.573547,412.846985 681.780579,415.376373 684.374146,418.640991 
	C672.571899,430.750305 660.860657,442.525177 649.105225,453.904358 
	C650.936279,450.724823 652.830078,447.953247 654.677673,445.151154 
	C655.417480,444.029083 656.863281,442.045349 656.620605,441.798584 
	C651.827759,436.925781 656.094177,433.122833 657.964294,429.083832 
	C659.171631,426.476410 659.802063,424.236359 656.843872,422.148468 
	C654.303711,420.355591 654.008240,417.057373 656.798950,416.079987 
	C661.761230,414.342041 660.995728,410.811157 660.995850,407.246796 
	C661.000916,291.529388 661.020142,175.811951 660.969910,60.094559 
	C660.964722,48.082916 662.851929,35.768509 655.452942,24.005014 
	C647.905334,24.005014 639.455139,24.005014 630.535706,24.001934 
	C621.046814,23.999252 612.027039,23.999649 602.538208,23.996513 
	C593.050964,23.992424 584.032776,23.991867 575.014648,23.991310 
	C567.874207,23.845125 560.733765,23.698940 553.300415,23.257042 
	C555.295349,22.663208 557.583252,22.104105 559.870972,22.104647 
	C645.595032,22.124939 731.319153,22.196840 817.500977,22.353586 
z"/>
<path fill="#242424" opacity="1.000000" stroke="none" 
	d="
M68.000061,719.830444 
	C84.331184,719.887512 100.190247,719.374451 115.986214,720.148743 
	C134.916443,721.076660 152.214783,726.756348 165.810379,740.992188 
	C187.017426,763.197876 188.526398,817.337280 143.616425,834.889526 
	C132.303253,839.311096 120.542229,841.158630 108.448959,841.166016 
	C95.484413,841.173889 82.519867,841.167847 69.171417,841.167847 
	C69.171417,857.630310 69.171417,873.729858 69.171417,890.176758 
	C58.390427,890.176758 47.989517,890.176758 37.291523,890.176758 
	C37.291523,833.583313 37.291523,777.015381 37.291523,719.830505 
	C47.326759,719.830505 57.413406,719.830505 68.000061,719.830444 
M71.636696,746.853210 
	C68.151909,746.397888 69.024025,748.967896 69.021317,750.760559 
	C68.990891,770.911987 68.998154,791.063416 69.020233,811.214844 
	C69.021263,812.157227 69.257095,813.099365 69.471123,814.693787 
	C86.106819,814.133850 102.638092,814.450439 118.968834,812.792114 
	C136.712006,810.990479 147.093765,798.918335 147.827530,781.964355 
	C148.571457,764.775330 139.392365,752.820312 121.926422,748.532471 
	C118.397194,747.666077 114.709213,747.096924 111.083542,747.035828 
	C98.263977,746.819702 85.439705,746.883484 71.636696,746.853210 
z"/>
<path fill="#9317D6" opacity="1.000000" stroke="none" 
	d="
M504.319092,37.757214 
	C507.207947,37.822350 509.248962,38.174114 509.131073,41.570930 
	C508.943451,46.974300 509.003998,52.387180 509.003754,57.796036 
	C508.998779,173.864136 509.000000,289.932251 509.000000,406.000336 
	C509.000000,440.304535 509.048004,474.608887 508.955261,508.912842 
	C508.938782,515.008301 508.337341,521.102112 507.801086,527.706299 
	C507.332947,528.388489 507.144440,528.621460 507.030670,528.914917 
	C495.915527,526.027893 485.698914,521.211609 476.352539,514.207886 
	C476.592438,513.542542 476.793823,513.278625 477.259949,512.790527 
	C477.524750,510.888306 477.524750,509.210266 477.524750,507.304871 
	C479.546692,508.680786 481.236847,509.830963 484.000000,511.711273 
	C484.000000,505.726105 484.000000,500.928345 484.000000,496.130554 
	C484.000000,359.330536 483.996490,222.530502 484.013214,85.730476 
	C484.013885,80.329514 483.815674,74.884003 484.422424,69.540123 
	C485.032074,64.171211 481.448700,58.706593 475.891602,57.854496 
	C484.073669,49.496269 493.271240,42.551582 504.319092,37.757214 
z"/>
<path fill="#131313" opacity="1.000000" stroke="none" 
	d="
M994.169250,753.000122 
	C994.169250,787.463440 994.169250,821.426819 994.169250,855.788208 
	C1021.261230,855.788208 1048.018311,855.788208 1075.146729,855.788208 
	C1075.146729,868.724854 1075.146729,881.270325 1075.146729,894.172241 
	C1032.280762,894.172241 989.385498,894.172241 946.151245,894.172241 
	C946.151245,837.615601 946.151245,781.054810 946.151245,724.158813 
	C961.916809,724.158813 977.798401,724.158813 994.169250,724.158813 
	C994.169250,733.618652 994.169250,743.059326 994.169250,753.000122 
z"/>
<path fill="#9310D3" opacity=".5" stroke="none" 
	d="
M475.895874,57.869583 
	C481.448700,58.706593 485.032074,64.171211 484.422424,69.540123 
	C483.815674,74.884003 484.013885,80.329514 484.013214,85.730476 
	C483.996490,222.530502 484.000000,359.330536 484.000000,496.130554 
	C484.000000,500.928345 484.000000,505.726105 484.000000,511.711273 
	C481.236847,509.830963 479.546692,508.680786 477.524750,507.304871 
	C477.524750,509.210266 477.524750,510.888306 476.894379,512.792358 
	C475.778015,513.063049 475.292023,513.107788 474.806030,513.152527 
	C474.806030,513.152527 474.921143,513.041687 474.927246,512.723389 
	C473.229431,511.325989 471.525543,510.246826 469.821686,509.167633 
	C469.821686,509.167633 469.902161,509.078003 469.809021,508.869324 
	C469.393890,508.491913 469.071838,508.323151 468.749817,508.154419 
	C468.749817,508.154419 468.864716,508.187866 468.865295,507.852722 
	C467.254547,505.517792 465.652283,503.510590 464.028076,501.521332 
	C463.224182,500.536743 461.745483,499.641235 461.654480,498.609924 
	C460.953491,490.664978 460.072723,482.696960 460.066589,474.735474 
	C459.971344,350.906494 460.010681,227.077408 459.925812,103.248398 
	C459.924042,100.689186 458.814331,98.130722 458.500397,96.775696 
	C460.166443,93.155975 461.583221,90.077835 463.332336,86.949905 
	C463.965576,86.206085 464.266479,85.512047 464.567413,84.818008 
	C464.203186,84.690865 463.838959,84.563721 463.474731,84.436577 
	C463.316498,85.291153 463.158264,86.145729 462.642090,86.938599 
	C461.644531,85.030182 460.502075,83.187279 460.488037,81.335831 
	C460.469086,78.828247 461.315399,76.314125 461.790527,73.802803 
	C461.790527,73.802803 461.737915,73.861847 462.111633,73.864349 
	C464.636658,71.187347 466.787994,68.507843 468.939270,65.828331 
	C470.015228,64.278046 471.091187,62.727776 472.730652,60.968983 
	C473.508087,60.469467 473.722076,60.178474 473.936066,59.887474 
	C473.936066,59.887474 473.969299,59.973503 474.175049,59.862049 
	C474.561310,59.460117 474.741760,59.169640 474.922241,58.879173 
	C474.922241,58.879177 474.968018,58.968792 475.170898,58.858078 
	C475.555206,58.457428 475.736603,58.167496 475.918030,57.877571 
	C475.918030,57.877575 475.900146,57.884670 475.895874,57.869583 
M481.071869,71.251846 
	C480.445312,71.719780 479.818756,72.187706 479.192169,72.655617 
	C479.481537,72.970299 479.770935,73.284981 480.060333,73.599678 
	C480.559479,72.959465 481.058655,72.319244 481.071869,71.251846 
z"/>
<path fill="#252525" opacity="1.000000" stroke="none" 
	d="
M902.211792,783.305725 
	C884.523560,824.190735 867.023315,864.742249 849.412781,905.245789 
	C847.631287,909.343262 845.429871,913.309448 843.007507,917.068665 
	C826.855530,942.134705 788.739319,947.255066 766.104126,927.180969 
	C770.082031,919.856140 774.104065,912.450073 777.612854,905.989075 
	C784.044312,908.538940 789.926758,911.673096 796.200012,913.172363 
	C805.898560,915.490356 813.848206,911.975525 819.335510,903.436279 
	C819.785461,902.736206 820.239868,902.038940 820.701233,901.346313 
	C824.782593,895.219299 825.538574,889.574341 822.198730,882.135498 
	C804.585205,842.904724 787.715393,803.340149 770.590759,763.890015 
	C770.140869,762.853516 769.726624,761.801453 769.048706,760.157532 
	C779.338745,760.157532 789.097900,759.989014 798.837585,760.348145 
	C800.220154,760.399109 802.036499,762.788208 802.761108,764.477356 
	C814.283325,791.336975 825.656372,818.260620 837.075073,845.164734 
	C838.476135,848.466003 839.944092,851.738831 841.735779,855.835754 
	C847.073303,843.391846 852.110535,831.678467 857.123352,819.954590 
	C865.151489,801.178345 873.115051,782.374084 881.275879,763.655762 
	C881.914734,762.190430 883.848755,760.352356 885.237183,760.304016 
	C894.006226,759.998230 902.791260,760.148926 912.269653,760.148926 
	C908.813477,768.111084 905.591003,775.534851 902.211792,783.305725 
z"/>
<path fill="#252525" opacity="1.000000" stroke="none" 
	d="
M424.109009,863.084595 
	C398.939453,901.051086 335.299042,901.656067 308.922180,865.547729 
	C283.694550,831.012390 294.845825,769.973083 351.073029,760.049500 
	C374.585999,755.899658 396.699432,759.984924 414.798584,776.764526 
	C438.028809,798.301208 441.776672,834.539673 424.109009,863.084595 
M394.358734,797.165527 
	C380.035004,781.782837 355.466034,780.159912 339.976440,794.162781 
	C328.219788,804.790955 325.470337,818.731689 327.997345,833.846375 
	C330.293884,847.582581 337.509094,857.907715 350.789398,862.969971 
	C364.657135,868.256165 378.087128,866.840820 389.856750,857.548767 
	C406.948547,844.054749 409.048798,816.260925 394.358734,797.165527 
z"/>
<path fill="#252525" opacity="1.000000" stroke="none" 
	d="
M552.202087,830.664185 
	C551.283997,808.832886 557.316772,790.147339 573.639893,775.579224 
	C606.556396,746.201843 665.271790,756.004333 683.820618,794.230225 
	C704.176758,836.180725 680.968994,890.973267 623.078735,892.009827 
	C603.102234,892.367554 585.368042,886.692932 570.888062,872.483826 
	C559.333923,861.145813 553.785461,847.018127 552.202087,830.664185 
M583.923584,834.441895 
	C586.032776,845.623657 591.528259,854.539307 601.418213,860.485535 
	C621.224243,872.393799 654.930603,865.263062 659.464355,832.156433 
	C663.792358,800.552246 640.371216,779.062744 610.911804,786.116882 
	C591.129517,790.853760 579.710266,811.245972 583.923584,834.441895 
z"/>
<path fill="#01E7F7" opacity="1.000000" stroke="none" 
	d="
M832.169250,273.722961 
	C832.169250,273.722992 832.336853,273.599365 832.327881,273.574646 
	C834.217896,275.115356 836.260559,276.536957 837.994751,278.267700 
	C866.421021,306.638611 894.809204,335.047668 923.198364,363.455719 
	C923.783936,364.041626 924.279175,364.717834 924.534363,365.638123 
	C919.505432,361.612305 914.758728,357.300323 909.864746,352.690186 
	C905.875244,348.490753 902.075195,344.546844 898.182861,340.696289 
	C887.145142,329.777130 876.069702,318.896118 864.861572,307.700867 
	C854.865356,297.655365 845.016724,287.909119 835.248352,278.242279 
	C833.814514,279.788422 832.527466,280.990387 831.480164,282.373840 
	C830.833801,283.227722 829.896118,284.905762 830.208435,285.280212 
	C833.551941,289.288422 830.866638,293.622437 830.875366,297.680725 
	C831.042175,375.469360 830.996765,453.258484 830.527100,531.066895 
	C818.037720,531.073914 806.016418,531.061523 793.996826,530.575073 
	C793.998962,467.801422 794.003357,405.501892 793.982361,343.202362 
	C793.981689,341.221558 793.877441,339.214386 793.550964,337.264832 
	C792.409729,330.450378 791.149780,323.655762 790.087830,316.561462 
	C798.465820,308.133301 806.758118,300.063843 814.893311,291.838959 
	C820.760254,285.907410 826.418091,279.769073 832.169250,273.722961 
z"/>
<path fill="#930ACF" opacity="1.000000" stroke="none" 
	d="
M463.000000,86.999695 
	C461.583221,90.077835 460.166443,93.155975 458.500397,96.775696 
	C458.814331,98.130722 459.924042,100.689186 459.925812,103.248398 
	C460.010681,227.077408 459.971344,350.906494 460.066589,474.735474 
	C460.072723,482.696960 460.953491,490.664978 461.654480,498.609924 
	C461.745483,499.641235 463.224182,500.536743 464.028076,501.521332 
	C465.652283,503.510590 467.254547,505.517792 468.824097,507.896149 
	C464.716125,504.262787 460.290253,500.549713 456.657623,496.177612 
	C448.778137,486.694122 443.050995,475.965759 439.883972,463.174835 
	C439.153656,459.527435 438.361328,456.695801 437.568970,453.864166 
	C437.568970,453.864166 437.618683,453.599915 437.778870,453.112122 
	C437.633057,447.009369 437.063568,441.394501 437.060394,435.779327 
	C437.005859,339.136688 437.016815,242.494034 437.049225,145.851395 
	C437.049957,143.715500 437.623810,141.582108 437.656464,139.443359 
	C437.698700,136.672318 437.465515,133.897064 437.350891,131.123627 
	C439.227417,116.320023 444.261047,102.523621 451.204590,89.443787 
	C454.052155,84.079758 457.826477,79.207695 461.484863,73.957321 
	C461.315399,76.314125 460.469086,78.828247 460.488037,81.335831 
	C460.502075,83.187279 461.644531,85.030182 462.642090,86.938446 
	C463.000000,87.000000 463.000000,86.999695 463.000000,86.999695 
z"/>
<path fill="#01F4F5" opacity="1.000000" stroke="none" 
	d="
M865.009094,308.000092 
	C876.069702,318.896118 887.145142,329.777130 898.182861,340.696289 
	C902.075195,344.546844 905.875244,348.490753 909.860352,353.103455 
	C910.391663,355.365997 910.306091,357.348022 911.253906,358.390442 
	C914.587830,362.056854 913.301086,365.620270 910.315002,367.826843 
	C907.183289,370.140991 906.968140,372.702087 906.972168,375.938995 
	C907.016479,411.744049 907.054077,447.549347 906.938660,483.354095 
	C906.922363,488.413147 906.079895,493.469574 905.612610,498.607391 
	C907.166321,499.222961 909.600891,500.187500 912.035400,501.152039 
	C912.262512,501.622772 912.489624,502.093506 912.716675,502.564240 
	C906.148865,504.283295 905.362549,508.484161 906.584106,513.648743 
	C906.753540,514.364929 906.248535,515.240662 906.055725,516.042542 
	C906.055725,516.042542 906.017090,516.004822 905.662964,516.014893 
	C904.271912,516.792236 903.234924,517.559631 902.197998,518.326965 
	C902.197998,518.326965 902.126465,518.213440 901.921753,518.237732 
	C901.495239,518.532959 901.273499,518.803833 901.051758,519.074707 
	C901.051697,519.074707 901.005310,518.997559 900.649048,519.015625 
	C897.533752,520.067017 894.700439,520.939697 892.033630,522.172363 
	C888.297424,523.899292 884.685120,525.894226 881.019775,527.774536 
	C880.864380,527.845337 880.708984,527.916138 879.887939,528.036621 
	C876.517090,528.420715 873.811951,528.755310 870.819214,528.889221 
	C869.216003,527.714661 867.819946,526.830872 866.603821,525.745483 
	C864.815002,524.148743 862.767212,522.015991 865.599731,520.087524 
	C869.015320,517.762085 868.408508,515.171509 867.595215,512.022156 
	C867.066040,509.973083 867.023499,507.758972 867.022339,505.618683 
	C866.993958,451.830231 867.004211,398.041748 866.983398,344.253296 
	C866.982605,342.270386 866.549805,340.278961 866.639954,338.306183 
	C866.967102,331.148743 862.797791,323.869110 867.380127,316.744354 
	C867.993774,315.790314 866.865356,313.657959 866.428711,312.103546 
	C866.037964,310.712555 865.488525,309.366150 865.009094,308.000092 
z"/>
<path fill="#9269FD" opacity="1.000000" stroke="none" 
	d="
M891.480042,212.897797 
	C888.533447,211.833038 885.902832,210.608521 883.378601,209.433487 
	C884.279602,204.714081 886.844971,200.784790 884.456543,195.820358 
	C883.445557,193.719055 885.915405,190.194305 885.922363,187.314423 
	C886.032654,141.492310 886.029480,95.669846 885.956360,49.847607 
	C885.948669,45.057865 885.047180,40.261841 885.167725,35.484055 
	C885.206421,33.950508 887.200745,32.466331 888.715820,30.904762 
	C889.131226,30.849949 889.108276,30.910765 889.247437,31.200897 
	C890.626282,32.909657 891.822083,34.369766 893.115662,35.737446 
	C895.194458,37.935394 897.321655,40.196198 900.180115,36.670189 
	C918.034180,46.963459 930.262878,62.232582 938.083679,80.955086 
	C954.117676,119.339577 946.107483,158.509872 916.695129,187.890182 
	C911.307373,193.272049 906.376282,199.253845 900.366699,203.815628 
	C896.895081,206.450989 893.990784,209.115967 891.480042,212.897797 
z"/>
<path fill="#262626" opacity="1.000000" stroke="none" 
	d="
M468.153748,804.000732 
	C468.153748,797.851990 468.153748,792.202942 468.153748,785.963806 
	C461.095123,785.963806 454.208191,785.963806 447.086182,785.963806 
	C447.086182,777.450317 447.086182,769.523132 447.086182,761.088379 
	C453.921844,761.088379 460.825348,761.088379 468.043701,761.088379 
	C468.043701,751.155212 468.043701,741.718994 468.043701,731.877075 
	C478.394196,731.877075 488.417786,731.877075 498.751831,731.877075 
	C498.751831,741.499756 498.751831,750.946777 498.751831,760.851562 
	C510.452454,760.851562 521.861328,760.851562 533.554504,760.851562 
	C533.554504,769.224670 533.554504,777.143250 533.554504,785.604126 
	C522.227966,785.604126 510.837982,785.604126 499.131256,785.604126 
	C499.016785,787.551941 498.860504,788.986206 498.859131,790.420593 
	C498.842102,808.408569 498.844025,826.396545 498.847870,844.384521 
	C498.852234,864.759583 513.424011,873.078003 531.360168,862.947205 
	C532.069641,862.546387 532.767334,862.124695 533.849060,861.491089 
	C536.542542,868.265320 539.341187,874.814392 541.610657,881.541992 
	C541.949158,882.545532 540.128845,884.956909 538.750488,885.752258 
	C527.754272,892.097473 515.725830,893.325134 503.486084,891.401306 
	C480.163422,887.735535 468.136871,873.187439 468.156067,849.470520 
	C468.168243,834.480530 468.155396,819.490479 468.153748,804.000732 
z"/>
<path fill="#272727" opacity="1.000000" stroke="none" 
	d="
M726.164429,890.534729 
	C723.883972,890.534668 722.081726,890.534668 720.056885,890.534668 
	C720.056885,830.019348 720.056885,769.984497 720.056885,709.745239 
	C730.170654,709.745239 740.078918,709.745239 750.265198,709.745239 
	C750.265198,769.896179 750.265198,829.784668 750.265198,890.534790 
	C742.456482,890.534790 734.549500,890.534790 726.164429,890.534729 
z"/>
<path fill="#272727" opacity="1.000000" stroke="none" 
	d="
M240.458191,773.460144 
	C252.282364,761.741943 266.684967,758.666504 282.581757,758.853333 
	C282.581757,768.632751 282.581757,778.047424 282.581757,786.978394 
	C276.495605,787.424194 270.462799,787.208557 264.727417,788.411255 
	C248.456207,791.823242 238.455597,804.710938 238.089066,823.002625 
	C237.678558,843.489258 237.900787,863.988586 237.848831,884.482361 
	C237.844254,886.292908 237.848221,888.103394 237.848221,890.229431 
	C227.605637,890.229431 217.688538,890.229431 207.459900,890.229431 
	C207.459900,847.035706 207.459900,803.967590 207.459900,760.524597 
	C216.799011,760.524597 226.181351,760.524597 236.004059,760.524597 
	C236.004059,766.065979 236.004059,771.630737 236.004059,778.428894 
	C237.931580,776.278076 239.076645,775.000305 240.458191,773.460144 
z"/>
<path fill="#03FAF4" opacity="1.000000" stroke="none" 
	d="
M906.396851,515.993408 
	C906.248535,515.240662 906.753540,514.364929 906.584106,513.648743 
	C905.362549,508.484161 906.148865,504.283295 912.716675,502.564240 
	C912.489624,502.093506 912.262512,501.622772 912.035400,501.152039 
	C909.600891,500.187500 907.166321,499.222961 905.612610,498.607391 
	C906.079895,493.469574 906.922363,488.413147 906.938660,483.354095 
	C907.054077,447.549347 907.016479,411.744049 906.972168,375.938995 
	C906.968140,372.702087 907.183289,370.140991 910.315002,367.826843 
	C913.301086,365.620270 914.587830,362.056854 911.253906,358.390442 
	C910.306091,357.348022 910.391663,355.365997 910.007690,353.401611 
	C914.758728,357.300323 919.505432,361.612305 924.598022,365.964874 
	C924.943848,366.005432 925.000916,366.008575 925.035278,366.333313 
	C925.636658,367.126160 926.203735,367.594269 926.770813,368.062317 
	C926.770813,368.062317 926.956604,368.072510 926.979492,368.394531 
	C927.225708,369.109894 927.449036,369.503265 927.672363,369.896606 
	C941.944214,383.837006 948.603516,401.557037 950.527344,420.707458 
	C954.177979,457.047119 941.534546,487.307953 913.641418,511.034271 
	C911.498596,512.856995 909.046387,514.316101 906.396851,515.993408 
M919.703552,502.569122 
	C919.989502,502.296112 920.275452,502.023132 920.561340,501.750092 
	C920.448181,501.631744 920.242798,501.404358 920.235046,501.410889 
	C919.933533,501.665649 919.649963,501.941711 919.703552,502.569122 
z"/>
<path fill="#4FC6FA" opacity="1.000000" stroke="none" 
	d="
M793.995117,531.049133 
	C806.016418,531.061523 818.037720,531.073914 830.940430,531.083252 
	C833.199890,531.083801 834.578003,531.087341 836.158813,531.313110 
	C837.255920,531.387146 838.150330,531.239014 839.483948,531.097656 
	C842.268188,531.098206 844.613159,531.092041 847.227051,531.330444 
	C849.345276,531.413208 851.194519,531.251465 853.496216,531.094849 
	C857.000793,531.003052 860.052917,530.906067 863.457214,530.858032 
	C864.264282,531.027344 864.719299,531.147705 865.174255,531.268127 
	C863.504700,531.730042 861.838562,532.579773 860.164978,532.594849 
	C839.685425,532.778992 819.204712,532.912354 798.724243,532.921570 
	C721.623230,532.956116 644.522156,532.963440 567.421204,532.889893 
	C562.302368,532.885010 557.184326,532.120667 552.000244,531.387817 
	C554.924133,530.052124 557.913757,529.038269 560.903381,528.024414 
	C560.903381,528.024414 561.014404,528.041504 561.361572,527.995117 
	C562.892456,527.362732 564.076111,526.776855 565.259766,526.190979 
	C566.006104,525.899902 566.752441,525.608887 568.126953,525.228394 
	C570.110352,524.782898 571.465576,524.426819 572.819702,524.411926 
	C568.583740,526.757202 564.348816,528.761353 559.530579,531.041504 
	C586.115112,531.041504 612.060852,531.041504 638.474609,531.058228 
	C653.295959,531.064453 667.649170,531.053955 682.470703,531.059631 
	C694.627136,531.061035 706.315247,531.046326 718.471558,531.049683 
	C730.626465,531.055847 742.313232,531.043945 754.468384,531.051025 
	C767.956238,531.062988 780.975647,531.056091 793.995117,531.049133 
z"/>
<path fill="#7E17A4" opacity="1.000000" stroke="none" 
	d="
M437.214966,131.526855 
	C437.465515,133.897064 437.698700,136.672318 437.656464,139.443359 
	C437.623810,141.582108 437.049957,143.715500 437.049225,145.851395 
	C437.016815,242.494034 437.005859,339.136688 437.060394,435.779327 
	C437.063568,441.394501 437.633057,447.009369 437.913269,453.110657 
	C437.270050,450.765045 436.116394,447.933807 436.112640,445.101105 
	C435.979919,344.849731 435.941040,244.598206 435.964417,144.346725 
	C435.965393,140.207748 436.691040,136.068954 437.214966,131.526855 
z"/>
<path fill="#9237E6" opacity="1.000000" stroke="none" 
	d="
M560.475586,528.008789 
	C557.913757,529.038269 554.924133,530.052124 551.661560,531.175049 
	C537.546387,533.147339 523.755310,533.368713 510.081238,529.973572 
	C509.284363,529.775696 508.514923,529.467407 507.381683,529.062744 
	C507.144440,528.621460 507.332947,528.388489 507.805695,528.126404 
	C517.701843,529.025208 527.388489,530.013489 537.543701,530.984375 
	C545.357361,529.975647 552.702576,528.984375 560.475586,528.008789 
z"/>
<path fill="#03FAF4" opacity="1.000000" stroke="none" 
	d="
M881.392273,527.833252 
	C884.685120,525.894226 888.297424,523.899292 892.033630,522.172363 
	C894.700439,520.939697 897.533752,520.067017 900.677002,519.051636 
	C894.629028,522.010315 888.196899,524.951172 881.392273,527.833252 
z"/>
<path fill="#9264FA" opacity="1.000000" stroke="none" 
	d="
M899.968811,36.413246 
	C897.321655,40.196198 895.194458,37.935394 893.115662,35.737446 
	C891.822083,34.369766 890.626282,32.909657 889.215881,31.193348 
	C892.615967,32.649212 896.186707,34.402756 899.968811,36.413246 
z"/>
<path fill="#4FC6FA" opacity="1.000000" stroke="none" 
	d="
M871.106812,529.089844 
	C873.811951,528.755310 876.517090,528.420715 879.646606,528.122620 
	C875.913818,529.259766 871.756592,530.360413 867.332275,531.026672 
	C867.090698,530.422302 867.116333,530.252258 867.496338,530.088135 
	C868.936035,529.759277 870.021423,529.424561 871.106812,529.089844 
z"/>
<path fill="#930ACF" opacity="1.000000" stroke="none" 
	d="
M468.623169,65.977448 
	C466.787994,68.507843 464.636658,71.187347 462.118591,73.825417 
	C463.936920,71.231499 466.121948,68.679031 468.623169,65.977448 
z"/>
<path fill="#7E17A4" opacity="1.000000" stroke="none" 
	d="
M437.589417,454.296295 
	C438.361328,456.695801 439.153656,459.527435 439.889771,462.790527 
	C439.092346,460.390778 438.351105,457.559601 437.589417,454.296295 
z"/>
<path fill="#930ACF" opacity="1.000000" stroke="none" 
	d="
M469.963074,509.469299 
	C471.525543,510.246826 473.229431,511.325989 474.893005,512.795654 
	C473.269989,512.047668 471.687256,510.909332 469.963074,509.469299 
z"/>
<path fill="#9244EC" opacity="1.000000" stroke="none" 
	d="
M853.516235,22.384686 
	C851.886108,22.582983 849.846252,22.675175 847.531128,22.604837 
	C849.206116,22.387732 851.156311,22.333155 853.516235,22.384686 
z"/>
<path fill="#03FAF4" opacity="1.000000" stroke="none" 
	d="
M902.531372,518.316467 
	C903.234924,517.559631 904.271912,516.792236 905.670837,516.040527 
	C904.976807,516.806091 903.920776,517.556030 902.531372,518.316467 
z"/>
<path fill="#01E7F7" opacity="1.000000" stroke="none" 
	d="
M867.141968,530.082214 
	C867.116333,530.252258 867.090698,530.422302 867.043701,530.849243 
	C866.613586,531.167786 866.204895,531.229370 865.485229,531.279541 
	C864.719299,531.147705 864.264282,531.027344 863.703613,530.618774 
	C864.779236,530.247864 865.960632,530.165039 867.141968,530.082214 
z"/>
<path fill="#01E7F7" opacity="1.000000" stroke="none" 
	d="
M926.735107,367.779419 
	C926.203735,367.594269 925.636658,367.126160 925.030518,366.361328 
	C925.560730,366.541901 926.130066,367.019196 926.735107,367.779419 
z"/>
<path fill="#930ACF" opacity="1.000000" stroke="none" 
	d="
M474.904785,513.395264 
	C475.292023,513.107788 475.778015,513.063049 476.629578,513.016479 
	C476.793823,513.278625 476.592438,513.542542 476.167114,513.923645 
	C475.629944,513.906616 475.316711,513.772339 474.904785,513.395264 
z"/>
<path fill="#01E7F7" opacity="1.000000" stroke="none" 
	d="
M927.694885,369.638062 
	C927.449036,369.503265 927.225708,369.109894 926.962158,368.485962 
	C927.187073,368.630066 927.452209,369.004791 927.694885,369.638062 
z"/>
<path fill="#9317D6" opacity="1.000000" stroke="none" 
	d="
M473.671021,59.963028 
	C473.722076,60.178474 473.508087,60.469467 473.026123,60.833912 
	C472.974060,60.617767 473.190002,60.328175 473.671021,59.963028 
z"/>
<path fill="#9317D6" opacity="1.000000" stroke="none" 
	d="
M474.666779,58.958817 
	C474.741760,59.169640 474.561310,59.460117 474.133789,59.841522 
	C474.061584,59.634457 474.236481,59.336460 474.666779,58.958817 
z"/>
<path fill="#9317D6" opacity="1.000000" stroke="none" 
	d="
M475.659668,57.952515 
	C475.736603,58.167496 475.555206,58.457428 475.125671,58.836006 
	C475.052185,58.625595 475.226776,58.326530 475.659668,57.952515 
z"/>
<path fill="#9244EC" opacity="1.000000" stroke="none" 
	d="
M859.084717,23.694164 
	C858.902222,23.775560 858.591187,23.605408 858.134460,23.208757 
	C858.311218,23.135712 858.633789,23.289164 859.084717,23.694164 
z"/>
<path fill="#03FAF4" opacity="1.000000" stroke="none" 
	d="
M901.331787,519.056396 
	C901.273499,518.803833 901.495239,518.532959 901.988647,518.233276 
	C902.044128,518.482422 901.828003,518.760254 901.331787,519.056396 
z"/>
<path fill="#930ACF" opacity="1.000000" stroke="none" 
	d="
M468.832825,508.424500 
	C469.071838,508.323151 469.393890,508.491913 469.804138,508.929382 
	C469.566864,509.030212 469.241364,508.862366 468.832825,508.424500 
z"/>
<path fill="#9330E2" opacity="1.000000" stroke="none" 
	d="
M574.969604,24.348639 
	C584.032776,23.991867 593.050964,23.992424 602.529968,24.373350 
	C602.046692,26.393946 601.102539,28.034174 600.692444,28.746555 
	C601.206909,32.467403 601.948914,35.335522 601.950317,38.203995 
	C602.008118,160.304825 602.000000,282.405670 602.000000,404.506531 
	C602.000000,429.326477 602.018860,454.146484 601.959961,478.966309 
	C601.955811,480.721649 601.998840,483.183868 600.953552,484.097900 
	C597.772461,486.879517 599.315308,489.243347 600.541870,492.076721 
	C601.123230,493.419556 601.340820,495.939789 600.555176,496.670013 
	C597.811035,499.220703 597.724426,502.133087 598.129272,505.545654 
	C597.878784,505.968170 597.653503,506.108368 597.054810,506.214630 
	C596.545410,506.636108 596.346497,506.990204 596.083008,507.539368 
	C595.857300,507.981781 595.629883,508.120911 595.054077,508.191833 
	C594.540466,508.515930 594.309082,508.800018 594.041504,509.042053 
	C594.005188,509.000000 594.082214,509.083954 593.836731,509.170258 
	C593.391663,509.533356 593.192017,509.810120 592.713989,510.249695 
	C590.259949,512.529663 588.084229,514.646729 585.867004,516.780518 
	C585.825500,516.797180 585.775208,516.871094 585.424194,516.896484 
	C581.764832,518.652466 578.456421,520.382996 574.785156,522.109741 
	C572.614136,522.728088 570.806152,523.350220 568.998108,523.972351 
	C567.748718,521.030640 567.342712,519.001465 570.787964,516.453064 
	C572.777527,514.981384 572.384583,510.238312 572.971008,506.951050 
	C573.143799,505.982422 572.999817,504.957123 572.999817,503.957794 
	C572.999939,349.727631 573.000793,195.497467 572.990295,41.267292 
	C572.990173,39.442764 573.405273,37.338718 572.661377,35.846195 
	C570.432373,31.373825 570.976990,27.773584 574.969604,24.348639 
z"/>
<path fill="#9237E6" opacity="1.000000" stroke="none" 
	d="
M568.777466,524.097046 
	C570.806152,523.350220 572.614136,522.728088 574.723877,522.343872 
	C574.875366,522.864807 574.728760,523.149841 574.278931,523.500000 
	C573.588196,523.732422 573.204468,523.901611 572.820740,524.070801 
	C571.465576,524.426819 570.110352,524.782898 568.402649,525.107910 
	C568.219055,524.791809 568.387939,524.506775 568.777466,524.097046 
z"/>
<path fill="#9237E6" opacity="1.000000" stroke="none" 
	d="
M564.867432,526.130615 
	C564.076111,526.776855 562.892456,527.362732 561.376709,527.941040 
	C562.188110,527.312317 563.331604,526.691223 564.867432,526.130615 
z"/>
<path fill="#FDFDFD" opacity="1.000000" stroke="none" 
	d="
M1296.907104,845.932983 
	C1291.914917,835.679932 1291.445679,825.442627 1294.916138,815.085449 
	C1298.662109,803.907104 1308.063843,797.214539 1319.776245,797.001282 
	C1331.545288,796.787048 1341.243164,803.064514 1345.443726,813.957642 
	C1349.327759,824.029846 1349.097656,834.241211 1344.739258,844.044495 
	C1340.554810,853.456543 1332.976929,858.729492 1322.595581,859.411621 
	C1311.528320,860.138733 1302.846924,855.953979 1296.907104,845.932983 
z"/>
<path fill="#915AF7" opacity="1.000000" stroke="none" 
	d="
M767.990234,23.998976 
	C784.338928,23.991522 800.687622,23.984064 817.501038,23.971786 
	C818.643860,32.339737 819.890442,40.711178 819.910095,49.085491 
	C820.069824,117.230049 819.999329,185.375153 820.003357,253.520081 
	C820.003479,255.185104 819.560852,257.061737 820.167969,258.478271 
	C822.696045,264.376892 820.655884,268.942627 816.610779,273.174164 
	C816.179626,273.625244 816.303345,274.606812 816.041260,276.047791 
	C818.513550,274.775940 820.330200,273.841339 822.146851,272.906769 
	C822.818665,273.702942 823.490540,274.499146 824.162415,275.295319 
	C822.792603,275.856384 820.988953,276.044495 820.129517,277.044312 
	C816.777954,280.943268 813.701294,285.081329 810.625366,289.207214 
	C810.452576,289.438965 811.202515,290.358643 811.688904,291.301880 
	C796.694336,306.862946 781.562866,322.109344 766.349548,337.273651 
	C763.206543,340.406586 759.759155,343.234192 756.120544,346.018188 
	C756.031372,344.553589 755.881897,342.978821 756.584351,342.044495 
	C759.474609,338.200195 762.396973,334.328888 765.749268,330.899323 
	C768.438538,328.148071 768.667419,325.705353 766.055664,323.182068 
	C761.637939,318.914185 761.955872,313.580536 761.959473,308.111755 
	C762.016907,220.688980 761.985046,133.266129 762.038147,45.843338 
	C762.041260,40.742744 759.908508,34.754715 767.466858,32.125458 
	C765.519409,30.558205 764.243958,29.531775 763.208252,28.698288 
	C765.012756,26.924994 766.501465,25.461983 767.990234,23.998976 
z"/>
<path fill="#4FC6FA" opacity="1.000000" stroke="none" 
	d="
M756.452026,346.202515 
	C759.759155,343.234192 763.206543,340.406586 766.349548,337.273651 
	C781.562866,322.109344 796.694336,306.862946 812.024536,291.349243 
	C817.350464,286.031097 822.474731,280.975739 827.688293,276.014191 
	C828.812500,274.944336 830.258728,274.212769 831.862915,273.524170 
	C826.418091,279.769073 820.760254,285.907410 814.893311,291.838959 
	C806.758118,300.063843 798.465820,308.133301 789.795898,316.742920 
	C782.963379,323.596191 776.500671,329.902954 770.212402,336.379059 
	C765.330383,341.406830 760.666077,346.646027 755.564026,351.867188 
	C754.656067,352.264618 753.979187,352.477448 753.538208,352.923462 
	C742.011902,364.583954 730.510010,376.268646 718.693176,388.085571 
	C716.564026,390.149048 714.745667,392.076050 712.861084,394.203186 
	C712.794922,394.403351 712.740234,394.821381 712.418823,394.894470 
	C700.713196,406.268311 689.328918,417.569061 677.654785,429.040863 
	C666.560059,440.103241 655.755310,450.994568 644.656372,462.049255 
	C642.858521,464.122437 641.354919,466.032288 639.640930,467.934998 
	C639.430481,467.927826 639.011902,467.973755 638.700439,468.101257 
	C633.640503,472.475342 628.892029,476.721893 624.186523,480.639465 
	C625.385193,478.933533 626.459595,477.477509 627.709900,476.192596 
	C634.833191,468.872498 641.998474,461.593201 649.149414,454.300049 
	C660.860657,442.525177 672.571899,430.750305 684.683533,418.563385 
	C689.037659,414.378143 693.106323,410.716888 696.917175,406.804382 
	C702.114136,401.468842 707.114502,395.941803 712.516479,390.397156 
	C713.638428,389.577362 714.443054,388.857330 715.526733,387.987579 
	C716.365112,386.966705 716.924438,386.095551 717.810486,385.169922 
	C728.466736,374.796814 738.796265,364.478180 749.412598,354.004761 
	C751.196411,352.275940 752.693481,350.701874 754.472046,348.977142 
	C755.319763,347.951843 755.885925,347.077179 756.452026,346.202515 
z"/>
<path fill="#FDFDFD" opacity="1.000000" stroke="none" 
	d="
M1152.562256,866.913818 
	C1147.748901,866.327759 1143.161133,866.337769 1139.058350,864.931885 
	C1133.790161,863.126709 1131.329346,858.417053 1131.615356,853.228455 
	C1131.914673,847.798523 1134.596069,843.422974 1140.187378,842.377380 
	C1147.295654,841.048035 1154.649658,840.989868 1161.906494,840.517883 
	C1164.862305,840.325684 1167.840942,840.486084 1170.717285,840.486084 
	C1173.993774,854.297974 1167.944092,863.153503 1152.562256,866.913818 
z"/>
<path fill="#923DEA" opacity="1.000000" stroke="none" 
	d="
M649.105225,453.904358 
	C641.998474,461.593201 634.833191,468.872498 627.709900,476.192596 
	C626.459595,477.477509 625.385193,478.933533 624.120483,480.648651 
	C624.011475,480.986786 623.959595,481.106537 623.661865,481.106750 
	C622.646606,481.443512 621.929077,481.780090 621.150146,481.710602 
	C623.270203,477.495758 625.061401,473.379852 627.747009,469.967957 
	C630.238159,466.803131 634.007141,464.524963 629.377563,460.267822 
	C628.755188,459.695496 628.671692,457.816101 629.113098,456.925995 
	C631.814453,451.478729 629.985535,445.861053 629.986633,440.328186 
	C630.005249,346.009552 630.000000,251.690903 630.000000,157.372253 
	C630.000000,116.711914 629.973511,76.051529 630.043823,35.391315 
	C630.050415,31.595341 630.669922,27.800425 631.004883,24.005016 
	C639.455139,24.005014 647.905334,24.005014 655.452942,24.005014 
	C662.851929,35.768509 660.964722,48.082916 660.969910,60.094559 
	C661.020142,175.811951 661.000916,291.529388 660.995850,407.246796 
	C660.995728,410.811157 661.761230,414.342041 656.798950,416.079987 
	C654.008240,417.057373 654.303711,420.355591 656.843872,422.148468 
	C659.802063,424.236359 659.171631,426.476410 657.964294,429.083832 
	C656.094177,433.122833 651.827759,436.925781 656.620605,441.798584 
	C656.863281,442.045349 655.417480,444.029083 654.677673,445.151154 
	C652.830078,447.953247 650.936279,450.724823 649.105225,453.904358 
z"/>
<path fill="#9237E6" opacity="1.000000" stroke="none" 
	d="
M630.535706,24.001936 
	C630.669922,27.800425 630.050415,31.595341 630.043823,35.391315 
	C629.973511,76.051529 630.000000,116.711914 630.000000,157.372253 
	C630.000000,251.690903 630.005249,346.009552 629.986633,440.328186 
	C629.985535,445.861053 631.814453,451.478729 629.113098,456.925995 
	C628.671692,457.816101 628.755188,459.695496 629.377563,460.267822 
	C634.007141,464.524963 630.238159,466.803131 627.747009,469.967957 
	C625.061401,473.379852 623.270203,477.495758 621.111328,481.708557 
	C621.133911,482.112549 621.067200,482.078766 620.813477,482.199707 
	C620.424011,482.660004 620.288269,482.999390 620.004456,483.629852 
	C616.280273,487.940338 612.704224,491.959717 609.065552,496.005005 
	C609.002991,496.030884 608.980286,496.164368 608.773560,496.212585 
	C608.298584,496.422943 608.167908,496.660797 608.103210,496.989685 
	C608.031555,497.005066 607.970642,497.138367 607.639160,497.145874 
	C604.277771,499.890472 601.247742,502.627563 598.217712,505.364685 
	C597.724426,502.133087 597.811035,499.220703 600.555176,496.670013 
	C601.340820,495.939789 601.123230,493.419556 600.541870,492.076721 
	C599.315308,489.243347 597.772461,486.879517 600.953552,484.097900 
	C601.998840,483.183868 601.955811,480.721649 601.959961,478.966309 
	C602.018860,454.146484 602.000000,429.326477 602.000000,404.506531 
	C602.000000,282.405670 602.008118,160.304825 601.950317,38.203995 
	C601.948914,35.335522 601.206909,32.467403 600.692444,28.746555 
	C601.102539,28.034174 602.046692,26.393946 602.999084,24.376883 
	C612.027039,23.999649 621.046814,23.999252 630.535706,24.001936 
z"/>
<path fill="#9252F3" opacity="1.000000" stroke="none" 
	d="
M749.125793,354.159515 
	C738.796265,364.478180 728.466736,374.796814 717.474915,384.982391 
	C717.311096,383.366760 717.746826,381.859436 718.320068,380.406372 
	C719.940796,376.297821 728.629089,374.398224 722.252625,367.772827 
	C722.088379,367.602051 722.205994,367.134308 722.233398,366.808533 
	C722.818726,359.845886 723.916443,352.884308 723.923950,345.921417 
	C724.034363,243.262589 724.000061,140.603622 723.998474,37.944672 
	C723.998413,36.611740 724.502502,34.913284 723.873901,34.009544 
	C721.235168,30.215481 722.869446,27.137445 724.995117,24.010317 
	C739.015137,24.004616 753.035156,23.998913 767.522705,23.996092 
	C766.501465,25.461983 765.012756,26.924994 763.208252,28.698288 
	C764.243958,29.531775 765.519409,30.558205 767.466858,32.125458 
	C759.908508,34.754715 762.041260,40.742744 762.038147,45.843338 
	C761.985046,133.266129 762.016907,220.688980 761.959473,308.111755 
	C761.955872,313.580536 761.637939,318.914185 766.055664,323.182068 
	C768.667419,325.705353 768.438538,328.148071 765.749268,330.899323 
	C762.396973,334.328888 759.474609,338.200195 756.584351,342.044495 
	C755.881897,342.978821 756.031372,344.553589 756.120544,346.018188 
	C755.885925,347.077179 755.319763,347.951843 754.065674,348.935303 
	C749.560669,348.754578 748.990540,351.163940 749.125793,354.159515 
z"/>
<path fill="#924BF1" opacity="1.000000" stroke="none" 
	d="
M724.526978,24.005842 
	C722.869446,27.137445 721.235168,30.215481 723.873901,34.009544 
	C724.502502,34.913284 723.998413,36.611740 723.998474,37.944672 
	C724.000061,140.603622 724.034363,243.262589 723.923950,345.921417 
	C723.916443,352.884308 722.818726,359.845886 722.233398,366.808533 
	C722.205994,367.134308 722.088379,367.602051 722.252625,367.772827 
	C728.629089,374.398224 719.940796,376.297821 718.320068,380.406372 
	C717.746826,381.859436 717.311096,383.366760 717.148193,385.036835 
	C716.924438,386.095551 716.365112,386.966705 715.120239,387.948242 
	C713.689514,388.871338 712.944336,389.684113 712.199158,390.496857 
	C707.114502,395.941803 702.114136,401.468842 696.917175,406.804382 
	C693.106323,410.716888 689.037659,414.378143 684.774536,418.228973 
	C681.780579,415.376373 683.573547,412.846985 685.834595,411.342255 
	C691.168457,407.792572 691.950317,406.037598 689.665527,399.953491 
	C689.424133,399.310852 689.673462,398.415192 689.880676,397.689941 
	C690.146851,396.758667 691.144409,395.673798 690.891907,395.011749 
	C687.572327,386.308624 692.331177,378.086273 692.295471,369.467865 
	C691.845642,260.758026 691.996033,152.045700 692.022461,43.334003 
	C692.023132,40.529301 692.434937,37.726177 692.488525,34.919140 
	C692.505432,34.036190 692.255798,32.803440 691.653503,32.308876 
	C687.510559,28.907143 689.107117,28.806011 693.240112,26.689003 
	C703.428528,21.470236 713.874756,25.386181 724.526978,24.005842 
z"/>
<path fill="#FEFEFE" opacity="1.000000" stroke="none" 
	d="
M72.126953,746.847168 
	C85.439705,746.883484 98.263977,746.819702 111.083542,747.035828 
	C114.709213,747.096924 118.397194,747.666077 121.926422,748.532471 
	C139.392365,752.820312 148.571457,764.775330 147.827530,781.964355 
	C147.093765,798.918335 136.712006,810.990479 118.968834,812.792114 
	C102.638092,814.450439 86.106819,814.133850 69.471123,814.693787 
	C69.257095,813.099365 69.021263,812.157227 69.020233,811.214844 
	C68.998154,791.063416 68.990891,770.911987 69.021317,750.760559 
	C69.024025,748.967896 68.151909,746.397888 72.126953,746.847168 
z"/>
<path fill="#9317D6" opacity="1.000000" stroke="none" 
	d="
M481.314850,71.465439 
	C481.058655,72.319244 480.559479,72.959465 480.060303,73.599670 
	C479.770935,73.284981 479.481537,72.970299 479.192169,72.655624 
	C479.818756,72.187706 480.445312,71.719780 481.314850,71.465439 
z"/>
<path fill="#930ACF" opacity="1.000000" stroke="none" 
	d="
M463.000000,87.000153 
	C463.158264,86.145729 463.316498,85.291153 463.474731,84.436577 
	C463.838959,84.563721 464.203186,84.690865 464.567413,84.818008 
	C464.266479,85.512047 463.965576,86.206085 463.332336,86.949905 
	C463.000000,86.999695 463.000000,87.000000 463.000000,87.000153 
z"/>
<path fill="#FDFDFD" opacity="1.000000" stroke="none" 
	d="
M394.596619,797.431396 
	C409.048798,816.260925 406.948547,844.054749 389.856750,857.548767 
	C378.087128,866.840820 364.657135,868.256165 350.789398,862.969971 
	C337.509094,857.907715 330.293884,847.582581 327.997345,833.846375 
	C325.470337,818.731689 328.219788,804.790955 339.976440,794.162781 
	C355.466034,780.159912 380.035004,781.782837 394.596619,797.431396 
z"/>
<path fill="#FDFDFD" opacity="1.000000" stroke="none" 
	d="
M583.876648,834.014038 
	C579.710266,811.245972 591.129517,790.853760 610.911804,786.116882 
	C640.371216,779.062744 663.792358,800.552246 659.464355,832.156433 
	C654.930603,865.263062 621.224243,872.393799 601.418213,860.485535 
	C591.528259,854.539307 586.032776,845.623657 583.876648,834.014038 
z"/>
<path fill="#01EDF6" opacity="1.000000" stroke="none" 
	d="
M867.496338,530.088135 
	C865.960632,530.165039 864.779236,530.247864 863.351501,530.569885 
	C860.052917,530.906067 857.000793,531.003052 853.254028,530.801270 
	C850.692383,530.697021 848.825256,530.891479 846.958130,531.085876 
	C844.613159,531.092041 842.268188,531.098206 839.298767,530.828857 
	C837.768250,530.732605 836.862183,530.911804 835.956055,531.090942 
	C834.578003,531.087341 833.199890,531.083801 831.408447,531.063843 
	C830.996765,453.258484 831.042175,375.469360 830.875366,297.680725 
	C830.866638,293.622437 833.551941,289.288422 830.208435,285.280212 
	C829.896118,284.905762 830.833801,283.227722 831.480164,282.373840 
	C832.527466,280.990387 833.814514,279.788422 835.248352,278.242279 
	C845.016724,287.909119 854.865356,297.655365 864.861572,307.700867 
	C865.488525,309.366150 866.037964,310.712555 866.428711,312.103546 
	C866.865356,313.657959 867.993774,315.790314 867.380127,316.744354 
	C862.797791,323.869110 866.967102,331.148743 866.639954,338.306183 
	C866.549805,340.278961 866.982605,342.270386 866.983398,344.253296 
	C867.004211,398.041748 866.993958,451.830231 867.022339,505.618683 
	C867.023499,507.758972 867.066040,509.973083 867.595215,512.022156 
	C868.408508,515.171509 869.015320,517.762085 865.599731,520.087524 
	C862.767212,522.015991 864.815002,524.148743 866.603821,525.745483 
	C867.819946,526.830872 869.216003,527.714661 870.819214,528.889221 
	C870.021423,529.424561 868.936035,529.759277 867.496338,530.088135 
z"/>
<path fill="#00E0F8" opacity="1.000000" stroke="none" 
	d="
M755.905151,351.791260 
	C760.666077,346.646027 765.330383,341.406830 770.212402,336.379059 
	C776.500671,329.902954 782.963379,323.596191 789.642944,317.035095 
	C791.149780,323.655762 792.409729,330.450378 793.550964,337.264832 
	C793.877441,339.214386 793.981689,341.221558 793.982361,343.202362 
	C794.003357,405.501892 793.998962,467.801422 793.996826,530.575073 
	C780.975647,531.056091 767.956238,531.062988 754.468384,530.578796 
	C754.000000,479.095428 753.986633,428.103241 754.026062,377.111053 
	C754.029114,373.171875 755.092529,369.110229 754.418152,365.327454 
	C753.700073,361.299774 750.573303,357.475708 755.709351,354.189209 
	C756.118530,353.927368 755.855652,352.615265 755.905151,351.791260 
z"/>
<path fill="#01F4F5" opacity="1.000000" stroke="none" 
	d="
M919.533813,502.392090 
	C919.649963,501.941711 919.933533,501.665649 920.235046,501.410889 
	C920.242798,501.404358 920.448181,501.631744 920.561401,501.750122 
	C920.275452,502.023132 919.989502,502.296112 919.533813,502.392090 
z"/>
<path fill="#01D9F9" opacity="1.000000" stroke="none" 
	d="
M755.564087,351.867188 
	C755.855652,352.615265 756.118530,353.927368 755.709351,354.189209 
	C750.573303,357.475708 753.700073,361.299774 754.418152,365.327454 
	C755.092529,369.110229 754.029114,373.171875 754.026062,377.111053 
	C753.986633,428.103241 754.000000,479.095428 754.000000,530.559814 
	C742.313232,531.043945 730.626465,531.055847 718.419067,530.630554 
	C717.598999,528.242065 717.075500,526.294617 717.041260,524.338623 
	C716.930725,518.016602 717.000000,511.691437 717.000000,505.367462 
	C717.000000,471.917023 717.031311,438.466492 716.957336,405.016205 
	C716.948853,401.158875 717.425964,396.855042 712.740234,394.821381 
	C712.740234,394.821381 712.794922,394.403351 713.265503,394.208618 
	C715.257812,394.277161 716.779419,394.540497 719.003906,394.925415 
	C719.003906,392.327118 719.003906,390.138123 719.003906,387.949158 
	C730.510010,376.268646 742.011902,364.583954 753.538208,352.923462 
	C753.979187,352.477448 754.656067,352.264618 755.564087,351.867188 
z"/>
<path fill="#01D3F9" opacity="1.000000" stroke="none" 
	d="
M712.418823,394.894470 
	C717.425964,396.855042 716.948853,401.158875 716.957336,405.016205 
	C717.031311,438.466492 717.000000,471.917023 717.000000,505.367462 
	C717.000000,511.691437 716.930725,518.016602 717.041260,524.338623 
	C717.075500,526.294617 717.598999,528.242065 717.950928,530.612549 
	C706.315247,531.046326 694.627136,531.061035 682.468567,530.625854 
	C681.665405,524.731689 681.066040,519.288513 681.045227,513.843018 
	C680.944702,487.562347 681.000000,461.281067 681.364258,434.961609 
	C682.772278,434.050415 684.546692,433.261963 684.659790,432.281799 
	C684.779236,431.247314 683.314026,430.029907 682.541077,428.892426 
	C682.027344,429.056885 681.513672,429.221344 681.000000,429.385834 
	C681.000000,431.257202 681.000000,433.128601 680.599915,434.986816 
	C679.448120,432.939026 678.696350,430.904388 677.944641,428.869781 
	C689.328918,417.569061 700.713196,406.268311 712.418823,394.894470 
z"/>
<path fill="#01CDFA" opacity="1.000000" stroke="none" 
	d="
M680.599915,434.986816 
	C681.000000,461.281067 680.944702,487.562347 681.045227,513.843018 
	C681.066040,519.288513 681.665405,524.731689 682.000244,530.609741 
	C667.649170,531.053955 653.295959,531.064453 638.472534,530.619019 
	C637.668274,523.711853 637.078552,517.261536 637.052185,510.808960 
	C636.993713,496.504791 636.419983,482.161987 639.011902,467.973755 
	C639.011902,467.973755 639.430481,467.927826 640.000977,467.911377 
	C642.031128,465.891876 643.490845,463.888855 644.950562,461.885864 
	C655.755310,450.994568 666.560059,440.103241 677.654785,429.040863 
	C678.696350,430.904388 679.448120,432.939026 680.599915,434.986816 
z"/>
<path fill="#03C4FA" opacity="1.000000" stroke="none" 
	d="
M638.700439,468.101257 
	C636.419983,482.161987 636.993713,496.504791 637.052185,510.808960 
	C637.078552,517.261536 637.668274,523.711853 638.004517,530.602356 
	C612.060852,531.041504 586.115112,531.041504 559.530579,531.041504 
	C564.348816,528.761353 568.583740,526.757202 572.819702,524.411926 
	C573.204468,523.901611 573.588196,523.732422 574.645996,523.635803 
	C578.805115,521.429260 582.290161,519.150208 585.775208,516.871094 
	C585.775208,516.871094 585.825500,516.797180 586.220703,516.825195 
	C589.541931,514.811829 592.783630,513.098694 595.324463,510.656525 
	C599.766846,506.386597 603.778503,501.668610 607.970642,497.138367 
	C607.970642,497.138367 608.031555,497.005066 608.290405,496.917236 
	C608.785767,496.667938 608.929443,496.446259 608.980286,496.164368 
	C608.980286,496.164368 609.002991,496.030884 609.394653,495.967957 
	C614.510742,490.972198 619.235168,486.039368 623.959595,481.106537 
	C623.959595,481.106537 624.011475,480.986786 624.077515,480.977600 
	C628.892029,476.721893 633.640503,472.475342 638.700439,468.101257 
z"/>
<path fill="#01E7F7" opacity="1.000000" stroke="none" 
	d="
M847.227051,531.330444 
	C848.825256,530.891479 850.692383,530.697021 852.801636,530.796143 
	C851.194519,531.251465 849.345276,531.413208 847.227051,531.330444 
z"/>
<path fill="#01E7F7" opacity="1.000000" stroke="none" 
	d="
M836.158813,531.313110 
	C836.862183,530.911804 837.768250,530.732605 838.859497,530.822144 
	C838.150330,531.239014 837.255920,531.387146 836.158813,531.313110 
z"/>
<path fill="#4FC6FA" opacity="1.000000" stroke="none" 
	d="
M607.639160,497.145874 
	C603.778503,501.668610 599.766846,506.386597 595.324463,510.656525 
	C592.783630,513.098694 589.541931,514.811829 586.262207,516.808533 
	C588.084229,514.646729 590.259949,512.529663 592.983032,510.194458 
	C593.714355,509.678955 593.898315,509.381470 594.082214,509.083984 
	C594.082214,509.083954 594.005188,509.000000 594.312744,508.987915 
	C594.858948,508.701172 595.097595,508.426483 595.336304,508.151794 
	C595.629883,508.120911 595.857300,507.981781 596.336792,507.395874 
	C596.891785,506.753998 597.128479,506.450653 597.365173,506.147278 
	C597.653503,506.108368 597.878784,505.968170 598.129272,505.545654 
	C601.247742,502.627563 604.277771,499.890472 607.639160,497.145874 
z"/>
<path fill="#4FC6FA" opacity="1.000000" stroke="none" 
	d="
M585.424194,516.896484 
	C582.290161,519.150208 578.805115,521.429260 574.953003,523.572571 
	C574.728760,523.149841 574.875366,522.864807 575.086853,522.347656 
	C578.456421,520.382996 581.764832,518.652466 585.424194,516.896484 
z"/>
<path fill="#9237E6" opacity="1.000000" stroke="none" 
	d="
M597.054810,506.214630 
	C597.128479,506.450653 596.891785,506.753998 596.401245,507.200836 
	C596.346497,506.990204 596.545410,506.636108 597.054810,506.214630 
z"/>
<path fill="#9237E6" opacity="1.000000" stroke="none" 
	d="
M593.836731,509.170288 
	C593.898315,509.381470 593.714355,509.678955 593.261414,510.031677 
	C593.192017,509.810120 593.391663,509.533356 593.836731,509.170288 
z"/>
<path fill="#9237E6" opacity="1.000000" stroke="none" 
	d="
M595.054077,508.191833 
	C595.097595,508.426483 594.858948,508.701172 594.348999,509.029968 
	C594.309082,508.800018 594.540466,508.515930 595.054077,508.191833 
z"/>
<path fill="#01D3F9" opacity="1.000000" stroke="none" 
	d="
M718.693176,388.085571 
	C719.003906,390.138123 719.003906,392.327118 719.003906,394.925415 
	C716.779419,394.540497 715.257812,394.277161 713.331726,394.008453 
	C714.745667,392.076050 716.564026,390.149048 718.693176,388.085571 
z"/>
<path fill="#915AF7" opacity="1.000000" stroke="none" 
	d="
M749.412598,354.004761 
	C748.990540,351.163940 749.560669,348.754578 753.784119,349.085938 
	C752.693481,350.701874 751.196411,352.275940 749.412598,354.004761 
z"/>
<path fill="#03C4FA" opacity="1.000000" stroke="none" 
	d="
M644.656372,462.049255 
	C643.490845,463.888855 642.031128,465.891876 640.211426,467.918518 
	C641.354919,466.032288 642.858521,464.122437 644.656372,462.049255 
z"/>
<path fill="#9252F3" opacity="1.000000" stroke="none" 
	d="
M712.516479,390.397156 
	C712.944336,389.684113 713.689514,388.871338 714.841187,388.097961 
	C714.443054,388.857330 713.638428,389.577362 712.516479,390.397156 
z"/>
<path fill="#4FC6FA" opacity="1.000000" stroke="none" 
	d="
M623.661865,481.106750 
	C619.235168,486.039368 614.510742,490.972198 609.457214,495.942078 
	C612.704224,491.959717 616.280273,487.940338 620.238159,483.482910 
	C620.769104,482.722809 620.918152,482.400787 621.067200,482.078766 
	C621.067200,482.078766 621.133911,482.112549 621.172729,482.114624 
	C621.929077,481.780090 622.646606,481.443512 623.661865,481.106750 
z"/>
<path fill="#923DEA" opacity="1.000000" stroke="none" 
	d="
M620.813477,482.199707 
	C620.918152,482.400787 620.769104,482.722809 620.386292,483.191772 
	C620.288269,482.999390 620.424011,482.660004 620.813477,482.199707 
z"/>
<path fill="#4FC6FA" opacity="1.000000" stroke="none" 
	d="
M608.773560,496.212585 
	C608.929443,496.446259 608.785767,496.667938 608.362061,496.901855 
	C608.167908,496.660797 608.298584,496.422943 608.773560,496.212585 
z"/>
<path fill="#01CDFA" opacity="1.000000" stroke="none" 
	d="
M681.364258,434.961609 
	C681.000000,433.128601 681.000000,431.257202 681.000000,429.385834 
	C681.513672,429.221344 682.027344,429.056885 682.541077,428.892426 
	C683.314026,430.029907 684.779236,431.247314 684.659790,432.281799 
	C684.546692,433.261963 682.772278,434.050415 681.364258,434.961609 
z"/>
</svg>