<?xml version="1.0" encoding="utf-8"?>
<!-- Generator: Adobe Illustrator 22.0.1, SVG Export Plug-In . SVG Version: 6.00 Build 0)  -->
<svg version="1.1" id="Capa_1" xmlns="http://www.w3.org/2000/svg" xmlns:xlink="http://www.w3.org/1999/xlink" x="0px" y="0px"
	 viewBox="0 0 1080 1080" style="enable-background:new 0 0 1080 1080;" xml:space="preserve">
<style type="text/css">
	.st0{clip-path:url(#SVGID_2_);fill:url(#SVGID_3_);}
	.st1{clip-path:url(#SVGID_5_);fill:url(#SVGID_6_);}
</style>
<g>
	<g>
		<defs>
			<path id="SVGID_1_" d="M292.5,441.3v202.8c0,68.2,55.3,123.5,123.5,123.5h218.9H691c86,0,129-103.9,68.2-164.7l-251-251
				c-25.7-25.7-57.4-37.3-88.4-37.3C354.8,314.7,292.5,365.1,292.5,441.3"/>
		</defs>
		<clipPath id="SVGID_2_">
			<use xlink:href="#SVGID_1_"  style="overflow:visible;"/>
		</clipPath>
		
			<linearGradient id="SVGID_3_" gradientUnits="userSpaceOnUse" x1="-0.465" y1="1080.6377" x2="3.5726" y2="1080.6377" gradientTransform="matrix(122.6407 0 0 -122.6407 349.5033 133071.3438)">
			<stop  offset="0" style="stop-color:#5DA3FB"/>
			<stop  offset="1" style="stop-color:#8FFFF3"/>
		</linearGradient>
		<rect x="292.5" y="314.7" class="st0" width="527.5" height="452.9"/>
	</g>
	<g>
		<defs>
			<path id="SVGID_4_" d="M408.3,311.2c-64,0-116,51.7-116,115.4v255.5c0,77.1,93.7,115.7,148.5,61.2l285.8-284.3
				c54.8-54.5,16-147.7-61.5-147.7H408.3z"/>
		</defs>
		<clipPath id="SVGID_5_">
			<use xlink:href="#SVGID_4_"  style="overflow:visible;"/>
		</clipPath>
		
			<linearGradient id="SVGID_6_" gradientUnits="userSpaceOnUse" x1="-0.4603" y1="1080.4866" x2="3.2964" y2="1080.4866" gradientTransform="matrix(122.4215 0 0 -122.4215 348.7018 132829.2813)">
			<stop  offset="0" style="stop-color:#7D0DC8"/>
			<stop  offset="0.2916" style="stop-color:#8133DD"/>
			<stop  offset="0.574" style="stop-color:#8451ED"/>
			<stop  offset="0.8156" style="stop-color:#8564F7"/>
			<stop  offset="0.9883" style="stop-color:#866AFA"/>
			<stop  offset="1" style="stop-color:#866AFA"/>
		</linearGradient>
		<rect x="292.4" y="311.2" class="st1" width="489" height="486.5"/>
	</g>
</g>
</svg>
