<svg width="24" height="24" viewBox="0 0 24 24" fill="none" xmlns="http://www.w3.org/2000/svg">
<path d="M22.4414 6.57102C22.3668 6.33831 22.2247 6.13299 22.0333 5.98111C21.8419 5.82922 21.6096 5.73761 21.366 5.71789L17.8767 5.42258L16.5154 2.24914C16.4193 2.02667 16.2602 1.83718 16.0577 1.70406C15.8553 1.57094 15.6182 1.5 15.3759 1.5C15.1336 1.5 14.8965 1.57094 14.694 1.70406C14.4915 1.83718 14.3324 2.02667 14.2364 2.24914L12.8751 5.42352L9.38479 5.71789C9.14243 5.73736 8.91127 5.82817 8.72045 5.97886C8.52964 6.12955 8.38773 6.33337 8.31262 6.56462C8.23751 6.79587 8.23256 7.04418 8.29841 7.27823C8.36426 7.51229 8.49794 7.7216 8.68261 7.87977L11.3226 10.1298L10.5323 13.4795C10.4767 13.7142 10.4916 13.9602 10.5749 14.1866C10.6583 14.413 10.8065 14.6099 11.001 14.7526C11.1979 14.8971 11.433 14.9805 11.6769 14.9921C11.9209 15.0038 12.1629 14.9433 12.3726 14.8182L15.3726 13.037L18.3726 14.8182C18.5824 14.9433 18.8243 15.0038 19.0683 14.9921C19.3122 14.9805 19.5473 14.8971 19.7442 14.7526C19.9388 14.61 20.0871 14.4131 20.1705 14.1867C20.2538 13.9602 20.2686 13.7142 20.2129 13.4795L19.4226 10.1298L22.0617 7.87977C22.2474 7.72371 22.3826 7.51603 22.4502 7.28304C22.5178 7.05006 22.5147 6.80225 22.4414 6.57102ZM18.3295 9.10227C18.1567 9.24862 18.028 9.44001 17.9575 9.65517C17.8869 9.87032 17.8775 10.1008 17.9301 10.321L18.6154 13.2273L16.011 11.6795C15.8188 11.5649 15.5992 11.5044 15.3754 11.5044C15.1516 11.5044 14.932 11.5649 14.7398 11.6795L12.1354 13.2179L12.8207 10.3116C12.8741 10.0915 12.8651 9.86091 12.7947 9.64563C12.7244 9.43036 12.5954 9.23895 12.4223 9.09289L10.1479 7.15977L13.1564 6.90477C13.3796 6.88603 13.5936 6.80685 13.7753 6.6757C13.957 6.54456 14.0995 6.36642 14.1876 6.16039L15.3754 3.39664L16.5604 6.16039C16.6487 6.3663 16.7913 6.54433 16.9729 6.67545C17.1546 6.80657 17.3684 6.88583 17.5917 6.90477L20.6001 7.15977L18.3295 9.10227ZM8.03104 11.7798L2.78104 17.0298C2.64031 17.1705 2.44944 17.2496 2.25042 17.2496C2.05139 17.2496 1.86052 17.1705 1.71979 17.0298C1.57906 16.889 1.5 16.6982 1.5 16.4991C1.5 16.3001 1.57906 16.1092 1.71979 15.9685L6.96979 10.7185C7.11052 10.5778 7.30139 10.4987 7.50042 10.4987C7.69944 10.4987 7.89031 10.5778 8.03104 10.7185C8.17177 10.8592 8.25083 11.0501 8.25083 11.2491C8.25083 11.4482 8.17177 11.639 8.03104 11.7798ZM9.53104 17.0298L4.28104 22.2798C4.21136 22.3494 4.12863 22.4047 4.03759 22.4424C3.94654 22.4801 3.84896 22.4996 3.75042 22.4996C3.65187 22.4996 3.55429 22.4801 3.46324 22.4424C3.3722 22.4047 3.28947 22.3494 3.21979 22.2798C3.15011 22.2101 3.09483 22.1274 3.05712 22.0363C3.01941 21.9453 3 21.8477 3 21.7491C3 21.6506 3.01941 21.553 3.05712 21.462C3.09483 21.3709 3.15011 21.2882 3.21979 21.2185L8.46979 15.9685C8.61052 15.8278 8.80139 15.7487 9.00042 15.7487C9.19944 15.7487 9.39031 15.8278 9.53104 15.9685C9.67177 16.1092 9.75083 16.3001 9.75083 16.4991C9.75083 16.6982 9.67177 16.889 9.53104 17.0298ZM16.281 15.9685C16.3508 16.0382 16.4061 16.1209 16.4438 16.2119C16.4816 16.303 16.501 16.4006 16.501 16.4991C16.501 16.5977 16.4816 16.6953 16.4438 16.7863C16.4061 16.8774 16.3508 16.9601 16.281 17.0298L11.031 22.2798C10.9614 22.3494 10.8786 22.4047 10.7876 22.4424C10.6965 22.4801 10.599 22.4996 10.5004 22.4996C10.4019 22.4996 10.3043 22.4801 10.2132 22.4424C10.1222 22.4047 10.0395 22.3494 9.96979 22.2798C9.90011 22.2101 9.84483 22.1274 9.80712 22.0363C9.76941 21.9453 9.75 21.8477 9.75 21.7491C9.75 21.6506 9.76941 21.553 9.80712 21.462C9.84483 21.3709 9.90011 21.2882 9.96979 21.2185L15.2198 15.9685C15.2894 15.8988 15.3722 15.8435 15.4632 15.8057C15.5543 15.768 15.6519 15.7486 15.7504 15.7486C15.849 15.7486 15.9466 15.768 16.0376 15.8057C16.1287 15.8435 16.2114 15.8988 16.281 15.9685Z" fill="black"/>
</svg>
